<?xml version="1.0" encoding="utf-8"?>
<!-- Generator: Adobe Illustrator 18.1.1, SVG Export Plug-In . SVG Version: 6.00 Build 0)  -->
<svg version="1.1" id="Layer_1" xmlns="http://www.w3.org/2000/svg" xmlns:xlink="http://www.w3.org/1999/xlink" x="0px" y="0px"
	 viewBox="-154 161 90 80" enable-background="new -154 161 90 80" xml:space="preserve">
<g>
	<path fill="none" stroke="#E64C3B" stroke-width="3" stroke-linecap="round" stroke-linejoin="round" stroke-miterlimit="10" d="
		M-89.5,196.1h6c1.3,0,2.4,1.1,2.4,2.4v23c0,1.3-1.1,2.4-2.4,2.4h-6"/>
	
		<line fill="none" stroke="#E64C3B" stroke-width="3" stroke-linecap="round" stroke-linejoin="round" stroke-miterlimit="10" x1="-110.8" y1="204.3" x2="-110.8" y2="226.9"/>
	
		<line fill="none" stroke="#E64C3B" stroke-width="3" stroke-linecap="round" stroke-linejoin="round" stroke-miterlimit="10" x1="-101.2" y1="204.3" x2="-101.2" y2="226.9"/>
	<path fill="none" stroke="#E64C3B" stroke-width="3" stroke-linecap="round" stroke-linejoin="round" stroke-miterlimit="10" d="
		M-114.9,188.4h23.6c0.7,0,1.3,0.6,1.3,1.3v27.1"/>
	
		<line fill="none" stroke="#E64C3B" stroke-width="3" stroke-linecap="round" stroke-linejoin="round" stroke-miterlimit="10" x1="-122" y1="216.8" x2="-122" y2="203"/>
	<path fill="none" stroke="#E64C3B" stroke-width="3" stroke-linecap="round" stroke-linejoin="round" stroke-miterlimit="10" d="
		M-90,216.8v11.4c0,3.6-3,6.6-6.6,6.6h-18.8c-3.6,0-6.6-3-6.6-6.6v-11.4"/>
	<path fill="none" stroke="#E64C3B" stroke-width="3" stroke-linecap="round" stroke-linejoin="round" stroke-miterlimit="10" d="
		M-96.1,188.2c0-3.9-3.2-6.4-7.1-6.4c-1,0-1.9,0.2-2.7,0.5c0-0.2,0-0.4,0-0.5c0-3.9-3.2-7.1-7.1-7.1c-3.3,0-6,2.2-6.8,5.3
		c-1.2-0.9-2.7-1.5-4.3-1.5c-3.9,0-7.1,3.2-7.1,7.1c0,2.4,1.2,4.5,3,5.8c-0.4,1-0.7,2.1-0.7,3.3c0,4.6,3.7,8.3,8.3,8.3
		s8.3-3.7,8.3-8.3c0-2.4-1-4.6-2.7-6.1"/>
	
		<circle fill="none" stroke="#E64C3B" stroke-width="3" stroke-linecap="round" stroke-linejoin="round" stroke-miterlimit="10" cx="-76.9" cy="182.6" r="3.9"/>
	
		<circle fill="none" stroke="#E64C3B" stroke-width="3" stroke-linecap="round" stroke-linejoin="round" stroke-miterlimit="10" cx="-89.1" cy="168.3" r="3"/>
	
		<circle fill="none" stroke="#E64C3B" stroke-width="3" stroke-linecap="round" stroke-linejoin="round" stroke-miterlimit="10" cx="-140.5" cy="169.2" r="4.4"/>
</g>
</svg>
