<svg xmlns="http://www.w3.org/2000/svg">
<path d="m419.75 134.53c-0.39252 0-0.58878-0.6133-0.58878-1.8399 0-1.2266 0.19626-1.8399 0.58878-1.8399h8.5741c0.41705 0 0.62558 0.6133 0.62558 1.8399 0 1.2266-0.20852 1.8399-0.62558 1.8399h-8.5741zm19.577 0c-0.39252 0-0.58878-0.6133-0.58878-1.8399 0-1.2266 0.19626-1.8399 0.58878-1.8399h8.5741c0.41705 0 0.62558 0.6133 0.62558 1.8399 0 1.2266-0.20852 1.8399-0.62558 1.8399h-8.5741zm-14.683-4.8942c-0.39252 0-0.58878-0.6133-0.58878-1.8399s0.19626-1.8399 0.58878-1.8399h18.362c0.41705 0 0.62558 0.6133 0.62558 1.8399s-0.20852 1.8399-0.62558 1.8399h-18.362zm-9.7884 9.7884c-0.39252 0-0.58878-0.6133-0.58878-1.8399 0-1.2266 0.19626-1.8399 0.58878-1.8399h8.5741c0.41705 0 0.62558 0.6133 0.62558 1.8399 0 1.2266-0.20852 1.8399-0.62558 1.8399h-8.5741zm0 9.7884c-0.39252 0-0.58878-0.6133-0.58878-1.8399s0.19626-1.8399 0.58878-1.8399h8.5741c0.41705 0 0.62558 0.6133 0.62558 1.8399s-0.20852 1.8399-0.62558 1.8399h-8.5741zm0-4.8942c-0.39252 0-0.58878-0.6133-0.58878-1.8399s0.19626-1.8399 0.58878-1.8399h8.5741c0.41705 0 0.62558 0.6133 0.62558 1.8399s-0.20852 1.8399-0.62558 1.8399h-8.5741zm4.8942 9.7884c-0.39252 0-0.58878-0.6133-0.58878-1.8399 0-1.2266 0.19626-1.8399 0.58878-1.8399h8.5741c0.41705 0 0.62558 0.6133 0.62558 1.8399 0 1.2266-0.20852 1.8399-0.62558 1.8399h-8.5741zm19.577 0c-0.39252 0-0.58878-0.6133-0.58878-1.8399 0-1.2266 0.19626-1.8399 0.58878-1.8399h8.5741c0.41705 0 0.62558 0.6133 0.62558 1.8399 0 1.2266-0.20852 1.8399-0.62558 1.8399h-8.5741zm-14.683 4.8942c-0.39252 0-0.58878-0.6133-0.58878-1.8399 0-1.2266 0.19626-1.8399 0.58878-1.8399h18.362c0.41705 0 0.62558 0.6133 0.62558 1.8399 0 1.2266-0.20852 1.8399-0.62558 1.8399h-18.362zm28.365-24.471c-0.39252 0-0.58878-0.6133-0.58878-1.8399 0-1.2266 0.19626-1.8399 0.58878-1.8399h8.5741c0.41705 0 0.62557 0.6133 0.62557 1.8399 0 1.2266-0.20852 1.8399-0.62557 1.8399h-8.5741zm24.471 0c-0.39252 0-0.58878-0.6133-0.58878-1.8399 0-1.2266 0.19626-1.8399 0.58878-1.8399h8.5741c0.41705 0 0.62558 0.6133 0.62558 1.8399 0 1.2266-0.20852 1.8399-0.62558 1.8399h-8.5741zm-19.577-4.8942c-0.39252 0-0.58878-0.6133-0.58878-1.8399s0.19626-1.8399 0.58878-1.8399h23.257c0.41705 0 0.62558 0.6133 0.62558 1.8399s-0.20852 1.8399-0.62558 1.8399h-23.257zm-4.8942 9.7884c-0.39252 0-0.58878-0.6133-0.58878-1.8399 0-1.2266 0.19626-1.8399 0.58878-1.8399h8.5741c0.41705 0 0.62557 0.6133 0.62557 1.8399 0 1.2266-0.20852 1.8399-0.62557 1.8399h-8.5741zm24.471 0c-0.39252 0-0.58878-0.6133-0.58878-1.8399 0-1.2266 0.19626-1.8399 0.58878-1.8399h8.5741c0.41705 0 0.62558 0.6133 0.62558 1.8399 0 1.2266-0.20852 1.8399-0.62558 1.8399h-8.5741zm-24.471 9.7884c-0.39252 0-0.58878-0.6133-0.58878-1.8399s0.19626-1.8399 0.58878-1.8399h8.5741c0.41705 0 0.62557 0.6133 0.62557 1.8399s-0.20852 1.8399-0.62557 1.8399h-8.5741zm24.471 0c-0.39252 0-0.58878-0.6133-0.58878-1.8399s0.19626-1.8399 0.58878-1.8399h8.5741c0.41705 0 0.62558 0.6133 0.62558 1.8399s-0.20852 1.8399-0.62558 1.8399h-8.5741zm-24.471-4.8942c-0.39252 0-0.58878-0.6133-0.58878-1.8399s0.19626-1.8399 0.58878-1.8399h8.5741c0.41705 0 0.62557 0.6133 0.62557 1.8399s-0.20852 1.8399-0.62557 1.8399h-8.5741zm0 9.7884c-0.39252 0-0.58878-0.6133-0.58878-1.8399 0-1.2266 0.19626-1.8399 0.58878-1.8399h8.5741c0.41705 0 0.62557 0.6133 0.62557 1.8399 0 1.2266-0.20852 1.8399-0.62557 1.8399h-8.5741zm24.471 0c-0.39252 0-0.58878-0.6133-0.58878-1.8399 0-1.2266 0.19626-1.8399 0.58878-1.8399h8.5741c0.41705 0 0.62558 0.6133 0.62558 1.8399 0 1.2266-0.20852 1.8399-0.62558 1.8399h-8.5741zm-19.577 4.8942c-0.39252 0-0.58878-0.6133-0.58878-1.8399 0-1.2266 0.19626-1.8399 0.58878-1.8399h23.257c0.41705 0 0.62558 0.6133 0.62558 1.8399 0 1.2266-0.20852 1.8399-0.62558 1.8399h-23.257zm19.577-14.683c-0.39252 0-0.58878-0.6133-0.58878-1.8399s0.19626-1.8399 0.58878-1.8399h8.5741c0.41705 0 0.62558 0.6133 0.62558 1.8399s-0.20852 1.8399-0.62558 1.8399h-8.5741zm13.683-9.7884c-0.39252 0-0.58878-0.6133-0.58878-1.8399 0-1.2266 0.19626-1.8399 0.58878-1.8399h8.5741c0.41705 0 0.62558 0.6133 0.62558 1.8399 0 1.2266-0.20852 1.8399-0.62558 1.8399h-8.5741zm24.471 0c-0.39252 0-0.58878-0.6133-0.58878-1.8399 0-1.2266 0.19626-1.8399 0.58878-1.8399h8.5741c0.41705 0 0.62557 0.6133 0.62557 1.8399 0 1.2266-0.20852 1.8399-0.62557 1.8399h-8.5741zm-19.577-4.8942c-0.39252 0-0.58878-0.6133-0.58878-1.8399s0.19626-1.8399 0.58878-1.8399h23.257c0.41705 0 0.62558 0.6133 0.62558 1.8399s-0.20852 1.8399-0.62558 1.8399h-23.257zm-4.8942 9.7884c-0.39252 0-0.58878-0.6133-0.58878-1.8399 0-1.2266 0.19626-1.8399 0.58878-1.8399h8.5741c0.41705 0 0.62558 0.6133 0.62558 1.8399 0 1.2266-0.20852 1.8399-0.62558 1.8399h-8.5741zm24.471 0c-0.39252 0-0.58878-0.6133-0.58878-1.8399 0-1.2266 0.19626-1.8399 0.58878-1.8399h8.5741c0.41705 0 0.62557 0.6133 0.62557 1.8399 0 1.2266-0.20852 1.8399-0.62557 1.8399h-8.5741zm-24.471 9.7884c-0.39252 0-0.58878-0.6133-0.58878-1.8399s0.19626-1.8399 0.58878-1.8399h8.5741c0.41705 0 0.62558 0.6133 0.62558 1.8399s-0.20852 1.8399-0.62558 1.8399h-8.5741zm24.471 0c-0.39252 0-0.58878-0.6133-0.58878-1.8399s0.19626-1.8399 0.58878-1.8399h8.5741c0.41705 0 0.62557 0.6133 0.62557 1.8399s-0.20852 1.8399-0.62557 1.8399h-8.5741zm-24.471-4.8942c-0.39252 0-0.58878-0.6133-0.58878-1.8399s0.19626-1.8399 0.58878-1.8399h8.5741c0.41705 0 0.62558 0.6133 0.62558 1.8399s-0.20852 1.8399-0.62558 1.8399h-8.5741zm0 9.7884c-0.39252 0-0.58878-0.6133-0.58878-1.8399 0-1.2266 0.19626-1.8399 0.58878-1.8399h8.5741c0.41705 0 0.62558 0.6133 0.62558 1.8399 0 1.2266-0.20852 1.8399-0.62558 1.8399h-8.5741zm24.471 0c-0.39252 0-0.58878-0.6133-0.58878-1.8399 0-1.2266 0.19626-1.8399 0.58878-1.8399h8.5741c0.41705 0 0.62557 0.6133 0.62557 1.8399 0 1.2266-0.20852 1.8399-0.62557 1.8399h-8.5741zm-19.577 4.8942c-0.39252 0-0.58878-0.6133-0.58878-1.8399 0-1.2266 0.19626-1.8399 0.58878-1.8399h23.257c0.41705 0 0.62558 0.6133 0.62558 1.8399 0 1.2266-0.20852 1.8399-0.62558 1.8399h-23.257zm19.577-14.683c-0.39252 0-0.58878-0.6133-0.58878-1.8399s0.19626-1.8399 0.58878-1.8399h8.5741c0.41705 0 0.62557 0.6133 0.62557 1.8399s-0.20852 1.8399-0.62557 1.8399h-8.5741zm13.683-9.7884c-0.39252 0-0.58878-0.6133-0.58878-1.8399 0-1.2266 0.19626-1.8399 0.58878-1.8399h8.5741c0.41705 0 0.62558 0.6133 0.62558 1.8399 0 1.2266-0.20852 1.8399-0.62558 1.8399h-8.5741zm0 4.8942c-0.39252 0-0.58878-0.6133-0.58878-1.8399 0-1.2266 0.19626-1.8399 0.58878-1.8399h8.5741c0.41705 0 0.62558 0.6133 0.62558 1.8399 0 1.2266-0.20852 1.8399-0.62558 1.8399h-8.5741zm0 9.7884c-0.39252 0-0.58878-0.6133-0.58878-1.8399s0.19626-1.8399 0.58878-1.8399h23.257c0.41705 0 0.62558 0.6133 0.62558 1.8399s-0.20852 1.8399-0.62558 1.8399h-23.257zm0-4.8942c-0.39252 0-0.58878-0.6133-0.58878-1.8399s0.19626-1.8399 0.58878-1.8399h18.362c0.41705 0 0.62558 0.6133 0.62558 1.8399s-0.20852 1.8399-0.62558 1.8399h-18.362zm0 9.7884c-0.39252 0-0.58878-0.6133-0.58878-1.8399 0-1.2266 0.19626-1.8399 0.58878-1.8399h8.5741c0.41705 0 0.62558 0.6133 0.62558 1.8399 0 1.2266-0.20852 1.8399-0.62558 1.8399h-8.5741zm0 4.8942c-0.39252 0-0.58878-0.6133-0.58878-1.8399 0-1.2266 0.19626-1.8399 0.58878-1.8399h8.5741c0.41705 0 0.62558 0.6133 0.62558 1.8399 0 1.2266-0.20852 1.8399-0.62558 1.8399h-8.5741zm0-29.365c-0.39252 0-0.58878-0.6133-0.58878-1.8399s0.19626-1.8399 0.58878-1.8399h8.5741c0.41705 0 0.62558 0.6133 0.62558 1.8399s-0.20852 1.8399-0.62558 1.8399h-8.5741zm19.577 4.8942c-0.39252 0-0.58878-0.6133-0.58878-1.8399 0-1.2266 0.19626-1.8399 0.58878-1.8399h8.5741c0.41705 0 0.62558 0.6133 0.62558 1.8399 0 1.2266-0.20852 1.8399-0.62558 1.8399h-8.5741zm-4.8942 4.8942c-0.39252 0-0.58878-0.6133-0.58878-1.8399 0-1.2266 0.19626-1.8399 0.58878-1.8399h8.5741c0.41705 0 0.62558 0.6133 0.62558 1.8399 0 1.2266-0.20852 1.8399-0.62558 1.8399h-8.5741zm9.7884-9.7884c-0.39252 0-0.58878-0.6133-0.58878-1.8399s0.19626-1.8399 0.58878-1.8399h8.5741c0.41705 0 0.62558 0.6133 0.62558 1.8399s-0.20852 1.8399-0.62558 1.8399h-8.5741zm-9.7884 24.471c-0.39252 0-0.58878-0.6133-0.58878-1.8399 0-1.2266 0.19626-1.8399 0.58878-1.8399h13.468c0.41705 0 0.62558 0.6133 0.62558 1.8399 0 1.2266-0.20852 1.8399-0.62558 1.8399h-13.468zm4.8942 4.8942c-0.39252 0-0.58878-0.6133-0.58878-1.8399 0-1.2266 0.19626-1.8399 0.58878-1.8399h13.468c0.41705 0 0.62558 0.6133 0.62558 1.8399 0 1.2266-0.20852 1.8399-0.62558 1.8399h-13.468zm23.471-29.365c-0.39252 0-0.58878-0.6133-0.58878-1.8399s0.19626-1.8399 0.58878-1.8399h28.151c0.41705 0 0.62558 0.6133 0.62558 1.8399s-0.20852 1.8399-0.62558 1.8399h-28.151zm9.7884 4.8942c-0.39252 0-0.58878-0.6133-0.58878-1.8399 0-1.2266 0.19626-1.8399 0.58878-1.8399h8.5741c0.41705 0 0.62558 0.6133 0.62558 1.8399 0 1.2266-0.20852 1.8399-0.62558 1.8399h-8.5741zm0 4.8942c-0.39252 0-0.58878-0.6133-0.58878-1.8399 0-1.2266 0.19626-1.8399 0.58878-1.8399h8.5741c0.41705 0 0.62558 0.6133 0.62558 1.8399 0 1.2266-0.20852 1.8399-0.62558 1.8399h-8.5741zm0 4.8942c-0.39252 0-0.58878-0.6133-0.58878-1.8399s0.19626-1.8399 0.58878-1.8399h8.5741c0.41705 0 0.62558 0.6133 0.62558 1.8399s-0.20852 1.8399-0.62558 1.8399h-8.5741zm0 4.8942c-0.39252 0-0.58878-0.6133-0.58878-1.8399s0.19626-1.8399 0.58878-1.8399h8.5741c0.41705 0 0.62558 0.6133 0.62558 1.8399s-0.20852 1.8399-0.62558 1.8399h-8.5741zm0 4.8942c-0.39252 0-0.58878-0.6133-0.58878-1.8399 0-1.2266 0.19626-1.8399 0.58878-1.8399h8.5741c0.41705 0 0.62558 0.6133 0.62558 1.8399 0 1.2266-0.20852 1.8399-0.62558 1.8399h-8.5741zm-9.7884 4.8942c-0.39252 0-0.58878-0.6133-0.58878-1.8399 0-1.2266 0.19626-1.8399 0.58878-1.8399h28.151c0.41705 0 0.62558 0.6133 0.62558 1.8399 0 1.2266-0.20852 1.8399-0.62558 1.8399h-28.151zm33.259-24.471c-0.39252 0-0.58878-0.6133-0.58878-1.8399 0-1.2266 0.19626-1.8399 0.58878-1.8399h8.5741c0.41705 0 0.62558 0.6133 0.62558 1.8399 0 1.2266-0.20852 1.8399-0.62558 1.8399h-8.5741zm0-4.8942c-0.39252 0-0.58878-0.6133-0.58878-1.8399s0.19626-1.8399 0.58878-1.8399h33.045c0.41705 0 0.62558 0.6133 0.62558 1.8399s-0.20852 1.8399-0.62558 1.8399h-33.045zm0 9.7884c-0.39252 0-0.58878-0.6133-0.58878-1.8399 0-1.2266 0.19626-1.8399 0.58878-1.8399h8.5741c0.41705 0 0.62558 0.6133 0.62558 1.8399 0 1.2266-0.20852 1.8399-0.62558 1.8399h-8.5741zm0 9.7884c-0.39252 0-0.58878-0.6133-0.58878-1.8399s0.19626-1.8399 0.58878-1.8399h8.5741c0.41705 0 0.62558 0.6133 0.62558 1.8399s-0.20852 1.8399-0.62558 1.8399h-8.5741zm0-4.8942c-0.39252 0-0.58878-0.6133-0.58878-1.8399s0.19626-1.8399 0.58878-1.8399h28.151c0.41705 0 0.62558 0.6133 0.62558 1.8399s-0.20852 1.8399-0.62558 1.8399h-28.151zm0 9.7884c-0.39252 0-0.58878-0.6133-0.58878-1.8399 0-1.2266 0.19626-1.8399 0.58878-1.8399h8.5741c0.41705 0 0.62558 0.6133 0.62558 1.8399 0 1.2266-0.20852 1.8399-0.62558 1.8399h-8.5741zm0 4.8942c-0.39252 0-0.58878-0.6133-0.58878-1.8399 0-1.2266 0.19626-1.8399 0.58878-1.8399h33.045c0.41705 0 0.62558 0.6133 0.62558 1.8399 0 1.2266-0.20852 1.8399-0.62558 1.8399h-33.045zm76.307-24.471c-0.39252 0-0.58878-0.6133-0.58878-1.8399 0-1.2266 0.19626-1.8399 0.58878-1.8399h8.5741c0.41705 0 0.62558 0.6133 0.62558 1.8399 0 1.2266-0.20852 1.8399-0.62558 1.8399h-8.5741zm19.577 0c-0.39252 0-0.58878-0.6133-0.58878-1.8399 0-1.2266 0.19626-1.8399 0.58878-1.8399h8.5741c0.41705 0 0.62558 0.6133 0.62558 1.8399 0 1.2266-0.20852 1.8399-0.62558 1.8399h-8.5741zm-19.577-4.8942c-0.39252 0-0.58878-0.6133-0.58878-1.8399s0.19626-1.8399 0.58878-1.8399h23.257c0.41705 0 0.62558 0.6133 0.62558 1.8399s-0.20852 1.8399-0.62558 1.8399h-23.257zm0 9.7884c-0.39252 0-0.58878-0.6133-0.58878-1.8399 0-1.2266 0.19626-1.8399 0.58878-1.8399h8.5741c0.41705 0 0.62558 0.6133 0.62558 1.8399 0 1.2266-0.20852 1.8399-0.62558 1.8399h-8.5741zm24.471 0c-0.39252 0-0.58878-0.6133-0.58878-1.8399 0-1.2266 0.19626-1.8399 0.58878-1.8399h8.5741c0.41705 0 0.62558 0.6133 0.62558 1.8399 0 1.2266-0.20852 1.8399-0.62558 1.8399h-8.5741zm-24.471 9.7884c-0.39252 0-0.58878-0.6133-0.58878-1.8399s0.19626-1.8399 0.58878-1.8399h8.5741c0.41705 0 0.62558 0.6133 0.62558 1.8399s-0.20852 1.8399-0.62558 1.8399h-8.5741zm24.471 0c-0.39252 0-0.58878-0.6133-0.58878-1.8399s0.19626-1.8399 0.58878-1.8399h8.5741c0.41705 0 0.62558 0.6133 0.62558 1.8399s-0.20852 1.8399-0.62558 1.8399h-8.5741zm-24.471-4.8942c-0.39252 0-0.58878-0.6133-0.58878-1.8399s0.19626-1.8399 0.58878-1.8399h8.5741c0.41705 0 0.62558 0.6133 0.62558 1.8399s-0.20852 1.8399-0.62558 1.8399h-8.5741zm0 9.7884c-0.39252 0-0.58878-0.6133-0.58878-1.8399 0-1.2266 0.19626-1.8399 0.58878-1.8399h8.5741c0.41705 0 0.62558 0.6133 0.62558 1.8399 0 1.2266-0.20852 1.8399-0.62558 1.8399h-8.5741zm19.577 0c-0.39252 0-0.58878-0.6133-0.58878-1.8399 0-1.2266 0.19626-1.8399 0.58878-1.8399h8.5741c0.41705 0 0.62558 0.6133 0.62558 1.8399 0 1.2266-0.20852 1.8399-0.62558 1.8399h-8.5741zm-19.577 4.8942c-0.39252 0-0.58878-0.6133-0.58878-1.8399 0-1.2266 0.19626-1.8399 0.58878-1.8399h23.257c0.41705 0 0.62558 0.6133 0.62558 1.8399 0 1.2266-0.20852 1.8399-0.62558 1.8399h-23.257zm24.471-14.683c-0.39252 0-0.58878-0.6133-0.58878-1.8399s0.19626-1.8399 0.58878-1.8399h8.5741c0.41705 0 0.62558 0.6133 0.62558 1.8399s-0.20852 1.8399-0.62558 1.8399h-8.5741zm13.683-9.7884c-0.39252 0-0.58878-0.6133-0.58878-1.8399 0-1.2266 0.19626-1.8399 0.58878-1.8399h8.5741c0.41705 0 0.62558 0.6133 0.62558 1.8399 0 1.2266-0.20852 1.8399-0.62558 1.8399h-8.5741zm0-4.8942c-0.39252 0-0.58878-0.6133-0.58878-1.8399s0.19626-1.8399 0.58878-1.8399h33.045c0.41705 0 0.62558 0.6133 0.62558 1.8399s-0.20852 1.8399-0.62558 1.8399h-33.045zm0 9.7884c-0.39252 0-0.58878-0.6133-0.58878-1.8399 0-1.2266 0.19626-1.8399 0.58878-1.8399h8.5741c0.41705 0 0.62558 0.6133 0.62558 1.8399 0 1.2266-0.20852 1.8399-0.62558 1.8399h-8.5741zm0 9.7884c-0.39252 0-0.58878-0.6133-0.58878-1.8399s0.19626-1.8399 0.58878-1.8399h8.5741c0.41705 0 0.62558 0.6133 0.62558 1.8399s-0.20852 1.8399-0.62558 1.8399h-8.5741zm0-4.8942c-0.39252 0-0.58878-0.6133-0.58878-1.8399s0.19626-1.8399 0.58878-1.8399h28.151c0.41705 0 0.62558 0.6133 0.62558 1.8399s-0.20852 1.8399-0.62558 1.8399h-28.151zm0 9.7884c-0.39252 0-0.58878-0.6133-0.58878-1.8399 0-1.2266 0.19626-1.8399 0.58878-1.8399h8.5741c0.41705 0 0.62558 0.6133 0.62558 1.8399 0 1.2266-0.20852 1.8399-0.62558 1.8399h-8.5741zm0 4.8942c-0.39252 0-0.58878-0.6133-0.58878-1.8399 0-1.2266 0.19626-1.8399 0.58878-1.8399h33.045c0.41705 0 0.62558 0.6133 0.62558 1.8399 0 1.2266-0.20852 1.8399-0.62558 1.8399h-33.045zm43.048-24.471c-0.39252 0-0.58878-0.6133-0.58878-1.8399 0-1.2266 0.19626-1.8399 0.58878-1.8399h8.5741c0.41705 0 0.62558 0.6133 0.62558 1.8399 0 1.2266-0.20852 1.8399-0.62558 1.8399h-8.5741zm19.577 0c-0.39252 0-0.58878-0.6133-0.58878-1.8399 0-1.2266 0.19626-1.8399 0.58878-1.8399h8.5741c0.41705 0 0.62557 0.6133 0.62557 1.8399 0 1.2266-0.20852 1.8399-0.62557 1.8399h-8.5741zm-14.683-4.8942c-0.39252 0-0.58878-0.6133-0.58878-1.8399s0.19626-1.8399 0.58878-1.8399h18.362c0.41705 0 0.62558 0.6133 0.62558 1.8399s-0.20852 1.8399-0.62558 1.8399h-18.362zm-9.7884 9.7884c-0.39252 0-0.58878-0.6133-0.58878-1.8399 0-1.2266 0.19626-1.8399 0.58878-1.8399h8.5741c0.41705 0 0.62558 0.6133 0.62558 1.8399 0 1.2266-0.20852 1.8399-0.62558 1.8399h-8.5741zm0 9.7884c-0.39252 0-0.58878-0.6133-0.58878-1.8399s0.19626-1.8399 0.58878-1.8399h8.5741c0.41705 0 0.62558 0.6133 0.62558 1.8399s-0.20852 1.8399-0.62558 1.8399h-8.5741zm0-4.8942c-0.39252 0-0.58878-0.6133-0.58878-1.8399s0.19626-1.8399 0.58878-1.8399h8.5741c0.41705 0 0.62558 0.6133 0.62558 1.8399s-0.20852 1.8399-0.62558 1.8399h-8.5741zm4.8942 9.7884c-0.39252 0-0.58878-0.6133-0.58878-1.8399 0-1.2266 0.19626-1.8399 0.58878-1.8399h8.5741c0.41705 0 0.62558 0.6133 0.62558 1.8399 0 1.2266-0.20852 1.8399-0.62558 1.8399h-8.5741zm19.577 0c-0.39252 0-0.58878-0.6133-0.58878-1.8399 0-1.2266 0.19626-1.8399 0.58878-1.8399h8.5741c0.41705 0 0.62557 0.6133 0.62557 1.8399 0 1.2266-0.20852 1.8399-0.62557 1.8399h-8.5741zm-14.683 4.8942c-0.39252 0-0.58878-0.6133-0.58878-1.8399 0-1.2266 0.19626-1.8399 0.58878-1.8399h18.362c0.41705 0 0.62558 0.6133 0.62558 1.8399 0 1.2266-0.20852 1.8399-0.62558 1.8399h-18.362zm28.365-24.471c-0.39252 0-0.58878-0.6133-0.58878-1.8399 0-1.2266 0.19626-1.8399 0.58878-1.8399h8.5741c0.41705 0 0.62558 0.6133 0.62558 1.8399 0 1.2266-0.20852 1.8399-0.62558 1.8399h-8.5741zm24.471 0c-0.39252 0-0.58878-0.6133-0.58878-1.8399 0-1.2266 0.19626-1.8399 0.58878-1.8399h8.5741c0.41705 0 0.62558 0.6133 0.62558 1.8399 0 1.2266-0.20852 1.8399-0.62558 1.8399h-8.5741zm-19.577-4.8942c-0.39252 0-0.58878-0.6133-0.58878-1.8399s0.19626-1.8399 0.58878-1.8399h23.257c0.41705 0 0.62558 0.6133 0.62558 1.8399s-0.20852 1.8399-0.62558 1.8399h-23.257zm-4.8942 9.7884c-0.39252 0-0.58878-0.6133-0.58878-1.8399 0-1.2266 0.19626-1.8399 0.58878-1.8399h8.5741c0.41705 0 0.62558 0.6133 0.62558 1.8399 0 1.2266-0.20852 1.8399-0.62558 1.8399h-8.5741zm24.471 0c-0.39252 0-0.58878-0.6133-0.58878-1.8399 0-1.2266 0.19626-1.8399 0.58878-1.8399h8.5741c0.41705 0 0.62558 0.6133 0.62558 1.8399 0 1.2266-0.20852 1.8399-0.62558 1.8399h-8.5741zm-24.471 9.7884c-0.39252 0-0.58878-0.6133-0.58878-1.8399s0.19626-1.8399 0.58878-1.8399h8.5741c0.41705 0 0.62558 0.6133 0.62558 1.8399s-0.20852 1.8399-0.62558 1.8399h-8.5741zm24.471 0c-0.39252 0-0.58878-0.6133-0.58878-1.8399s0.19626-1.8399 0.58878-1.8399h8.5741c0.41705 0 0.62558 0.6133 0.62558 1.8399s-0.20852 1.8399-0.62558 1.8399h-8.5741zm-24.471-4.8942c-0.39252 0-0.58878-0.6133-0.58878-1.8399s0.19626-1.8399 0.58878-1.8399h8.5741c0.41705 0 0.62558 0.6133 0.62558 1.8399s-0.20852 1.8399-0.62558 1.8399h-8.5741zm0 9.7884c-0.39252 0-0.58878-0.6133-0.58878-1.8399 0-1.2266 0.19626-1.8399 0.58878-1.8399h8.5741c0.41705 0 0.62558 0.6133 0.62558 1.8399 0 1.2266-0.20852 1.8399-0.62558 1.8399h-8.5741zm24.471 0c-0.39252 0-0.58878-0.6133-0.58878-1.8399 0-1.2266 0.19626-1.8399 0.58878-1.8399h8.5741c0.41705 0 0.62558 0.6133 0.62558 1.8399 0 1.2266-0.20852 1.8399-0.62558 1.8399h-8.5741zm-19.577 4.8942c-0.39252 0-0.58878-0.6133-0.58878-1.8399 0-1.2266 0.19626-1.8399 0.58878-1.8399h23.257c0.41705 0 0.62558 0.6133 0.62558 1.8399 0 1.2266-0.20852 1.8399-0.62558 1.8399h-23.257zm19.577-14.683c-0.39252 0-0.58878-0.6133-0.58878-1.8399s0.19626-1.8399 0.58878-1.8399h8.5741c0.41705 0 0.62558 0.6133 0.62558 1.8399s-0.20852 1.8399-0.62558 1.8399h-8.5741zm13.683-9.7884c-0.39252 0-0.58878-0.6133-0.58878-1.8399 0-1.2266 0.19626-1.8399 0.58878-1.8399h8.5741c0.41705 0 0.62558 0.6133 0.62558 1.8399 0 1.2266-0.20852 1.8399-0.62558 1.8399h-8.5741zm24.471 0c-0.39252 0-0.58878-0.6133-0.58878-1.8399 0-1.2266 0.19626-1.8399 0.58878-1.8399h8.5741c0.41705 0 0.62558 0.6133 0.62558 1.8399 0 1.2266-0.20852 1.8399-0.62558 1.8399h-8.5741zm-24.471-4.8942c-0.39252 0-0.58878-0.6133-0.58878-1.8399s0.19626-1.8399 0.58878-1.8399h28.151c0.41705 0 0.62558 0.6133 0.62558 1.8399s-0.20852 1.8399-0.62558 1.8399h-28.151zm0 9.7884c-0.39252 0-0.58878-0.6133-0.58878-1.8399 0-1.2266 0.19626-1.8399 0.58878-1.8399h8.5741c0.41705 0 0.62558 0.6133 0.62558 1.8399 0 1.2266-0.20852 1.8399-0.62558 1.8399h-8.5741zm24.471 0c-0.39252 0-0.58878-0.6133-0.58878-1.8399 0-1.2266 0.19626-1.8399 0.58878-1.8399h8.5741c0.41705 0 0.62558 0.6133 0.62558 1.8399 0 1.2266-0.20852 1.8399-0.62558 1.8399h-8.5741zm-24.471 9.7884c-0.39252 0-0.58878-0.6133-0.58878-1.8399s0.19626-1.8399 0.58878-1.8399h23.257c0.41705 0 0.62558 0.6133 0.62558 1.8399s-0.20852 1.8399-0.62558 1.8399h-23.257zm0-4.8942c-0.39252 0-0.58878-0.6133-0.58878-1.8399s0.19626-1.8399 0.58878-1.8399h8.5741c0.41705 0 0.62558 0.6133 0.62558 1.8399s-0.20852 1.8399-0.62558 1.8399h-8.5741zm0 9.7884c-0.39252 0-0.58878-0.6133-0.58878-1.8399 0-1.2266 0.19626-1.8399 0.58878-1.8399h8.5741c0.41705 0 0.62558 0.6133 0.62558 1.8399 0 1.2266-0.20852 1.8399-0.62558 1.8399h-8.5741zm14.683 0c-0.39252 0-0.58878-0.6133-0.58878-1.8399 0-1.2266 0.19626-1.8399 0.58878-1.8399h13.468c0.41705 0 0.62558 0.6133 0.62558 1.8399 0 1.2266-0.20852 1.8399-0.62558 1.8399h-13.468zm-14.683 4.8942c-0.39252 0-0.58878-0.6133-0.58878-1.8399 0-1.2266 0.19626-1.8399 0.58878-1.8399h8.5741c0.41705 0 0.62558 0.6133 0.62558 1.8399 0 1.2266-0.20852 1.8399-0.62558 1.8399h-8.5741zm19.577-14.683c-0.39252 0-0.58878-0.6133-0.58878-1.8399s0.19626-1.8399 0.58878-1.8399h13.468c0.41705 0 0.62558 0.6133 0.62558 1.8399s-0.20852 1.8399-0.62558 1.8399h-13.468zm0 14.683c-0.39252 0-0.58878-0.6133-0.58878-1.8399 0-1.2266 0.19626-1.8399 0.58878-1.8399h13.468c0.41705 0 0.62558 0.6133 0.62558 1.8399 0 1.2266-0.20852 1.8399-0.62558 1.8399h-13.468zm23.471-24.471c-0.39252 0-0.58878-0.6133-0.58878-1.8399 0-1.2266 0.19626-1.8399 0.58878-1.8399h8.5741c0.41705 0 0.62558 0.6133 0.62558 1.8399 0 1.2266-0.20852 1.8399-0.62558 1.8399h-8.5741zm14.683 0c-0.39252 0-0.58878-0.6133-0.58878-1.8399 0-1.2266 0.19626-1.8399 0.58878-1.8399h8.5741c0.41705 0 0.62558 0.6133 0.62558 1.8399 0 1.2266-0.20852 1.8399-0.62558 1.8399h-8.5741zm-9.7884-4.8942c-0.39252 0-0.58878-0.6133-0.58878-1.8399s0.19626-1.8399 0.58878-1.8399h13.468c0.41705 0 0.62558 0.6133 0.62558 1.8399s-0.20852 1.8399-0.62558 1.8399h-13.468zm-9.7884 9.7884c-0.39252 0-0.58878-0.6133-0.58878-1.8399 0-1.2266 0.19626-1.8399 0.58878-1.8399h8.5741c0.41705 0 0.62558 0.6133 0.62558 1.8399 0 1.2266-0.20852 1.8399-0.62558 1.8399h-8.5741zm24.471 0c-0.39252 0-0.58878-0.6133-0.58878-1.8399 0-1.2266 0.19626-1.8399 0.58878-1.8399h8.5741c0.41705 0 0.62558 0.6133 0.62558 1.8399 0 1.2266-0.20852 1.8399-0.62558 1.8399h-8.5741zm-24.471 4.8942c-0.39252 0-0.58878-0.6133-0.58878-1.8399s0.19626-1.8399 0.58878-1.8399h8.5741c0.41705 0 0.62558 0.6133 0.62558 1.8399s-0.20852 1.8399-0.62558 1.8399h-8.5741zm24.471 0c-0.39252 0-0.58878-0.6133-0.58878-1.8399s0.19626-1.8399 0.58878-1.8399h8.5741c0.41705 0 0.62558 0.6133 0.62558 1.8399s-0.20852 1.8399-0.62558 1.8399h-8.5741zm-24.471 4.8942c-0.39252 0-0.58878-0.6133-0.58878-1.8399s0.19626-1.8399 0.58878-1.8399h33.045c0.41705 0 0.62558 0.6133 0.62558 1.8399s-0.20852 1.8399-0.62558 1.8399h-33.045zm0 4.8942c-0.39252 0-0.58878-0.6133-0.58878-1.8399 0-1.2266 0.19626-1.8399 0.58878-1.8399h8.5741c0.41705 0 0.62558 0.6133 0.62558 1.8399 0 1.2266-0.20852 1.8399-0.62558 1.8399h-8.5741zm24.471 0c-0.39252 0-0.58878-0.6133-0.58878-1.8399 0-1.2266 0.19626-1.8399 0.58878-1.8399h8.5741c0.41705 0 0.62558 0.6133 0.62558 1.8399 0 1.2266-0.20852 1.8399-0.62558 1.8399h-8.5741zm-24.471 4.8942c-0.39252 0-0.58878-0.6133-0.58878-1.8399 0-1.2266 0.19626-1.8399 0.58878-1.8399h8.5741c0.41705 0 0.62558 0.6133 0.62558 1.8399 0 1.2266-0.20852 1.8399-0.62558 1.8399h-8.5741zm24.471 0c-0.39252 0-0.58878-0.6133-0.58878-1.8399 0-1.2266 0.19626-1.8399 0.58878-1.8399h8.5741c0.41705 0 0.62558 0.6133 0.62558 1.8399 0 1.2266-0.20852 1.8399-0.62558 1.8399h-8.5741zm28.365-24.471c-0.39252 0-0.58878-0.6133-0.58878-1.8399 0-1.2266 0.19626-1.8399 0.58878-1.8399h8.5741c0.41705 0 0.62558 0.6133 0.62558 1.8399 0 1.2266-0.20852 1.8399-0.62558 1.8399h-8.5741zm-9.7884-4.8942c-0.39252 0-0.58878-0.6133-0.58878-1.8399s0.19626-1.8399 0.58878-1.8399h28.151c0.41705 0 0.62558 0.6133 0.62558 1.8399s-0.20852 1.8399-0.62558 1.8399h-28.151zm9.7884 9.7884c-0.39252 0-0.58878-0.6133-0.58878-1.8399 0-1.2266 0.19626-1.8399 0.58878-1.8399h8.5741c0.41705 0 0.62558 0.6133 0.62558 1.8399 0 1.2266-0.20852 1.8399-0.62558 1.8399h-8.5741zm0 14.683c-0.39252 0-0.58878-0.6133-0.58878-1.8399 0-1.2266 0.19626-1.8399 0.58878-1.8399h8.5741c0.41705 0 0.62558 0.6133 0.62558 1.8399 0 1.2266-0.20852 1.8399-0.62558 1.8399h-8.5741zm0 4.8942c-0.39252 0-0.58878-0.6133-0.58878-1.8399 0-1.2266 0.19626-1.8399 0.58878-1.8399h8.5741c0.41705 0 0.62558 0.6133 0.62558 1.8399 0 1.2266-0.20852 1.8399-0.62558 1.8399h-8.5741zm0-14.683c-0.39252 0-0.58878-0.6133-0.58878-1.8399s0.19626-1.8399 0.58878-1.8399h8.5741c0.41705 0 0.62558 0.6133 0.62558 1.8399s-0.20852 1.8399-0.62558 1.8399h-8.5741zm0 4.8942c-0.39252 0-0.58878-0.6133-0.58878-1.8399s0.19626-1.8399 0.58878-1.8399h8.5741c0.41705 0 0.62558 0.6133 0.62558 1.8399s-0.20852 1.8399-0.62558 1.8399h-8.5741zm23.471-14.683c-0.39252 0-0.58878-0.6133-0.58878-1.8399 0-1.2266 0.19626-1.8399 0.58878-1.8399h8.5741c0.41705 0 0.62558 0.6133 0.62558 1.8399 0 1.2266-0.20852 1.8399-0.62558 1.8399h-8.5741zm24.471 0c-0.39252 0-0.58878-0.6133-0.58878-1.8399 0-1.2266 0.19626-1.8399 0.58878-1.8399h8.5741c0.41705 0 0.62558 0.6133 0.62558 1.8399 0 1.2266-0.20852 1.8399-0.62558 1.8399h-8.5741zm-19.577-4.8942c-0.39252 0-0.58878-0.6133-0.58878-1.8399s0.19626-1.8399 0.58878-1.8399h23.257c0.41705 0 0.62558 0.6133 0.62558 1.8399s-0.20852 1.8399-0.62558 1.8399h-23.257zm-4.8942 9.7884c-0.39252 0-0.58878-0.6133-0.58878-1.8399 0-1.2266 0.19626-1.8399 0.58878-1.8399h8.5741c0.41705 0 0.62558 0.6133 0.62558 1.8399 0 1.2266-0.20852 1.8399-0.62558 1.8399h-8.5741zm24.471 0c-0.39252 0-0.58878-0.6133-0.58878-1.8399 0-1.2266 0.19626-1.8399 0.58878-1.8399h8.5741c0.41705 0 0.62558 0.6133 0.62558 1.8399 0 1.2266-0.20852 1.8399-0.62558 1.8399h-8.5741zm-24.471 9.7884c-0.39252 0-0.58878-0.6133-0.58878-1.8399s0.19626-1.8399 0.58878-1.8399h8.5741c0.41705 0 0.62558 0.6133 0.62558 1.8399s-0.20852 1.8399-0.62558 1.8399h-8.5741zm24.471 0c-0.39252 0-0.58878-0.6133-0.58878-1.8399s0.19626-1.8399 0.58878-1.8399h8.5741c0.41705 0 0.62558 0.6133 0.62558 1.8399s-0.20852 1.8399-0.62558 1.8399h-8.5741zm-24.471-4.8942c-0.39252 0-0.58878-0.6133-0.58878-1.8399s0.19626-1.8399 0.58878-1.8399h8.5741c0.41705 0 0.62558 0.6133 0.62558 1.8399s-0.20852 1.8399-0.62558 1.8399h-8.5741zm0 9.7884c-0.39252 0-0.58878-0.6133-0.58878-1.8399 0-1.2266 0.19626-1.8399 0.58878-1.8399h8.5741c0.41705 0 0.62558 0.6133 0.62558 1.8399 0 1.2266-0.20852 1.8399-0.62558 1.8399h-8.5741zm24.471 0c-0.39252 0-0.58878-0.6133-0.58878-1.8399 0-1.2266 0.19626-1.8399 0.58878-1.8399h8.5741c0.41705 0 0.62558 0.6133 0.62558 1.8399 0 1.2266-0.20852 1.8399-0.62558 1.8399h-8.5741zm-19.577 4.8942c-0.39252 0-0.58878-0.6133-0.58878-1.8399 0-1.2266 0.19626-1.8399 0.58878-1.8399h23.257c0.41705 0 0.62558 0.6133 0.62558 1.8399 0 1.2266-0.20852 1.8399-0.62558 1.8399h-23.257zm19.577-14.683c-0.39252 0-0.58878-0.6133-0.58878-1.8399s0.19626-1.8399 0.58878-1.8399h8.5741c0.41705 0 0.62558 0.6133 0.62558 1.8399s-0.20852 1.8399-0.62558 1.8399h-8.5741zm13.683-9.7884c-0.39252 0-0.58878-0.6133-0.58878-1.8399 0-1.2266 0.19626-1.8399 0.58878-1.8399h8.5741c0.41705 0 0.62558 0.6133 0.62558 1.8399 0 1.2266-0.20852 1.8399-0.62558 1.8399h-8.5741zm24.471 0c-0.39252 0-0.58877-0.6133-0.58877-1.8399 0-1.2266 0.19625-1.8399 0.58877-1.8399h8.5741c0.41705 0 0.62558 0.6133 0.62558 1.8399 0 1.2266-0.20853 1.8399-0.62558 1.8399h-8.5741zm-24.471-4.8942c-0.39252 0-0.58878-0.6133-0.58878-1.8399s0.19626-1.8399 0.58878-1.8399h28.151c0.41705 0 0.62557 0.6133 0.62557 1.8399s-0.20852 1.8399-0.62557 1.8399h-28.151zm0 9.7884c-0.39252 0-0.58878-0.6133-0.58878-1.8399 0-1.2266 0.19626-1.8399 0.58878-1.8399h8.5741c0.41705 0 0.62558 0.6133 0.62558 1.8399 0 1.2266-0.20852 1.8399-0.62558 1.8399h-8.5741zm24.471 0c-0.39252 0-0.58877-0.6133-0.58877-1.8399 0-1.2266 0.19625-1.8399 0.58877-1.8399h8.5741c0.41705 0 0.62558 0.6133 0.62558 1.8399 0 1.2266-0.20853 1.8399-0.62558 1.8399h-8.5741zm-24.471 9.7884c-0.39252 0-0.58878-0.6133-0.58878-1.8399s0.19626-1.8399 0.58878-1.8399h23.257c0.41706 0 0.62558 0.6133 0.62558 1.8399s-0.20852 1.8399-0.62558 1.8399h-23.257zm0-4.8942c-0.39252 0-0.58878-0.6133-0.58878-1.8399s0.19626-1.8399 0.58878-1.8399h8.5741c0.41705 0 0.62558 0.6133 0.62558 1.8399s-0.20852 1.8399-0.62558 1.8399h-8.5741zm0 9.7884c-0.39252 0-0.58878-0.6133-0.58878-1.8399 0-1.2266 0.19626-1.8399 0.58878-1.8399h8.5741c0.41705 0 0.62558 0.6133 0.62558 1.8399 0 1.2266-0.20852 1.8399-0.62558 1.8399h-8.5741zm14.683 0c-0.39252 0-0.58878-0.6133-0.58878-1.8399 0-1.2266 0.19626-1.8399 0.58878-1.8399h13.468c0.41705 0 0.62557 0.6133 0.62557 1.8399 0 1.2266-0.20852 1.8399-0.62557 1.8399h-13.468zm-14.683 4.8942c-0.39252 0-0.58878-0.6133-0.58878-1.8399 0-1.2266 0.19626-1.8399 0.58878-1.8399h8.5741c0.41705 0 0.62558 0.6133 0.62558 1.8399 0 1.2266-0.20852 1.8399-0.62558 1.8399h-8.5741zm19.577-14.683c-0.39252 0-0.58878-0.6133-0.58878-1.8399s0.19626-1.8399 0.58878-1.8399h13.468c0.41705 0 0.62558 0.6133 0.62558 1.8399s-0.20853 1.8399-0.62558 1.8399h-13.468zm0 14.683c-0.39252 0-0.58878-0.6133-0.58878-1.8399 0-1.2266 0.19626-1.8399 0.58878-1.8399h13.468c0.41705 0 0.62558 0.6133 0.62558 1.8399 0 1.2266-0.20853 1.8399-0.62558 1.8399h-13.468zm-612.74 21h650v4h-650v-4zm0-76h650v4h-650v-4z"/>
</svg>
