<?xml version="1.0" encoding="utf-8"?>
<!-- Generator: Adobe Illustrator 20.1.0, SVG Export Plug-In . SVG Version: 6.00 Build 0)  -->
<svg version="1.1" id="Layer_1" xmlns="http://www.w3.org/2000/svg" xmlns:xlink="http://www.w3.org/1999/xlink" x="0px" y="0px"
	 viewBox="0 0 650 80" style="enable-background:new 0 0 650 80;" xml:space="preserve">
<style type="text/css">
	.st0{clip-path:url(#SVGID_2_);}
	.st1{clip-path:url(#SVGID_4_);fill:#D12927;}
	.st2{clip-path:url(#SVGID_6_);fill:#D12927;}
</style>
<g>
	<defs>
		<path id="SVGID_1_" d="M-184.3-704.6h650v4h-650V-704.6z M-184.3-628.6h650v4h-650V-628.6z M428.5-649.6c-0.4,0-0.6-0.6-0.6-1.8
			s0.2-1.8,0.6-1.8h13.5c0.4,0,0.6,0.6,0.6,1.8s-0.2,1.8-0.6,1.8H428.5z M428.5-664.3c-0.4,0-0.6-0.6-0.6-1.8s0.2-1.8,0.6-1.8h13.5
			c0.4,0,0.6,0.6,0.6,1.8s-0.2,1.8-0.6,1.8H428.5z M408.9-649.6c-0.4,0-0.6-0.6-0.6-1.8s0.2-1.8,0.6-1.8h8.6c0.4,0,0.6,0.6,0.6,1.8
			s-0.2,1.8-0.6,1.8H408.9z M423.6-654.5c-0.4,0-0.6-0.6-0.6-1.8s0.2-1.8,0.6-1.8H437c0.4,0,0.6,0.6,0.6,1.8s-0.2,1.8-0.6,1.8H423.6
			z M408.9-654.5c-0.4,0-0.6-0.6-0.6-1.8s0.2-1.8,0.6-1.8h8.6c0.4,0,0.6,0.6,0.6,1.8s-0.2,1.8-0.6,1.8H408.9z M408.9-664.3
			c-0.4,0-0.6-0.6-0.6-1.8s0.2-1.8,0.6-1.8h8.6c0.4,0,0.6,0.6,0.6,1.8s-0.2,1.8-0.6,1.8H408.9z M408.9-659.4c-0.4,0-0.6-0.6-0.6-1.8
			s0.2-1.8,0.6-1.8h23.3c0.4,0,0.6,0.6,0.6,1.8s-0.2,1.8-0.6,1.8H408.9z M433.4-669.2c-0.4,0-0.6-0.6-0.6-1.8s0.2-1.8,0.6-1.8h8.6
			c0.4,0,0.6,0.6,0.6,1.8s-0.2,1.8-0.6,1.8H433.4z M408.9-669.2c-0.4,0-0.6-0.6-0.6-1.8s0.2-1.8,0.6-1.8h8.6c0.4,0,0.6,0.6,0.6,1.8
			s-0.2,1.8-0.6,1.8H408.9z M408.9-678.9c-0.4,0-0.6-0.6-0.6-1.8s0.2-1.8,0.6-1.8H437c0.4,0,0.6,0.6,0.6,1.8s-0.2,1.8-0.6,1.8H408.9
			z M433.4-674.1c-0.4,0-0.6-0.6-0.6-1.8s0.2-1.8,0.6-1.8h8.6c0.4,0,0.6,0.6,0.6,1.8s-0.2,1.8-0.6,1.8H433.4z M408.9-674.1
			c-0.4,0-0.6-0.6-0.6-1.8s0.2-1.8,0.6-1.8h8.6c0.4,0,0.6,0.6,0.6,1.8s-0.2,1.8-0.6,1.8H408.9z M395.2-664.3c-0.4,0-0.6-0.6-0.6-1.8
			s0.2-1.8,0.6-1.8h8.6c0.4,0,0.6,0.6,0.6,1.8s-0.2,1.8-0.6,1.8H395.2z M375.6-649.6c-0.4,0-0.6-0.6-0.6-1.8s0.2-1.8,0.6-1.8h23.3
			c0.4,0,0.6,0.6,0.6,1.8s-0.2,1.8-0.6,1.8H375.6z M395.2-654.5c-0.4,0-0.6-0.6-0.6-1.8s0.2-1.8,0.6-1.8h8.6c0.4,0,0.6,0.6,0.6,1.8
			s-0.2,1.8-0.6,1.8H395.2z M370.7-654.5c-0.4,0-0.6-0.6-0.6-1.8s0.2-1.8,0.6-1.8h8.6c0.4,0,0.6,0.6,0.6,1.8s-0.2,1.8-0.6,1.8H370.7
			z M370.7-664.3c-0.4,0-0.6-0.6-0.6-1.8s0.2-1.8,0.6-1.8h8.6c0.4,0,0.6,0.6,0.6,1.8s-0.2,1.8-0.6,1.8H370.7z M395.2-659.4
			c-0.4,0-0.6-0.6-0.6-1.8s0.2-1.8,0.6-1.8h8.6c0.4,0,0.6,0.6,0.6,1.8s-0.2,1.8-0.6,1.8H395.2z M370.7-659.4c-0.4,0-0.6-0.6-0.6-1.8
			s0.2-1.8,0.6-1.8h8.6c0.4,0,0.6,0.6,0.6,1.8s-0.2,1.8-0.6,1.8H370.7z M395.2-669.2c-0.4,0-0.6-0.6-0.6-1.8s0.2-1.8,0.6-1.8h8.6
			c0.4,0,0.6,0.6,0.6,1.8s-0.2,1.8-0.6,1.8H395.2z M370.7-669.2c-0.4,0-0.6-0.6-0.6-1.8s0.2-1.8,0.6-1.8h8.6c0.4,0,0.6,0.6,0.6,1.8
			s-0.2,1.8-0.6,1.8H370.7z M375.6-678.9c-0.4,0-0.6-0.6-0.6-1.8s0.2-1.8,0.6-1.8h23.3c0.4,0,0.6,0.6,0.6,1.8s-0.2,1.8-0.6,1.8
			H375.6z M395.2-674.1c-0.4,0-0.6-0.6-0.6-1.8s0.2-1.8,0.6-1.8h8.6c0.4,0,0.6,0.6,0.6,1.8s-0.2,1.8-0.6,1.8H395.2z M370.7-674.1
			c-0.4,0-0.6-0.6-0.6-1.8s0.2-1.8,0.6-1.8h8.6c0.4,0,0.6,0.6,0.6,1.8s-0.2,1.8-0.6,1.8H370.7z M347.3-659.4c-0.4,0-0.6-0.6-0.6-1.8
			s0.2-1.8,0.6-1.8h8.6c0.4,0,0.6,0.6,0.6,1.8s-0.2,1.8-0.6,1.8H347.3z M347.3-664.3c-0.4,0-0.6-0.6-0.6-1.8s0.2-1.8,0.6-1.8h8.6
			c0.4,0,0.6,0.6,0.6,1.8s-0.2,1.8-0.6,1.8H347.3z M347.3-649.6c-0.4,0-0.6-0.6-0.6-1.8s0.2-1.8,0.6-1.8h8.6c0.4,0,0.6,0.6,0.6,1.8
			s-0.2,1.8-0.6,1.8H347.3z M347.3-654.5c-0.4,0-0.6-0.6-0.6-1.8s0.2-1.8,0.6-1.8h8.6c0.4,0,0.6,0.6,0.6,1.8s-0.2,1.8-0.6,1.8H347.3
			z M347.3-669.2c-0.4,0-0.6-0.6-0.6-1.8s0.2-1.8,0.6-1.8h8.6c0.4,0,0.6,0.6,0.6,1.8s-0.2,1.8-0.6,1.8H347.3z M337.5-678.9
			c-0.4,0-0.6-0.6-0.6-1.8s0.2-1.8,0.6-1.8h28.2c0.4,0,0.6,0.6,0.6,1.8s-0.2,1.8-0.6,1.8H337.5z M347.3-674.1
			c-0.4,0-0.6-0.6-0.6-1.8s0.2-1.8,0.6-1.8h8.6c0.4,0,0.6,0.6,0.6,1.8s-0.2,1.8-0.6,1.8H347.3z M318.9-649.6c-0.4,0-0.6-0.6-0.6-1.8
			s0.2-1.8,0.6-1.8h8.6c0.4,0,0.6,0.6,0.6,1.8s-0.2,1.8-0.6,1.8H318.9z M294.4-649.6c-0.4,0-0.6-0.6-0.6-1.8s0.2-1.8,0.6-1.8h8.6
			c0.4,0,0.6,0.6,0.6,1.8s-0.2,1.8-0.6,1.8H294.4z M318.9-654.5c-0.4,0-0.6-0.6-0.6-1.8s0.2-1.8,0.6-1.8h8.6c0.4,0,0.6,0.6,0.6,1.8
			s-0.2,1.8-0.6,1.8H318.9z M294.4-654.5c-0.4,0-0.6-0.6-0.6-1.8s0.2-1.8,0.6-1.8h8.6c0.4,0,0.6,0.6,0.6,1.8s-0.2,1.8-0.6,1.8H294.4
			z M294.4-659.4c-0.4,0-0.6-0.6-0.6-1.8s0.2-1.8,0.6-1.8h33c0.4,0,0.6,0.6,0.6,1.8s-0.2,1.8-0.6,1.8H294.4z M318.9-664.3
			c-0.4,0-0.6-0.6-0.6-1.8s0.2-1.8,0.6-1.8h8.6c0.4,0,0.6,0.6,0.6,1.8s-0.2,1.8-0.6,1.8H318.9z M294.4-664.3c-0.4,0-0.6-0.6-0.6-1.8
			s0.2-1.8,0.6-1.8h8.6c0.4,0,0.6,0.6,0.6,1.8s-0.2,1.8-0.6,1.8H294.4z M318.9-669.2c-0.4,0-0.6-0.6-0.6-1.8s0.2-1.8,0.6-1.8h8.6
			c0.4,0,0.6,0.6,0.6,1.8s-0.2,1.8-0.6,1.8H318.9z M294.4-669.2c-0.4,0-0.6-0.6-0.6-1.8s0.2-1.8,0.6-1.8h8.6c0.4,0,0.6,0.6,0.6,1.8
			s-0.2,1.8-0.6,1.8H294.4z M304.2-678.9c-0.4,0-0.6-0.6-0.6-1.8s0.2-1.8,0.6-1.8h13.5c0.4,0,0.6,0.6,0.6,1.8s-0.2,1.8-0.6,1.8
			H304.2z M314-674.1c-0.4,0-0.6-0.6-0.6-1.8s0.2-1.8,0.6-1.8h8.6c0.4,0,0.6,0.6,0.6,1.8s-0.2,1.8-0.6,1.8H314z M299.3-674.1
			c-0.4,0-0.6-0.6-0.6-1.8s0.2-1.8,0.6-1.8h8.6c0.4,0,0.6,0.6,0.6,1.8s-0.2,1.8-0.6,1.8H299.3z M275.8-649.6c-0.4,0-0.6-0.6-0.6-1.8
			s0.2-1.8,0.6-1.8h13.5c0.4,0,0.6,0.6,0.6,1.8s-0.2,1.8-0.6,1.8H275.8z M275.8-664.3c-0.4,0-0.6-0.6-0.6-1.8s0.2-1.8,0.6-1.8h13.5
			c0.4,0,0.6,0.6,0.6,1.8s-0.2,1.8-0.6,1.8H275.8z M256.3-649.6c-0.4,0-0.6-0.6-0.6-1.8s0.2-1.8,0.6-1.8h8.6c0.4,0,0.6,0.6,0.6,1.8
			s-0.2,1.8-0.6,1.8H256.3z M271-654.5c-0.4,0-0.6-0.6-0.6-1.8s0.2-1.8,0.6-1.8h13.5c0.4,0,0.6,0.6,0.6,1.8s-0.2,1.8-0.6,1.8H271z
			 M256.3-654.5c-0.4,0-0.6-0.6-0.6-1.8s0.2-1.8,0.6-1.8h8.6c0.4,0,0.6,0.6,0.6,1.8s-0.2,1.8-0.6,1.8H256.3z M256.3-664.3
			c-0.4,0-0.6-0.6-0.6-1.8s0.2-1.8,0.6-1.8h8.6c0.4,0,0.6,0.6,0.6,1.8s-0.2,1.8-0.6,1.8H256.3z M256.3-659.4c-0.4,0-0.6-0.6-0.6-1.8
			s0.2-1.8,0.6-1.8h23.3c0.4,0,0.6,0.6,0.6,1.8s-0.2,1.8-0.6,1.8H256.3z M280.7-669.2c-0.4,0-0.6-0.6-0.6-1.8s0.2-1.8,0.6-1.8h8.6
			c0.4,0,0.6,0.6,0.6,1.8s-0.2,1.8-0.6,1.8H280.7z M256.3-669.2c-0.4,0-0.6-0.6-0.6-1.8s0.2-1.8,0.6-1.8h8.6c0.4,0,0.6,0.6,0.6,1.8
			s-0.2,1.8-0.6,1.8H256.3z M256.3-678.9c-0.4,0-0.6-0.6-0.6-1.8s0.2-1.8,0.6-1.8h28.2c0.4,0,0.6,0.6,0.6,1.8s-0.2,1.8-0.6,1.8
			H256.3z M280.7-674.1c-0.4,0-0.6-0.6-0.6-1.8s0.2-1.8,0.6-1.8h8.6c0.4,0,0.6,0.6,0.6,1.8s-0.2,1.8-0.6,1.8H280.7z M256.3-674.1
			c-0.4,0-0.6-0.6-0.6-1.8s0.2-1.8,0.6-1.8h8.6c0.4,0,0.6,0.6,0.6,1.8s-0.2,1.8-0.6,1.8H256.3z M242.6-664.3c-0.4,0-0.6-0.6-0.6-1.8
			s0.2-1.8,0.6-1.8h8.6c0.4,0,0.6,0.6,0.6,1.8s-0.2,1.8-0.6,1.8H242.6z M223-649.6c-0.4,0-0.6-0.6-0.6-1.8s0.2-1.8,0.6-1.8h23.3
			c0.4,0,0.6,0.6,0.6,1.8s-0.2,1.8-0.6,1.8H223z M242.6-654.5c-0.4,0-0.6-0.6-0.6-1.8s0.2-1.8,0.6-1.8h8.6c0.4,0,0.6,0.6,0.6,1.8
			s-0.2,1.8-0.6,1.8H242.6z M218.1-654.5c-0.4,0-0.6-0.6-0.6-1.8s0.2-1.8,0.6-1.8h8.6c0.4,0,0.6,0.6,0.6,1.8s-0.2,1.8-0.6,1.8H218.1
			z M218.1-664.3c-0.4,0-0.6-0.6-0.6-1.8s0.2-1.8,0.6-1.8h8.6c0.4,0,0.6,0.6,0.6,1.8s-0.2,1.8-0.6,1.8H218.1z M242.6-659.4
			c-0.4,0-0.6-0.6-0.6-1.8s0.2-1.8,0.6-1.8h8.6c0.4,0,0.6,0.6,0.6,1.8s-0.2,1.8-0.6,1.8H242.6z M218.1-659.4c-0.4,0-0.6-0.6-0.6-1.8
			s0.2-1.8,0.6-1.8h8.6c0.4,0,0.6,0.6,0.6,1.8s-0.2,1.8-0.6,1.8H218.1z M242.6-669.2c-0.4,0-0.6-0.6-0.6-1.8s0.2-1.8,0.6-1.8h8.6
			c0.4,0,0.6,0.6,0.6,1.8s-0.2,1.8-0.6,1.8H242.6z M218.1-669.2c-0.4,0-0.6-0.6-0.6-1.8s0.2-1.8,0.6-1.8h8.6c0.4,0,0.6,0.6,0.6,1.8
			s-0.2,1.8-0.6,1.8H218.1z M223-678.9c-0.4,0-0.6-0.6-0.6-1.8s0.2-1.8,0.6-1.8h23.3c0.4,0,0.6,0.6,0.6,1.8s-0.2,1.8-0.6,1.8H223z
			 M242.6-674.1c-0.4,0-0.6-0.6-0.6-1.8s0.2-1.8,0.6-1.8h8.6c0.4,0,0.6,0.6,0.6,1.8s-0.2,1.8-0.6,1.8H242.6z M218.1-674.1
			c-0.4,0-0.6-0.6-0.6-1.8s0.2-1.8,0.6-1.8h8.6c0.4,0,0.6,0.6,0.6,1.8s-0.2,1.8-0.6,1.8H218.1z M189.8-649.6c-0.4,0-0.6-0.6-0.6-1.8
			s0.2-1.8,0.6-1.8h18.4c0.4,0,0.6,0.6,0.6,1.8s-0.2,1.8-0.6,1.8H189.8z M204.4-654.5c-0.4,0-0.6-0.6-0.6-1.8s0.2-1.8,0.6-1.8h8.6
			c0.4,0,0.6,0.6,0.6,1.8s-0.2,1.8-0.6,1.8H204.4z M184.9-654.5c-0.4,0-0.6-0.6-0.6-1.8s0.2-1.8,0.6-1.8h8.6c0.4,0,0.6,0.6,0.6,1.8
			s-0.2,1.8-0.6,1.8H184.9z M180-664.3c-0.4,0-0.6-0.6-0.6-1.8s0.2-1.8,0.6-1.8h8.6c0.4,0,0.6,0.6,0.6,1.8s-0.2,1.8-0.6,1.8H180z
			 M180-659.4c-0.4,0-0.6-0.6-0.6-1.8s0.2-1.8,0.6-1.8h8.6c0.4,0,0.6,0.6,0.6,1.8s-0.2,1.8-0.6,1.8H180z M180-669.2
			c-0.4,0-0.6-0.6-0.6-1.8s0.2-1.8,0.6-1.8h8.6c0.4,0,0.6,0.6,0.6,1.8s-0.2,1.8-0.6,1.8H180z M189.8-678.9c-0.4,0-0.6-0.6-0.6-1.8
			s0.2-1.8,0.6-1.8h18.4c0.4,0,0.6,0.6,0.6,1.8s-0.2,1.8-0.6,1.8H189.8z M204.4-674.1c-0.4,0-0.6-0.6-0.6-1.8s0.2-1.8,0.6-1.8h8.6
			c0.4,0,0.6,0.6,0.6,1.8s-0.2,1.8-0.6,1.8H204.4z M184.9-674.1c-0.4,0-0.6-0.6-0.6-1.8s0.2-1.8,0.6-1.8h8.6c0.4,0,0.6,0.6,0.6,1.8
			s-0.2,1.8-0.6,1.8H184.9z M141.8-649.6c-0.4,0-0.6-0.6-0.6-1.8s0.2-1.8,0.6-1.8h33c0.4,0,0.6,0.6,0.6,1.8s-0.2,1.8-0.6,1.8H141.8z
			 M141.8-654.5c-0.4,0-0.6-0.6-0.6-1.8s0.2-1.8,0.6-1.8h8.6c0.4,0,0.6,0.6,0.6,1.8s-0.2,1.8-0.6,1.8H141.8z M141.8-664.3
			c-0.4,0-0.6-0.6-0.6-1.8s0.2-1.8,0.6-1.8H170c0.4,0,0.6,0.6,0.6,1.8s-0.2,1.8-0.6,1.8H141.8z M141.8-659.4c-0.4,0-0.6-0.6-0.6-1.8
			s0.2-1.8,0.6-1.8h8.6c0.4,0,0.6,0.6,0.6,1.8s-0.2,1.8-0.6,1.8H141.8z M141.8-669.2c-0.4,0-0.6-0.6-0.6-1.8s0.2-1.8,0.6-1.8h8.6
			c0.4,0,0.6,0.6,0.6,1.8s-0.2,1.8-0.6,1.8H141.8z M141.8-678.9c-0.4,0-0.6-0.6-0.6-1.8s0.2-1.8,0.6-1.8h33c0.4,0,0.6,0.6,0.6,1.8
			s-0.2,1.8-0.6,1.8H141.8z M141.8-674.1c-0.4,0-0.6-0.6-0.6-1.8s0.2-1.8,0.6-1.8h8.6c0.4,0,0.6,0.6,0.6,1.8s-0.2,1.8-0.6,1.8H141.8
			z M128.1-664.3c-0.4,0-0.6-0.6-0.6-1.8s0.2-1.8,0.6-1.8h8.6c0.4,0,0.6,0.6,0.6,1.8s-0.2,1.8-0.6,1.8H128.1z M103.7-649.6
			c-0.4,0-0.6-0.6-0.6-1.8s0.2-1.8,0.6-1.8h23.3c0.4,0,0.6,0.6,0.6,1.8s-0.2,1.8-0.6,1.8H103.7z M123.2-654.5
			c-0.4,0-0.6-0.6-0.6-1.8s0.2-1.8,0.6-1.8h8.6c0.4,0,0.6,0.6,0.6,1.8s-0.2,1.8-0.6,1.8H123.2z M103.7-654.5c-0.4,0-0.6-0.6-0.6-1.8
			s0.2-1.8,0.6-1.8h8.6c0.4,0,0.6,0.6,0.6,1.8s-0.2,1.8-0.6,1.8H103.7z M103.7-664.3c-0.4,0-0.6-0.6-0.6-1.8s0.2-1.8,0.6-1.8h8.6
			c0.4,0,0.6,0.6,0.6,1.8s-0.2,1.8-0.6,1.8H103.7z M128.1-659.4c-0.4,0-0.6-0.6-0.6-1.8s0.2-1.8,0.6-1.8h8.6c0.4,0,0.6,0.6,0.6,1.8
			s-0.2,1.8-0.6,1.8H128.1z M103.7-659.4c-0.4,0-0.6-0.6-0.6-1.8s0.2-1.8,0.6-1.8h8.6c0.4,0,0.6,0.6,0.6,1.8s-0.2,1.8-0.6,1.8H103.7
			z M128.1-669.2c-0.4,0-0.6-0.6-0.6-1.8s0.2-1.8,0.6-1.8h8.6c0.4,0,0.6,0.6,0.6,1.8s-0.2,1.8-0.6,1.8H128.1z M103.7-669.2
			c-0.4,0-0.6-0.6-0.6-1.8s0.2-1.8,0.6-1.8h8.6c0.4,0,0.6,0.6,0.6,1.8s-0.2,1.8-0.6,1.8H103.7z M103.7-678.9c-0.4,0-0.6-0.6-0.6-1.8
			s0.2-1.8,0.6-1.8h23.3c0.4,0,0.6,0.6,0.6,1.8s-0.2,1.8-0.6,1.8H103.7z M123.2-674.1c-0.4,0-0.6-0.6-0.6-1.8s0.2-1.8,0.6-1.8h8.6
			c0.4,0,0.6,0.6,0.6,1.8s-0.2,1.8-0.6,1.8H123.2z M103.7-674.1c-0.4,0-0.6-0.6-0.6-1.8s0.2-1.8,0.6-1.8h8.6c0.4,0,0.6,0.6,0.6,1.8
			s-0.2,1.8-0.6,1.8H103.7z M27.3-649.6c-0.4,0-0.6-0.6-0.6-1.8s0.2-1.8,0.6-1.8h33c0.4,0,0.6,0.6,0.6,1.8s-0.2,1.8-0.6,1.8H27.3z
			 M27.3-654.5c-0.4,0-0.6-0.6-0.6-1.8s0.2-1.8,0.6-1.8h8.6c0.4,0,0.6,0.6,0.6,1.8s-0.2,1.8-0.6,1.8H27.3z M27.3-664.3
			c-0.4,0-0.6-0.6-0.6-1.8s0.2-1.8,0.6-1.8h28.2c0.4,0,0.6,0.6,0.6,1.8s-0.2,1.8-0.6,1.8H27.3z M27.3-659.4c-0.4,0-0.6-0.6-0.6-1.8
			s0.2-1.8,0.6-1.8h8.6c0.4,0,0.6,0.6,0.6,1.8s-0.2,1.8-0.6,1.8H27.3z M27.3-669.2c-0.4,0-0.6-0.6-0.6-1.8s0.2-1.8,0.6-1.8h8.6
			c0.4,0,0.6,0.6,0.6,1.8s-0.2,1.8-0.6,1.8H27.3z M27.3-678.9c-0.4,0-0.6-0.6-0.6-1.8s0.2-1.8,0.6-1.8h33c0.4,0,0.6,0.6,0.6,1.8
			s-0.2,1.8-0.6,1.8H27.3z M27.3-674.1c-0.4,0-0.6-0.6-0.6-1.8s0.2-1.8,0.6-1.8h8.6c0.4,0,0.6,0.6,0.6,1.8s-0.2,1.8-0.6,1.8H27.3z
			 M-5.9-649.6c-0.4,0-0.6-0.6-0.6-1.8s0.2-1.8,0.6-1.8h28.2c0.4,0,0.6,0.6,0.6,1.8s-0.2,1.8-0.6,1.8H-5.9z M3.9-654.5
			c-0.4,0-0.6-0.6-0.6-1.8s0.2-1.8,0.6-1.8h8.6c0.4,0,0.6,0.6,0.6,1.8s-0.2,1.8-0.6,1.8H3.9z M3.9-659.4c-0.4,0-0.6-0.6-0.6-1.8
			s0.2-1.8,0.6-1.8h8.6c0.4,0,0.6,0.6,0.6,1.8s-0.2,1.8-0.6,1.8H3.9z M3.9-664.3c-0.4,0-0.6-0.6-0.6-1.8s0.2-1.8,0.6-1.8h8.6
			c0.4,0,0.6,0.6,0.6,1.8s-0.2,1.8-0.6,1.8H3.9z M3.9-669.2c-0.4,0-0.6-0.6-0.6-1.8s0.2-1.8,0.6-1.8h8.6c0.4,0,0.6,0.6,0.6,1.8
			s-0.2,1.8-0.6,1.8H3.9z M3.9-674.1c-0.4,0-0.6-0.6-0.6-1.8s0.2-1.8,0.6-1.8h8.6c0.4,0,0.6,0.6,0.6,1.8s-0.2,1.8-0.6,1.8H3.9z
			 M-5.9-678.9c-0.4,0-0.6-0.6-0.6-1.8s0.2-1.8,0.6-1.8h28.2c0.4,0,0.6,0.6,0.6,1.8s-0.2,1.8-0.6,1.8H-5.9z M-29.4-649.6
			c-0.4,0-0.6-0.6-0.6-1.8s0.2-1.8,0.6-1.8h13.5c0.4,0,0.6,0.6,0.6,1.8s-0.2,1.8-0.6,1.8H-29.4z M-34.3-654.5
			c-0.4,0-0.6-0.6-0.6-1.8s0.2-1.8,0.6-1.8h13.5c0.4,0,0.6,0.6,0.6,1.8s-0.2,1.8-0.6,1.8H-34.3z M-24.5-678.9
			c-0.4,0-0.6-0.6-0.6-1.8s0.2-1.8,0.6-1.8h8.6c0.4,0,0.6,0.6,0.6,1.8s-0.2,1.8-0.6,1.8H-24.5z M-34.3-669.2c-0.4,0-0.6-0.6-0.6-1.8
			s0.2-1.8,0.6-1.8h8.6c0.4,0,0.6,0.6,0.6,1.8s-0.2,1.8-0.6,1.8H-34.3z M-29.4-674.1c-0.4,0-0.6-0.6-0.6-1.8s0.2-1.8,0.6-1.8h8.6
			c0.4,0,0.6,0.6,0.6,1.8s-0.2,1.8-0.6,1.8H-29.4z M-49-678.9c-0.4,0-0.6-0.6-0.6-1.8s0.2-1.8,0.6-1.8h8.6c0.4,0,0.6,0.6,0.6,1.8
			s-0.2,1.8-0.6,1.8H-49z M-49-649.6c-0.4,0-0.6-0.6-0.6-1.8s0.2-1.8,0.6-1.8h8.6c0.4,0,0.6,0.6,0.6,1.8s-0.2,1.8-0.6,1.8H-49z
			 M-49-654.5c-0.4,0-0.6-0.6-0.6-1.8s0.2-1.8,0.6-1.8h8.6c0.4,0,0.6,0.6,0.6,1.8s-0.2,1.8-0.6,1.8H-49z M-49-664.3
			c-0.4,0-0.6-0.6-0.6-1.8s0.2-1.8,0.6-1.8h18.4c0.4,0,0.6,0.6,0.6,1.8s-0.2,1.8-0.6,1.8H-49z M-49-659.4c-0.4,0-0.6-0.6-0.6-1.8
			s0.2-1.8,0.6-1.8h23.3c0.4,0,0.6,0.6,0.6,1.8s-0.2,1.8-0.6,1.8H-49z M-49-669.2c-0.4,0-0.6-0.6-0.6-1.8s0.2-1.8,0.6-1.8h8.6
			c0.4,0,0.6,0.6,0.6,1.8s-0.2,1.8-0.6,1.8H-49z M-49-674.1c-0.4,0-0.6-0.6-0.6-1.8s0.2-1.8,0.6-1.8h8.6c0.4,0,0.6,0.6,0.6,1.8
			s-0.2,1.8-0.6,1.8H-49z M-62.6-664.3c-0.4,0-0.6-0.6-0.6-1.8s0.2-1.8,0.6-1.8h8.6c0.4,0,0.6,0.6,0.6,1.8s-0.2,1.8-0.6,1.8H-62.6z
			 M-82.2-649.6c-0.4,0-0.6-0.6-0.6-1.8s0.2-1.8,0.6-1.8H-59c0.4,0,0.6,0.6,0.6,1.8s-0.2,1.8-0.6,1.8H-82.2z M-62.6-654.5
			c-0.4,0-0.6-0.6-0.6-1.8s0.2-1.8,0.6-1.8h8.6c0.4,0,0.6,0.6,0.6,1.8s-0.2,1.8-0.6,1.8H-62.6z M-87.1-654.5c-0.4,0-0.6-0.6-0.6-1.8
			s0.2-1.8,0.6-1.8h8.6c0.4,0,0.6,0.6,0.6,1.8s-0.2,1.8-0.6,1.8H-87.1z M-87.1-664.3c-0.4,0-0.6-0.6-0.6-1.8s0.2-1.8,0.6-1.8h8.6
			c0.4,0,0.6,0.6,0.6,1.8s-0.2,1.8-0.6,1.8H-87.1z M-62.6-659.4c-0.4,0-0.6-0.6-0.6-1.8s0.2-1.8,0.6-1.8h8.6c0.4,0,0.6,0.6,0.6,1.8
			s-0.2,1.8-0.6,1.8H-62.6z M-87.1-659.4c-0.4,0-0.6-0.6-0.6-1.8s0.2-1.8,0.6-1.8h8.6c0.4,0,0.6,0.6,0.6,1.8s-0.2,1.8-0.6,1.8H-87.1
			z M-62.6-669.2c-0.4,0-0.6-0.6-0.6-1.8s0.2-1.8,0.6-1.8h8.6c0.4,0,0.6,0.6,0.6,1.8s-0.2,1.8-0.6,1.8H-62.6z M-87.1-669.2
			c-0.4,0-0.6-0.6-0.6-1.8s0.2-1.8,0.6-1.8h8.6c0.4,0,0.6,0.6,0.6,1.8s-0.2,1.8-0.6,1.8H-87.1z M-82.2-678.9c-0.4,0-0.6-0.6-0.6-1.8
			s0.2-1.8,0.6-1.8H-59c0.4,0,0.6,0.6,0.6,1.8s-0.2,1.8-0.6,1.8H-82.2z M-62.6-674.1c-0.4,0-0.6-0.6-0.6-1.8s0.2-1.8,0.6-1.8h8.6
			c0.4,0,0.6,0.6,0.6,1.8s-0.2,1.8-0.6,1.8H-62.6z M-87.1-674.1c-0.4,0-0.6-0.6-0.6-1.8s0.2-1.8,0.6-1.8h8.6c0.4,0,0.6,0.6,0.6,1.8
			s-0.2,1.8-0.6,1.8H-87.1z M-100.8-664.3c-0.4,0-0.6-0.6-0.6-1.8s0.2-1.8,0.6-1.8h8.6c0.4,0,0.6,0.6,0.6,1.8s-0.2,1.8-0.6,1.8
			H-100.8z M-120.4-649.6c-0.4,0-0.6-0.6-0.6-1.8s0.2-1.8,0.6-1.8h23.3c0.4,0,0.6,0.6,0.6,1.8s-0.2,1.8-0.6,1.8H-120.4z
			 M-100.8-654.5c-0.4,0-0.6-0.6-0.6-1.8s0.2-1.8,0.6-1.8h8.6c0.4,0,0.6,0.6,0.6,1.8s-0.2,1.8-0.6,1.8H-100.8z M-125.3-654.5
			c-0.4,0-0.6-0.6-0.6-1.8s0.2-1.8,0.6-1.8h8.6c0.4,0,0.6,0.6,0.6,1.8s-0.2,1.8-0.6,1.8H-125.3z M-125.3-664.3
			c-0.4,0-0.6-0.6-0.6-1.8s0.2-1.8,0.6-1.8h8.6c0.4,0,0.6,0.6,0.6,1.8s-0.2,1.8-0.6,1.8H-125.3z M-100.8-659.4
			c-0.4,0-0.6-0.6-0.6-1.8s0.2-1.8,0.6-1.8h8.6c0.4,0,0.6,0.6,0.6,1.8s-0.2,1.8-0.6,1.8H-100.8z M-125.3-659.4
			c-0.4,0-0.6-0.6-0.6-1.8s0.2-1.8,0.6-1.8h8.6c0.4,0,0.6,0.6,0.6,1.8s-0.2,1.8-0.6,1.8H-125.3z M-100.8-669.2
			c-0.4,0-0.6-0.6-0.6-1.8s0.2-1.8,0.6-1.8h8.6c0.4,0,0.6,0.6,0.6,1.8s-0.2,1.8-0.6,1.8H-100.8z M-125.3-669.2
			c-0.4,0-0.6-0.6-0.6-1.8s0.2-1.8,0.6-1.8h8.6c0.4,0,0.6,0.6,0.6,1.8s-0.2,1.8-0.6,1.8H-125.3z M-120.4-678.9
			c-0.4,0-0.6-0.6-0.6-1.8s0.2-1.8,0.6-1.8h23.3c0.4,0,0.6,0.6,0.6,1.8s-0.2,1.8-0.6,1.8H-120.4z M-100.8-674.1
			c-0.4,0-0.6-0.6-0.6-1.8s0.2-1.8,0.6-1.8h8.6c0.4,0,0.6,0.6,0.6,1.8s-0.2,1.8-0.6,1.8H-100.8z M-125.3-674.1
			c-0.4,0-0.6-0.6-0.6-1.8s0.2-1.8,0.6-1.8h8.6c0.4,0,0.6,0.6,0.6,1.8s-0.2,1.8-0.6,1.8H-125.3z M-153.6-649.6
			c-0.4,0-0.6-0.6-0.6-1.8s0.2-1.8,0.6-1.8h18.4c0.4,0,0.6,0.6,0.6,1.8s-0.2,1.8-0.6,1.8H-153.6z M-138.9-654.5
			c-0.4,0-0.6-0.6-0.6-1.8s0.2-1.8,0.6-1.8h8.6c0.4,0,0.6,0.6,0.6,1.8s-0.2,1.8-0.6,1.8H-138.9z M-158.5-654.5
			c-0.4,0-0.6-0.6-0.6-1.8s0.2-1.8,0.6-1.8h8.6c0.4,0,0.6,0.6,0.6,1.8s-0.2,1.8-0.6,1.8H-158.5z M-163.4-664.3
			c-0.4,0-0.6-0.6-0.6-1.8s0.2-1.8,0.6-1.8h8.6c0.4,0,0.6,0.6,0.6,1.8s-0.2,1.8-0.6,1.8H-163.4z M-163.4-659.4
			c-0.4,0-0.6-0.6-0.6-1.8s0.2-1.8,0.6-1.8h8.6c0.4,0,0.6,0.6,0.6,1.8s-0.2,1.8-0.6,1.8H-163.4z M-163.4-669.2
			c-0.4,0-0.6-0.6-0.6-1.8s0.2-1.8,0.6-1.8h8.6c0.4,0,0.6,0.6,0.6,1.8s-0.2,1.8-0.6,1.8H-163.4z M-153.6-678.9
			c-0.4,0-0.6-0.6-0.6-1.8s0.2-1.8,0.6-1.8h18.4c0.4,0,0.6,0.6,0.6,1.8s-0.2,1.8-0.6,1.8H-153.6z M-138.9-674.1
			c-0.4,0-0.6-0.6-0.6-1.8s0.2-1.8,0.6-1.8h8.6c0.4,0,0.6,0.6,0.6,1.8s-0.2,1.8-0.6,1.8H-138.9z M-158.5-674.1
			c-0.4,0-0.6-0.6-0.6-1.8s0.2-1.8,0.6-1.8h8.6c0.4,0,0.6,0.6,0.6,1.8s-0.2,1.8-0.6,1.8H-158.5z"/>
	</defs>
	<clipPath id="SVGID_2_">
		<use xlink:href="#SVGID_1_"  style="overflow:visible;"/>
	</clipPath>
	<g class="st0">
		<defs>
			<rect id="SVGID_3_" x="-578.3" y="-2261.6" width="1440" height="4375"/>
		</defs>
		<clipPath id="SVGID_4_">
			<use xlink:href="#SVGID_3_"  style="overflow:visible;"/>
		</clipPath>
		<rect x="-189.3" y="-709.6" class="st1" width="660" height="90"/>
	</g>
</g>
<g>
	<defs>
		<path id="SVGID_5_" d="M0,0h650v4H0V0z M0,76h650v4H0V76z M612.7,55c-0.4,0-0.6-0.6-0.6-1.8c0-1.2,0.2-1.8,0.6-1.8h13.5
			c0.4,0,0.6,0.6,0.6,1.8c0,1.2-0.2,1.8-0.6,1.8H612.7z M612.7,40.3c-0.4,0-0.6-0.6-0.6-1.8s0.2-1.8,0.6-1.8h13.5
			c0.4,0,0.6,0.6,0.6,1.8s-0.2,1.8-0.6,1.8H612.7z M593.2,55c-0.4,0-0.6-0.6-0.6-1.8c0-1.2,0.2-1.8,0.6-1.8h8.6
			c0.4,0,0.6,0.6,0.6,1.8c0,1.2-0.2,1.8-0.6,1.8H593.2z M607.8,50.1c-0.4,0-0.6-0.6-0.6-1.8c0-1.2,0.2-1.8,0.6-1.8h13.5
			c0.4,0,0.6,0.6,0.6,1.8c0,1.2-0.2,1.8-0.6,1.8H607.8z M593.2,50.1c-0.4,0-0.6-0.6-0.6-1.8c0-1.2,0.2-1.8,0.6-1.8h8.6
			c0.4,0,0.6,0.6,0.6,1.8c0,1.2-0.2,1.8-0.6,1.8H593.2z M593.2,40.3c-0.4,0-0.6-0.6-0.6-1.8s0.2-1.8,0.6-1.8h8.6
			c0.4,0,0.6,0.6,0.6,1.8s-0.2,1.8-0.6,1.8H593.2z M593.2,45.2c-0.4,0-0.6-0.6-0.6-1.8c0-1.2,0.2-1.8,0.6-1.8h23.3
			c0.4,0,0.6,0.6,0.6,1.8c0,1.2-0.2,1.8-0.6,1.8H593.2z M617.6,35.4c-0.4,0-0.6-0.6-0.6-1.8c0-1.2,0.2-1.8,0.6-1.8h8.6
			c0.4,0,0.6,0.6,0.6,1.8c0,1.2-0.2,1.8-0.6,1.8H617.6z M593.2,35.4c-0.4,0-0.6-0.6-0.6-1.8c0-1.2,0.2-1.8,0.6-1.8h8.6
			c0.4,0,0.6,0.6,0.6,1.8c0,1.2-0.2,1.8-0.6,1.8H593.2z M593.2,25.6c-0.4,0-0.6-0.6-0.6-1.8c0-1.2,0.2-1.8,0.6-1.8h28.2
			c0.4,0,0.6,0.6,0.6,1.8c0,1.2-0.2,1.8-0.6,1.8H593.2z M617.6,30.5c-0.4,0-0.6-0.6-0.6-1.8c0-1.2,0.2-1.8,0.6-1.8h8.6
			c0.4,0,0.6,0.6,0.6,1.8c0,1.2-0.2,1.8-0.6,1.8H617.6z M593.2,30.5c-0.4,0-0.6-0.6-0.6-1.8c0-1.2,0.2-1.8,0.6-1.8h8.6
			c0.4,0,0.6,0.6,0.6,1.8c0,1.2-0.2,1.8-0.6,1.8H593.2z M579.5,40.3c-0.4,0-0.6-0.6-0.6-1.8s0.2-1.8,0.6-1.8h8.6
			c0.4,0,0.6,0.6,0.6,1.8s-0.2,1.8-0.6,1.8H579.5z M559.9,55c-0.4,0-0.6-0.6-0.6-1.8c0-1.2,0.2-1.8,0.6-1.8h23.3
			c0.4,0,0.6,0.6,0.6,1.8c0,1.2-0.2,1.8-0.6,1.8H559.9z M579.5,50.1c-0.4,0-0.6-0.6-0.6-1.8c0-1.2,0.2-1.8,0.6-1.8h8.6
			c0.4,0,0.6,0.6,0.6,1.8c0,1.2-0.2,1.8-0.6,1.8H579.5z M555,50.1c-0.4,0-0.6-0.6-0.6-1.8c0-1.2,0.2-1.8,0.6-1.8h8.6
			c0.4,0,0.6,0.6,0.6,1.8c0,1.2-0.2,1.8-0.6,1.8H555z M555,40.3c-0.4,0-0.6-0.6-0.6-1.8s0.2-1.8,0.6-1.8h8.6c0.4,0,0.6,0.6,0.6,1.8
			s-0.2,1.8-0.6,1.8H555z M579.5,45.2c-0.4,0-0.6-0.6-0.6-1.8c0-1.2,0.2-1.8,0.6-1.8h8.6c0.4,0,0.6,0.6,0.6,1.8
			c0,1.2-0.2,1.8-0.6,1.8H579.5z M555,45.2c-0.4,0-0.6-0.6-0.6-1.8c0-1.2,0.2-1.8,0.6-1.8h8.6c0.4,0,0.6,0.6,0.6,1.8
			c0,1.2-0.2,1.8-0.6,1.8H555z M579.5,35.4c-0.4,0-0.6-0.6-0.6-1.8c0-1.2,0.2-1.8,0.6-1.8h8.6c0.4,0,0.6,0.6,0.6,1.8
			c0,1.2-0.2,1.8-0.6,1.8H579.5z M555,35.4c-0.4,0-0.6-0.6-0.6-1.8c0-1.2,0.2-1.8,0.6-1.8h8.6c0.4,0,0.6,0.6,0.6,1.8
			c0,1.2-0.2,1.8-0.6,1.8H555z M559.9,25.6c-0.4,0-0.6-0.6-0.6-1.8c0-1.2,0.2-1.8,0.6-1.8h23.3c0.4,0,0.6,0.6,0.6,1.8
			c0,1.2-0.2,1.8-0.6,1.8H559.9z M579.5,30.5c-0.4,0-0.6-0.6-0.6-1.8c0-1.2,0.2-1.8,0.6-1.8h8.6c0.4,0,0.6,0.6,0.6,1.8
			c0,1.2-0.2,1.8-0.6,1.8H579.5z M555,30.5c-0.4,0-0.6-0.6-0.6-1.8c0-1.2,0.2-1.8,0.6-1.8h8.6c0.4,0,0.6,0.6,0.6,1.8
			c0,1.2-0.2,1.8-0.6,1.8H555z M531.5,45.2c-0.4,0-0.6-0.6-0.6-1.8c0-1.2,0.2-1.8,0.6-1.8h8.6c0.4,0,0.6,0.6,0.6,1.8
			c0,1.2-0.2,1.8-0.6,1.8H531.5z M531.5,40.3c-0.4,0-0.6-0.6-0.6-1.8s0.2-1.8,0.6-1.8h8.6c0.4,0,0.6,0.6,0.6,1.8s-0.2,1.8-0.6,1.8
			H531.5z M531.5,55c-0.4,0-0.6-0.6-0.6-1.8c0-1.2,0.2-1.8,0.6-1.8h8.6c0.4,0,0.6,0.6,0.6,1.8c0,1.2-0.2,1.8-0.6,1.8H531.5z
			 M531.5,50.1c-0.4,0-0.6-0.6-0.6-1.8c0-1.2,0.2-1.8,0.6-1.8h8.6c0.4,0,0.6,0.6,0.6,1.8c0,1.2-0.2,1.8-0.6,1.8H531.5z M531.5,35.4
			c-0.4,0-0.6-0.6-0.6-1.8c0-1.2,0.2-1.8,0.6-1.8h8.6c0.4,0,0.6,0.6,0.6,1.8c0,1.2-0.2,1.8-0.6,1.8H531.5z M521.8,25.6
			c-0.4,0-0.6-0.6-0.6-1.8c0-1.2,0.2-1.8,0.6-1.8h28.2c0.4,0,0.6,0.6,0.6,1.8c0,1.2-0.2,1.8-0.6,1.8H521.8z M531.5,30.5
			c-0.4,0-0.6-0.6-0.6-1.8c0-1.2,0.2-1.8,0.6-1.8h8.6c0.4,0,0.6,0.6,0.6,1.8c0,1.2-0.2,1.8-0.6,1.8H531.5z M503.2,55
			c-0.4,0-0.6-0.6-0.6-1.8c0-1.2,0.2-1.8,0.6-1.8h8.6c0.4,0,0.6,0.6,0.6,1.8c0,1.2-0.2,1.8-0.6,1.8H503.2z M478.7,55
			c-0.4,0-0.6-0.6-0.6-1.8c0-1.2,0.2-1.8,0.6-1.8h8.6c0.4,0,0.6,0.6,0.6,1.8c0,1.2-0.2,1.8-0.6,1.8H478.7z M503.2,50.1
			c-0.4,0-0.6-0.6-0.6-1.8c0-1.2,0.2-1.8,0.6-1.8h8.6c0.4,0,0.6,0.6,0.6,1.8c0,1.2-0.2,1.8-0.6,1.8H503.2z M478.7,50.1
			c-0.4,0-0.6-0.6-0.6-1.8c0-1.2,0.2-1.8,0.6-1.8h8.6c0.4,0,0.6,0.6,0.6,1.8c0,1.2-0.2,1.8-0.6,1.8H478.7z M478.7,45.2
			c-0.4,0-0.6-0.6-0.6-1.8c0-1.2,0.2-1.8,0.6-1.8h33c0.4,0,0.6,0.6,0.6,1.8c0,1.2-0.2,1.8-0.6,1.8H478.7z M503.2,40.3
			c-0.4,0-0.6-0.6-0.6-1.8s0.2-1.8,0.6-1.8h8.6c0.4,0,0.6,0.6,0.6,1.8s-0.2,1.8-0.6,1.8H503.2z M478.7,40.3c-0.4,0-0.6-0.6-0.6-1.8
			s0.2-1.8,0.6-1.8h8.6c0.4,0,0.6,0.6,0.6,1.8s-0.2,1.8-0.6,1.8H478.7z M503.2,35.4c-0.4,0-0.6-0.6-0.6-1.8c0-1.2,0.2-1.8,0.6-1.8
			h8.6c0.4,0,0.6,0.6,0.6,1.8c0,1.2-0.2,1.8-0.6,1.8H503.2z M478.7,35.4c-0.4,0-0.6-0.6-0.6-1.8c0-1.2,0.2-1.8,0.6-1.8h8.6
			c0.4,0,0.6,0.6,0.6,1.8c0,1.2-0.2,1.8-0.6,1.8H478.7z M488.5,25.6c-0.4,0-0.6-0.6-0.6-1.8c0-1.2,0.2-1.8,0.6-1.8H502
			c0.4,0,0.6,0.6,0.6,1.8c0,1.2-0.2,1.8-0.6,1.8H488.5z M498.3,30.5c-0.4,0-0.6-0.6-0.6-1.8c0-1.2,0.2-1.8,0.6-1.8h8.6
			c0.4,0,0.6,0.6,0.6,1.8c0,1.2-0.2,1.8-0.6,1.8H498.3z M483.6,30.5c-0.4,0-0.6-0.6-0.6-1.8c0-1.2,0.2-1.8,0.6-1.8h8.6
			c0.4,0,0.6,0.6,0.6,1.8c0,1.2-0.2,1.8-0.6,1.8H483.6z M460.1,55c-0.4,0-0.6-0.6-0.6-1.8c0-1.2,0.2-1.8,0.6-1.8h13.5
			c0.4,0,0.6,0.6,0.6,1.8c0,1.2-0.2,1.8-0.6,1.8H460.1z M460.1,40.3c-0.4,0-0.6-0.6-0.6-1.8s0.2-1.8,0.6-1.8h13.5
			c0.4,0,0.6,0.6,0.6,1.8s-0.2,1.8-0.6,1.8H460.1z M440.5,55c-0.4,0-0.6-0.6-0.6-1.8c0-1.2,0.2-1.8,0.6-1.8h8.6
			c0.4,0,0.6,0.6,0.6,1.8c0,1.2-0.2,1.8-0.6,1.8H440.5z M455.2,50.1c-0.4,0-0.6-0.6-0.6-1.8c0-1.2,0.2-1.8,0.6-1.8h13.5
			c0.4,0,0.6,0.6,0.6,1.8c0,1.2-0.2,1.8-0.6,1.8H455.2z M440.5,50.1c-0.4,0-0.6-0.6-0.6-1.8c0-1.2,0.2-1.8,0.6-1.8h8.6
			c0.4,0,0.6,0.6,0.6,1.8c0,1.2-0.2,1.8-0.6,1.8H440.5z M440.5,40.3c-0.4,0-0.6-0.6-0.6-1.8s0.2-1.8,0.6-1.8h8.6
			c0.4,0,0.6,0.6,0.6,1.8s-0.2,1.8-0.6,1.8H440.5z M440.5,45.2c-0.4,0-0.6-0.6-0.6-1.8c0-1.2,0.2-1.8,0.6-1.8h23.3
			c0.4,0,0.6,0.6,0.6,1.8c0,1.2-0.2,1.8-0.6,1.8H440.5z M465,35.4c-0.4,0-0.6-0.6-0.6-1.8c0-1.2,0.2-1.8,0.6-1.8h8.6
			c0.4,0,0.6,0.6,0.6,1.8c0,1.2-0.2,1.8-0.6,1.8H465z M440.5,35.4c-0.4,0-0.6-0.6-0.6-1.8c0-1.2,0.2-1.8,0.6-1.8h8.6
			c0.4,0,0.6,0.6,0.6,1.8c0,1.2-0.2,1.8-0.6,1.8H440.5z M440.5,25.6c-0.4,0-0.6-0.6-0.6-1.8c0-1.2,0.2-1.8,0.6-1.8h28.2
			c0.4,0,0.6,0.6,0.6,1.8c0,1.2-0.2,1.8-0.6,1.8H440.5z M465,30.5c-0.4,0-0.6-0.6-0.6-1.8c0-1.2,0.2-1.8,0.6-1.8h8.6
			c0.4,0,0.6,0.6,0.6,1.8c0,1.2-0.2,1.8-0.6,1.8H465z M440.5,30.5c-0.4,0-0.6-0.6-0.6-1.8c0-1.2,0.2-1.8,0.6-1.8h8.6
			c0.4,0,0.6,0.6,0.6,1.8c0,1.2-0.2,1.8-0.6,1.8H440.5z M426.9,40.3c-0.4,0-0.6-0.6-0.6-1.8s0.2-1.8,0.6-1.8h8.6
			c0.4,0,0.6,0.6,0.6,1.8s-0.2,1.8-0.6,1.8H426.9z M407.3,55c-0.4,0-0.6-0.6-0.6-1.8c0-1.2,0.2-1.8,0.6-1.8h23.3
			c0.4,0,0.6,0.6,0.6,1.8c0,1.2-0.2,1.8-0.6,1.8H407.3z M426.9,50.1c-0.4,0-0.6-0.6-0.6-1.8c0-1.2,0.2-1.8,0.6-1.8h8.6
			c0.4,0,0.6,0.6,0.6,1.8c0,1.2-0.2,1.8-0.6,1.8H426.9z M402.4,50.1c-0.4,0-0.6-0.6-0.6-1.8c0-1.2,0.2-1.8,0.6-1.8h8.6
			c0.4,0,0.6,0.6,0.6,1.8c0,1.2-0.2,1.8-0.6,1.8H402.4z M402.4,40.3c-0.4,0-0.6-0.6-0.6-1.8s0.2-1.8,0.6-1.8h8.6
			c0.4,0,0.6,0.6,0.6,1.8s-0.2,1.8-0.6,1.8H402.4z M426.9,45.2c-0.4,0-0.6-0.6-0.6-1.8c0-1.2,0.2-1.8,0.6-1.8h8.6
			c0.4,0,0.6,0.6,0.6,1.8c0,1.2-0.2,1.8-0.6,1.8H426.9z M402.4,45.2c-0.4,0-0.6-0.6-0.6-1.8c0-1.2,0.2-1.8,0.6-1.8h8.6
			c0.4,0,0.6,0.6,0.6,1.8c0,1.2-0.2,1.8-0.6,1.8H402.4z M426.9,35.4c-0.4,0-0.6-0.6-0.6-1.8c0-1.2,0.2-1.8,0.6-1.8h8.6
			c0.4,0,0.6,0.6,0.6,1.8c0,1.2-0.2,1.8-0.6,1.8H426.9z M402.4,35.4c-0.4,0-0.6-0.6-0.6-1.8c0-1.2,0.2-1.8,0.6-1.8h8.6
			c0.4,0,0.6,0.6,0.6,1.8c0,1.2-0.2,1.8-0.6,1.8H402.4z M407.3,25.6c-0.4,0-0.6-0.6-0.6-1.8c0-1.2,0.2-1.8,0.6-1.8h23.3
			c0.4,0,0.6,0.6,0.6,1.8c0,1.2-0.2,1.8-0.6,1.8H407.3z M426.9,30.5c-0.4,0-0.6-0.6-0.6-1.8c0-1.2,0.2-1.8,0.6-1.8h8.6
			c0.4,0,0.6,0.6,0.6,1.8c0,1.2-0.2,1.8-0.6,1.8H426.9z M402.4,30.5c-0.4,0-0.6-0.6-0.6-1.8c0-1.2,0.2-1.8,0.6-1.8h8.6
			c0.4,0,0.6,0.6,0.6,1.8c0,1.2-0.2,1.8-0.6,1.8H402.4z M374,55c-0.4,0-0.6-0.6-0.6-1.8c0-1.2,0.2-1.8,0.6-1.8h18.4
			c0.4,0,0.6,0.6,0.6,1.8c0,1.2-0.2,1.8-0.6,1.8H374z M388.7,50.1c-0.4,0-0.6-0.6-0.6-1.8c0-1.2,0.2-1.8,0.6-1.8h8.6
			c0.4,0,0.6,0.6,0.6,1.8c0,1.2-0.2,1.8-0.6,1.8H388.7z M369.1,50.1c-0.4,0-0.6-0.6-0.6-1.8c0-1.2,0.2-1.8,0.6-1.8h8.6
			c0.4,0,0.6,0.6,0.6,1.8c0,1.2-0.2,1.8-0.6,1.8H369.1z M364.2,40.3c-0.4,0-0.6-0.6-0.6-1.8s0.2-1.8,0.6-1.8h8.6
			c0.4,0,0.6,0.6,0.6,1.8s-0.2,1.8-0.6,1.8H364.2z M364.2,45.2c-0.4,0-0.6-0.6-0.6-1.8c0-1.2,0.2-1.8,0.6-1.8h8.6
			c0.4,0,0.6,0.6,0.6,1.8c0,1.2-0.2,1.8-0.6,1.8H364.2z M364.2,35.4c-0.4,0-0.6-0.6-0.6-1.8c0-1.2,0.2-1.8,0.6-1.8h8.6
			c0.4,0,0.6,0.6,0.6,1.8c0,1.2-0.2,1.8-0.6,1.8H364.2z M374,25.6c-0.4,0-0.6-0.6-0.6-1.8c0-1.2,0.2-1.8,0.6-1.8h18.4
			c0.4,0,0.6,0.6,0.6,1.8c0,1.2-0.2,1.8-0.6,1.8H374z M388.7,30.5c-0.4,0-0.6-0.6-0.6-1.8c0-1.2,0.2-1.8,0.6-1.8h8.6
			c0.4,0,0.6,0.6,0.6,1.8c0,1.2-0.2,1.8-0.6,1.8H388.7z M369.1,30.5c-0.4,0-0.6-0.6-0.6-1.8c0-1.2,0.2-1.8,0.6-1.8h8.6
			c0.4,0,0.6,0.6,0.6,1.8c0,1.2-0.2,1.8-0.6,1.8H369.1z M326.1,55c-0.4,0-0.6-0.6-0.6-1.8c0-1.2,0.2-1.8,0.6-1.8h33
			c0.4,0,0.6,0.6,0.6,1.8c0,1.2-0.2,1.8-0.6,1.8H326.1z M326.1,50.1c-0.4,0-0.6-0.6-0.6-1.8c0-1.2,0.2-1.8,0.6-1.8h8.6
			c0.4,0,0.6,0.6,0.6,1.8c0,1.2-0.2,1.8-0.6,1.8H326.1z M326.1,40.3c-0.4,0-0.6-0.6-0.6-1.8s0.2-1.8,0.6-1.8h28.2
			c0.4,0,0.6,0.6,0.6,1.8s-0.2,1.8-0.6,1.8H326.1z M326.1,45.2c-0.4,0-0.6-0.6-0.6-1.8c0-1.2,0.2-1.8,0.6-1.8h8.6
			c0.4,0,0.6,0.6,0.6,1.8c0,1.2-0.2,1.8-0.6,1.8H326.1z M326.1,35.4c-0.4,0-0.6-0.6-0.6-1.8c0-1.2,0.2-1.8,0.6-1.8h8.6
			c0.4,0,0.6,0.6,0.6,1.8c0,1.2-0.2,1.8-0.6,1.8H326.1z M326.1,25.6c-0.4,0-0.6-0.6-0.6-1.8c0-1.2,0.2-1.8,0.6-1.8h33
			c0.4,0,0.6,0.6,0.6,1.8c0,1.2-0.2,1.8-0.6,1.8H326.1z M326.1,30.5c-0.4,0-0.6-0.6-0.6-1.8c0-1.2,0.2-1.8,0.6-1.8h8.6
			c0.4,0,0.6,0.6,0.6,1.8c0,1.2-0.2,1.8-0.6,1.8H326.1z M312.4,40.3c-0.4,0-0.6-0.6-0.6-1.8s0.2-1.8,0.6-1.8h8.6
			c0.4,0,0.6,0.6,0.6,1.8s-0.2,1.8-0.6,1.8H312.4z M287.9,55c-0.4,0-0.6-0.6-0.6-1.8c0-1.2,0.2-1.8,0.6-1.8h23.3
			c0.4,0,0.6,0.6,0.6,1.8c0,1.2-0.2,1.8-0.6,1.8H287.9z M307.5,50.1c-0.4,0-0.6-0.6-0.6-1.8c0-1.2,0.2-1.8,0.6-1.8h8.6
			c0.4,0,0.6,0.6,0.6,1.8c0,1.2-0.2,1.8-0.6,1.8H307.5z M287.9,50.1c-0.4,0-0.6-0.6-0.6-1.8c0-1.2,0.2-1.8,0.6-1.8h8.6
			c0.4,0,0.6,0.6,0.6,1.8c0,1.2-0.2,1.8-0.6,1.8H287.9z M287.9,40.3c-0.4,0-0.6-0.6-0.6-1.8s0.2-1.8,0.6-1.8h8.6
			c0.4,0,0.6,0.6,0.6,1.8s-0.2,1.8-0.6,1.8H287.9z M312.4,45.2c-0.4,0-0.6-0.6-0.6-1.8c0-1.2,0.2-1.8,0.6-1.8h8.6
			c0.4,0,0.6,0.6,0.6,1.8c0,1.2-0.2,1.8-0.6,1.8H312.4z M287.9,45.2c-0.4,0-0.6-0.6-0.6-1.8c0-1.2,0.2-1.8,0.6-1.8h8.6
			c0.4,0,0.6,0.6,0.6,1.8c0,1.2-0.2,1.8-0.6,1.8H287.9z M312.4,35.4c-0.4,0-0.6-0.6-0.6-1.8c0-1.2,0.2-1.8,0.6-1.8h8.6
			c0.4,0,0.6,0.6,0.6,1.8c0,1.2-0.2,1.8-0.6,1.8H312.4z M287.9,35.4c-0.4,0-0.6-0.6-0.6-1.8c0-1.2,0.2-1.8,0.6-1.8h8.6
			c0.4,0,0.6,0.6,0.6,1.8c0,1.2-0.2,1.8-0.6,1.8H287.9z M287.9,25.6c-0.4,0-0.6-0.6-0.6-1.8c0-1.2,0.2-1.8,0.6-1.8h23.3
			c0.4,0,0.6,0.6,0.6,1.8c0,1.2-0.2,1.8-0.6,1.8H287.9z M307.5,30.5c-0.4,0-0.6-0.6-0.6-1.8c0-1.2,0.2-1.8,0.6-1.8h8.6
			c0.4,0,0.6,0.6,0.6,1.8c0,1.2-0.2,1.8-0.6,1.8H307.5z M287.9,30.5c-0.4,0-0.6-0.6-0.6-1.8c0-1.2,0.2-1.8,0.6-1.8h8.6
			c0.4,0,0.6,0.6,0.6,1.8c0,1.2-0.2,1.8-0.6,1.8H287.9z M211.6,55c-0.4,0-0.6-0.6-0.6-1.8c0-1.2,0.2-1.8,0.6-1.8h33
			c0.4,0,0.6,0.6,0.6,1.8c0,1.2-0.2,1.8-0.6,1.8H211.6z M211.6,50.1c-0.4,0-0.6-0.6-0.6-1.8c0-1.2,0.2-1.8,0.6-1.8h8.6
			c0.4,0,0.6,0.6,0.6,1.8c0,1.2-0.2,1.8-0.6,1.8H211.6z M211.6,40.3c-0.4,0-0.6-0.6-0.6-1.8s0.2-1.8,0.6-1.8h28.2
			c0.4,0,0.6,0.6,0.6,1.8s-0.2,1.8-0.6,1.8H211.6z M211.6,45.2c-0.4,0-0.6-0.6-0.6-1.8c0-1.2,0.2-1.8,0.6-1.8h8.6
			c0.4,0,0.6,0.6,0.6,1.8c0,1.2-0.2,1.8-0.6,1.8H211.6z M211.6,35.4c-0.4,0-0.6-0.6-0.6-1.8c0-1.2,0.2-1.8,0.6-1.8h8.6
			c0.4,0,0.6,0.6,0.6,1.8c0,1.2-0.2,1.8-0.6,1.8H211.6z M211.6,25.6c-0.4,0-0.6-0.6-0.6-1.8c0-1.2,0.2-1.8,0.6-1.8h33
			c0.4,0,0.6,0.6,0.6,1.8c0,1.2-0.2,1.8-0.6,1.8H211.6z M211.6,30.5c-0.4,0-0.6-0.6-0.6-1.8c0-1.2,0.2-1.8,0.6-1.8h8.6
			c0.4,0,0.6,0.6,0.6,1.8c0,1.2-0.2,1.8-0.6,1.8H211.6z M178.4,55c-0.4,0-0.6-0.6-0.6-1.8c0-1.2,0.2-1.8,0.6-1.8h28.2
			c0.4,0,0.6,0.6,0.6,1.8c0,1.2-0.2,1.8-0.6,1.8H178.4z M188.2,50.1c-0.4,0-0.6-0.6-0.6-1.8c0-1.2,0.2-1.8,0.6-1.8h8.6
			c0.4,0,0.6,0.6,0.6,1.8c0,1.2-0.2,1.8-0.6,1.8H188.2z M188.2,45.2c-0.4,0-0.6-0.6-0.6-1.8c0-1.2,0.2-1.8,0.6-1.8h8.6
			c0.4,0,0.6,0.6,0.6,1.8c0,1.2-0.2,1.8-0.6,1.8H188.2z M188.2,40.3c-0.4,0-0.6-0.6-0.6-1.8s0.2-1.8,0.6-1.8h8.6
			c0.4,0,0.6,0.6,0.6,1.8s-0.2,1.8-0.6,1.8H188.2z M188.2,35.4c-0.4,0-0.6-0.6-0.6-1.8c0-1.2,0.2-1.8,0.6-1.8h8.6
			c0.4,0,0.6,0.6,0.6,1.8c0,1.2-0.2,1.8-0.6,1.8H188.2z M188.2,30.5c-0.4,0-0.6-0.6-0.6-1.8c0-1.2,0.2-1.8,0.6-1.8h8.6
			c0.4,0,0.6,0.6,0.6,1.8c0,1.2-0.2,1.8-0.6,1.8H188.2z M178.4,25.6c-0.4,0-0.6-0.6-0.6-1.8c0-1.2,0.2-1.8,0.6-1.8h28.2
			c0.4,0,0.6,0.6,0.6,1.8c0,1.2-0.2,1.8-0.6,1.8H178.4z M154.9,55c-0.4,0-0.6-0.6-0.6-1.8c0-1.2,0.2-1.8,0.6-1.8h13.5
			c0.4,0,0.6,0.6,0.6,1.8c0,1.2-0.2,1.8-0.6,1.8H154.9z M150,50.1c-0.4,0-0.6-0.6-0.6-1.8c0-1.2,0.2-1.8,0.6-1.8h13.5
			c0.4,0,0.6,0.6,0.6,1.8c0,1.2-0.2,1.8-0.6,1.8H150z M159.8,25.6c-0.4,0-0.6-0.6-0.6-1.8c0-1.2,0.2-1.8,0.6-1.8h8.6
			c0.4,0,0.6,0.6,0.6,1.8c0,1.2-0.2,1.8-0.6,1.8H159.8z M150,35.4c-0.4,0-0.6-0.6-0.6-1.8c0-1.2,0.2-1.8,0.6-1.8h8.6
			c0.4,0,0.6,0.6,0.6,1.8c0,1.2-0.2,1.8-0.6,1.8H150z M154.9,30.5c-0.4,0-0.6-0.6-0.6-1.8c0-1.2,0.2-1.8,0.6-1.8h8.6
			c0.4,0,0.6,0.6,0.6,1.8c0,1.2-0.2,1.8-0.6,1.8H154.9z M135.3,25.6c-0.4,0-0.6-0.6-0.6-1.8c0-1.2,0.2-1.8,0.6-1.8h8.6
			c0.4,0,0.6,0.6,0.6,1.8c0,1.2-0.2,1.8-0.6,1.8H135.3z M135.3,55c-0.4,0-0.6-0.6-0.6-1.8c0-1.2,0.2-1.8,0.6-1.8h8.6
			c0.4,0,0.6,0.6,0.6,1.8c0,1.2-0.2,1.8-0.6,1.8H135.3z M135.3,50.1c-0.4,0-0.6-0.6-0.6-1.8c0-1.2,0.2-1.8,0.6-1.8h8.6
			c0.4,0,0.6,0.6,0.6,1.8c0,1.2-0.2,1.8-0.6,1.8H135.3z M135.3,40.3c-0.4,0-0.6-0.6-0.6-1.8s0.2-1.8,0.6-1.8h18.4
			c0.4,0,0.6,0.6,0.6,1.8s-0.2,1.8-0.6,1.8H135.3z M135.3,45.2c-0.4,0-0.6-0.6-0.6-1.8c0-1.2,0.2-1.8,0.6-1.8h23.3
			c0.4,0,0.6,0.6,0.6,1.8c0,1.2-0.2,1.8-0.6,1.8H135.3z M135.3,35.4c-0.4,0-0.6-0.6-0.6-1.8c0-1.2,0.2-1.8,0.6-1.8h8.6
			c0.4,0,0.6,0.6,0.6,1.8c0,1.2-0.2,1.8-0.6,1.8H135.3z M135.3,30.5c-0.4,0-0.6-0.6-0.6-1.8c0-1.2,0.2-1.8,0.6-1.8h8.6
			c0.4,0,0.6,0.6,0.6,1.8c0,1.2-0.2,1.8-0.6,1.8H135.3z M121.6,40.3c-0.4,0-0.6-0.6-0.6-1.8s0.2-1.8,0.6-1.8h8.6
			c0.4,0,0.6,0.6,0.6,1.8s-0.2,1.8-0.6,1.8H121.6z M102.1,55c-0.4,0-0.6-0.6-0.6-1.8c0-1.2,0.2-1.8,0.6-1.8h23.3
			c0.4,0,0.6,0.6,0.6,1.8c0,1.2-0.2,1.8-0.6,1.8H102.1z M121.6,50.1c-0.4,0-0.6-0.6-0.6-1.8c0-1.2,0.2-1.8,0.6-1.8h8.6
			c0.4,0,0.6,0.6,0.6,1.8c0,1.2-0.2,1.8-0.6,1.8H121.6z M97.2,50.1c-0.4,0-0.6-0.6-0.6-1.8c0-1.2,0.2-1.8,0.6-1.8h8.6
			c0.4,0,0.6,0.6,0.6,1.8c0,1.2-0.2,1.8-0.6,1.8H97.2z M97.2,40.3c-0.4,0-0.6-0.6-0.6-1.8s0.2-1.8,0.6-1.8h8.6
			c0.4,0,0.6,0.6,0.6,1.8s-0.2,1.8-0.6,1.8H97.2z M121.6,45.2c-0.4,0-0.6-0.6-0.6-1.8c0-1.2,0.2-1.8,0.6-1.8h8.6
			c0.4,0,0.6,0.6,0.6,1.8c0,1.2-0.2,1.8-0.6,1.8H121.6z M97.2,45.2c-0.4,0-0.6-0.6-0.6-1.8c0-1.2,0.2-1.8,0.6-1.8h8.6
			c0.4,0,0.6,0.6,0.6,1.8c0,1.2-0.2,1.8-0.6,1.8H97.2z M121.6,35.4c-0.4,0-0.6-0.6-0.6-1.8c0-1.2,0.2-1.8,0.6-1.8h8.6
			c0.4,0,0.6,0.6,0.6,1.8c0,1.2-0.2,1.8-0.6,1.8H121.6z M97.2,35.4c-0.4,0-0.6-0.6-0.6-1.8c0-1.2,0.2-1.8,0.6-1.8h8.6
			c0.4,0,0.6,0.6,0.6,1.8c0,1.2-0.2,1.8-0.6,1.8H97.2z M102.1,25.6c-0.4,0-0.6-0.6-0.6-1.8c0-1.2,0.2-1.8,0.6-1.8h23.3
			c0.4,0,0.6,0.6,0.6,1.8c0,1.2-0.2,1.8-0.6,1.8H102.1z M121.6,30.5c-0.4,0-0.6-0.6-0.6-1.8c0-1.2,0.2-1.8,0.6-1.8h8.6
			c0.4,0,0.6,0.6,0.6,1.8c0,1.2-0.2,1.8-0.6,1.8H121.6z M97.2,30.5c-0.4,0-0.6-0.6-0.6-1.8c0-1.2,0.2-1.8,0.6-1.8h8.6
			c0.4,0,0.6,0.6,0.6,1.8c0,1.2-0.2,1.8-0.6,1.8H97.2z M83.5,40.3c-0.4,0-0.6-0.6-0.6-1.8s0.2-1.8,0.6-1.8h8.6
			c0.4,0,0.6,0.6,0.6,1.8s-0.2,1.8-0.6,1.8H83.5z M63.9,55c-0.4,0-0.6-0.6-0.6-1.8c0-1.2,0.2-1.8,0.6-1.8h23.3
			c0.4,0,0.6,0.6,0.6,1.8c0,1.2-0.2,1.8-0.6,1.8H63.9z M83.5,50.1c-0.4,0-0.6-0.6-0.6-1.8c0-1.2,0.2-1.8,0.6-1.8h8.6
			c0.4,0,0.6,0.6,0.6,1.8c0,1.2-0.2,1.8-0.6,1.8H83.5z M59,50.1c-0.4,0-0.6-0.6-0.6-1.8c0-1.2,0.2-1.8,0.6-1.8h8.6
			c0.4,0,0.6,0.6,0.6,1.8c0,1.2-0.2,1.8-0.6,1.8H59z M59,40.3c-0.4,0-0.6-0.6-0.6-1.8s0.2-1.8,0.6-1.8h8.6c0.4,0,0.6,0.6,0.6,1.8
			s-0.2,1.8-0.6,1.8H59z M83.5,45.2c-0.4,0-0.6-0.6-0.6-1.8c0-1.2,0.2-1.8,0.6-1.8h8.6c0.4,0,0.6,0.6,0.6,1.8c0,1.2-0.2,1.8-0.6,1.8
			H83.5z M59,45.2c-0.4,0-0.6-0.6-0.6-1.8c0-1.2,0.2-1.8,0.6-1.8h8.6c0.4,0,0.6,0.6,0.6,1.8c0,1.2-0.2,1.8-0.6,1.8H59z M83.5,35.4
			c-0.4,0-0.6-0.6-0.6-1.8c0-1.2,0.2-1.8,0.6-1.8h8.6c0.4,0,0.6,0.6,0.6,1.8c0,1.2-0.2,1.8-0.6,1.8H83.5z M59,35.4
			c-0.4,0-0.6-0.6-0.6-1.8c0-1.2,0.2-1.8,0.6-1.8h8.6c0.4,0,0.6,0.6,0.6,1.8c0,1.2-0.2,1.8-0.6,1.8H59z M63.9,25.6
			c-0.4,0-0.6-0.6-0.6-1.8c0-1.2,0.2-1.8,0.6-1.8h23.3c0.4,0,0.6,0.6,0.6,1.8c0,1.2-0.2,1.8-0.6,1.8H63.9z M83.5,30.5
			c-0.4,0-0.6-0.6-0.6-1.8c0-1.2,0.2-1.8,0.6-1.8h8.6c0.4,0,0.6,0.6,0.6,1.8c0,1.2-0.2,1.8-0.6,1.8H83.5z M59,30.5
			c-0.4,0-0.6-0.6-0.6-1.8c0-1.2,0.2-1.8,0.6-1.8h8.6c0.4,0,0.6,0.6,0.6,1.8c0,1.2-0.2,1.8-0.6,1.8H59z M30.6,55
			c-0.4,0-0.6-0.6-0.6-1.8c0-1.2,0.2-1.8,0.6-1.8H49c0.4,0,0.6,0.6,0.6,1.8c0,1.2-0.2,1.8-0.6,1.8H30.6z M45.3,50.1
			c-0.4,0-0.6-0.6-0.6-1.8c0-1.2,0.2-1.8,0.6-1.8h8.6c0.4,0,0.6,0.6,0.6,1.8c0,1.2-0.2,1.8-0.6,1.8H45.3z M25.8,50.1
			c-0.4,0-0.6-0.6-0.6-1.8c0-1.2,0.2-1.8,0.6-1.8h8.6c0.4,0,0.6,0.6,0.6,1.8c0,1.2-0.2,1.8-0.6,1.8H25.8z M20.9,40.3
			c-0.4,0-0.6-0.6-0.6-1.8s0.2-1.8,0.6-1.8h8.6c0.4,0,0.6,0.6,0.6,1.8s-0.2,1.8-0.6,1.8H20.9z M20.9,45.2c-0.4,0-0.6-0.6-0.6-1.8
			c0-1.2,0.2-1.8,0.6-1.8h8.6c0.4,0,0.6,0.6,0.6,1.8c0,1.2-0.2,1.8-0.6,1.8H20.9z M20.9,35.4c-0.4,0-0.6-0.6-0.6-1.8
			c0-1.2,0.2-1.8,0.6-1.8h8.6c0.4,0,0.6,0.6,0.6,1.8c0,1.2-0.2,1.8-0.6,1.8H20.9z M30.6,25.6c-0.4,0-0.6-0.6-0.6-1.8
			c0-1.2,0.2-1.8,0.6-1.8H49c0.4,0,0.6,0.6,0.6,1.8c0,1.2-0.2,1.8-0.6,1.8H30.6z M45.3,30.5c-0.4,0-0.6-0.6-0.6-1.8
			c0-1.2,0.2-1.8,0.6-1.8h8.6c0.4,0,0.6,0.6,0.6,1.8c0,1.2-0.2,1.8-0.6,1.8H45.3z M25.8,30.5c-0.4,0-0.6-0.6-0.6-1.8
			c0-1.2,0.2-1.8,0.6-1.8h8.6c0.4,0,0.6,0.6,0.6,1.8c0,1.2-0.2,1.8-0.6,1.8H25.8z"/>
	</defs>
	<clipPath id="SVGID_6_">
		<use xlink:href="#SVGID_5_"  style="overflow:visible;"/>
	</clipPath>
	<rect x="-5" y="-5" class="st2" width="660" height="90"/>
</g>
</svg>
