<?xml version="1.0" encoding="utf-8"?>
<!-- Generator: Adobe Illustrator 18.1.1, SVG Export Plug-In . SVG Version: 6.00 Build 0)  -->
<svg version="1.1" id="Layer_1" xmlns="http://www.w3.org/2000/svg" xmlns:xlink="http://www.w3.org/1999/xlink" x="0px" y="0px"
	 viewBox="-154 161 90 80" enable-background="new -154 161 90 80" xml:space="preserve">
<g>
	<g>
		<path fill="none" stroke="#E64C3B" stroke-width="3" stroke-linecap="round" stroke-linejoin="round" stroke-miterlimit="10" d="
			M-93.4,225.5h8c2.1,0,3.8,1.7,3.8,3.8v4.8c0,2.1-1.7,3.8-3.8,3.8H-137c-2.1,0-3.8-1.7-3.8-3.8v-4.8c0-2.1,1.7-3.8,16.9-3.8h23.6"
			/>
		
			<line fill="none" stroke="#E64C3B" stroke-width="3" stroke-linecap="round" stroke-linejoin="round" stroke-miterlimit="10" x1="-111.6" y1="200.5" x2="-127.9" y2="217"/>
		<path fill="none" stroke="#E64C3B" stroke-width="3" stroke-linecap="round" stroke-linejoin="round" stroke-miterlimit="10" d="
			M-89.9,225.5c0,0,3.6-35.3-26.1-42.7c-0.6,3.9-3.8,7-7.7,7.4c1.1,7.5,1.6,20-5.4,28.3c-2.6,3.2-4.4,5.2-5.4,6.4"/>
		
			<circle fill="none" stroke="#E64C3B" stroke-width="3" stroke-linecap="round" stroke-linejoin="round" stroke-miterlimit="10" cx="-124.5" cy="181.6" r="8.5"/>
	</g>
	
		<circle fill="none" stroke="#E64C3B" stroke-width="3" stroke-linecap="round" stroke-linejoin="round" stroke-miterlimit="10" cx="-142.7" cy="205.8" r="6.4"/>
	
		<circle fill="none" stroke="#E64C3B" stroke-width="3" stroke-linecap="round" stroke-linejoin="round" stroke-miterlimit="10" cx="-74.1" cy="187.6" r="5.1"/>
	
		<circle fill="none" stroke="#E64C3B" stroke-width="3" stroke-linecap="round" stroke-linejoin="round" stroke-miterlimit="10" cx="-98.7" cy="168.9" r="4.7"/>
</g>
</svg>
