<?xml version="1.0" encoding="UTF-8" standalone="no"?>
<svg width="800px" height="730px" viewBox="0 0 800 730" version="1.1" xmlns="http://www.w3.org/2000/svg" xmlns:xlink="http://www.w3.org/1999/xlink">
    <!-- Generator: Sketch 47.1 (45422) - http://www.bohemiancoding.com/sketch -->
    <title>outline</title>
    <desc>Created with Sketch.</desc>
    <defs></defs>
    <g id="Page-1" stroke="none" stroke-width="1" fill="none" fill-rule="evenodd">
        <g id="outline" fill="#333333">
            <g id="Group-2" transform="translate(174.000000, 211.000000)">
                <text id="THE" font-family="TofinoPersonal-Regular, Tofino Personal" font-size="50" font-weight="normal">
                    <tspan x="0" y="77">THE </tspan>
                </text>
                <text id="ANNUAL" font-family="TofinoPersonal-Regular, Tofino Personal" font-size="50" font-weight="normal">
                    <tspan x="254" y="77">ANNUAL</tspan>
                </text>
                <g id="Group" transform="translate(135.000000, 0.000000)">
                    <text id="5" font-family="TofinoPersonal-Bold, Tofino Personal" font-size="80" font-weight="bold">
                        <tspan x="0" y="85">5</tspan>
                    </text>
                    <text id="TH" font-family="TofinoPersonal-Ultra, Tofino Personal" font-size="25" font-weight="600">
                        <tspan x="53" y="47">TH</tspan>
                    </text>
                </g>
            </g>
            <path d="M37.688,5.878 L37.688,28.51 L18.336,28.51 L18.336,5.878 L4.396,5.878 L4.396,65 L18.336,65 L18.336,41.466 L37.688,41.466 L37.688,65 L51.71,65 L51.71,5.878 L37.688,5.878 Z M83.936,66.312 C67.208,66.312 61.632,57.21 61.632,42.696 C61.632,28.1 67.208,18.916 83.936,18.916 C100.664,18.916 106.24,28.1 106.24,42.696 C106.24,57.21 100.664,66.312 83.936,66.312 Z M83.854,55.898 C90.332,55.898 92.464,52.29 92.464,42.696 C92.464,33.184 90.332,29.33 83.854,29.33 C77.458,29.33 75.244,33.184 75.244,42.696 C75.244,52.29 77.458,55.898 83.854,55.898 Z M115.424,65 L128.872,65 L128.872,2.68 L115.424,2.68 L115.424,65 Z M179.794,64.918 L168.642,64.918 L167.494,60.408 C164.87,63.852 160.606,66.066 153.8,66.066 C142.074,66.066 137.482,61.72 137.482,51.962 C137.482,38.104 148.962,37.858 165.772,37.94 C165.69,31.38 165.034,28.592 159.048,28.592 C153.308,28.592 151.586,31.954 151.586,34.496 L139.532,34.496 C139.532,29.248 141.09,19.244 158.474,19.244 C178.974,19.244 179.22,28.592 179.22,42.86 L179.22,52.782 L179.794,64.918 Z M156.916,57.456 C160.36,57.456 164.132,56.062 165.772,51.798 L165.772,45.648 C155.932,45.648 150.52,46.222 150.52,52.208 C150.52,55.242 152.406,57.456 156.916,57.456 Z M197.506,77.054 C197.506,77.054 200.704,73.118 203.082,65 C205.214,57.62 205.378,53.356 205.378,53.356 L192.258,53.356 C192.258,53.356 192.176,56.554 190.7,64.016 C189.224,71.15 186.518,77.054 186.518,77.054 L197.506,77.054 Z M259.58,22.114 L246.132,22.114 L246.132,33.266 L259.58,33.266 L259.58,22.114 Z M246.624,37.694 L246.542,39.006 C246.214,50.158 233.176,51.47 233.176,67.05 C233.176,76.398 237.686,84.024 252.528,84.024 C266.632,84.024 272.29,76.644 272.29,62.13 L258.842,62.13 C258.842,68.526 257.94,72.216 252.856,72.216 C247.69,72.216 246.788,68.936 246.788,65.41 C246.788,55.734 259.006,54.422 259.006,39.006 L259.006,37.694 L246.624,37.694 Z M300.744,66.312 C315.258,66.312 320.998,59.916 321.736,48.682 L308.37,48.682 C308.206,53.52 305.254,55.816 300.744,55.816 C294.512,55.816 292.298,52.208 292.298,42.614 C292.298,33.102 294.512,29.412 300.744,29.412 C305.418,29.412 308.206,31.954 308.452,37.694 L321.654,37.694 C321.08,25.722 315.586,18.998 300.744,18.998 C283.77,18.998 278.686,27.69 278.686,42.614 C278.686,57.62 283.77,66.312 300.744,66.312 Z M344.532,14.898 L356.258,14.898 L365.77,0.548 L351.83,0.548 L344.532,14.898 Z M350.846,66.312 C334.118,66.312 328.542,57.21 328.542,42.696 C328.542,28.1 334.118,18.916 350.846,18.916 C367.574,18.916 373.15,28.1 373.15,42.696 C373.15,57.21 367.574,66.312 350.846,66.312 Z M350.764,55.898 C357.242,55.898 359.374,52.29 359.374,42.696 C359.374,33.184 357.242,29.33 350.764,29.33 C344.368,29.33 342.154,33.184 342.154,42.696 C342.154,52.29 344.368,55.898 350.764,55.898 Z M435.388,18.998 C427.762,18.998 423.006,24 421.366,26.378 C419.234,21.048 415.052,18.998 408.574,18.998 C400.62,18.998 395.782,24.492 394.306,26.706 L392.83,20.228 L381.678,20.228 L382.252,32.692 L382.252,65 L395.7,65 L395.7,37.366 C396.93,34.824 399.718,30.642 404.884,30.642 C410.132,30.642 410.378,34.578 410.378,39.498 L410.296,65 L422.924,65 L423.006,38.186 L423.006,36.464 C424.4,33.922 427.188,30.642 431.78,30.642 C436.946,30.642 437.192,34.578 437.192,39.498 L437.11,65 L450.066,65 L450.148,38.186 C450.148,23.836 445.392,18.998 435.388,18.998 Z M481.226,66.312 C464.498,66.312 458.922,57.21 458.922,42.696 C458.922,28.1 464.498,18.916 481.226,18.916 C497.954,18.916 503.53,28.1 503.53,42.696 C503.53,57.21 497.954,66.312 481.226,66.312 Z M481.144,55.898 C487.622,55.898 489.754,52.29 489.754,42.696 C489.754,33.184 487.622,29.33 481.144,29.33 C474.748,29.33 472.534,33.184 472.534,42.696 C472.534,52.29 474.748,55.898 481.144,55.898 Z M548.63,56.636 C554.698,56.636 556.666,53.192 556.83,50.322 L570.36,50.322 C570.36,58.112 564.948,66.312 548.712,66.312 C531.984,66.312 526.818,57.702 526.818,42.778 C526.818,27.772 531.984,18.916 548.712,18.916 C564.948,18.916 570.524,27.608 570.524,45.566 L540.512,45.566 C540.922,53.684 543.218,56.636 548.63,56.636 Z M548.63,28.264 C543.71,28.264 541.414,30.724 540.676,37.284 L556.83,37.284 C555.846,30.724 553.386,28.264 548.63,28.264 Z M577.412,49.994 C577.412,61.31 583.89,66.312 597.338,66.312 C611.606,66.312 618.002,61.31 618.002,52.126 C618.002,33.43 591.27,41.138 591.27,32.2 C591.27,30.396 592.746,28.346 597.584,28.346 C602.75,28.346 604.8,30.396 604.8,33.758 L616.772,33.758 C616.772,24.082 610.868,18.998 597.256,18.998 C584.464,18.998 578.068,24.082 578.068,32.282 C578.068,51.88 604.554,43.762 604.554,53.028 C604.554,55.488 601.93,56.964 597.174,56.964 C592.746,56.964 589.384,55.324 589.384,49.994 L577.412,49.994 Z M647.194,54.832 C643.75,54.832 641.864,53.356 641.864,45.976 L641.864,30.396 L651.54,30.396 L651.54,20.228 L641.864,20.228 L641.864,6.534 L628.498,8.748 L628.498,20.228 L622.676,20.228 L622.676,30.396 L628.498,30.396 L628.498,46.14 C628.498,57.046 630.138,65.574 645.554,65.574 L652.032,65.574 L652.032,54.832 L647.194,54.832 Z M694.918,0.548 L680.978,0.548 L673.68,14.898 L685.406,14.898 L694.918,0.548 Z M700.33,64.918 L689.178,64.918 L688.03,60.408 C685.406,63.852 681.142,66.066 674.336,66.066 C662.61,66.066 658.018,61.72 658.018,51.962 C658.018,38.104 669.498,37.858 686.308,37.94 C686.226,31.38 685.57,28.592 679.584,28.592 C673.844,28.592 672.122,31.954 672.122,34.496 L660.068,34.496 C660.068,29.248 661.626,19.244 679.01,19.244 C699.51,19.244 699.756,28.592 699.756,42.86 L699.756,52.782 L700.33,64.918 Z M677.452,57.456 C680.896,57.456 684.668,56.062 686.308,51.798 L686.308,45.648 C676.468,45.648 671.056,46.222 671.056,52.208 C671.056,55.242 672.942,57.456 677.452,57.456 Z M708.202,49.994 C708.202,61.31 714.68,66.312 728.128,66.312 C742.396,66.312 748.792,61.31 748.792,52.126 C748.792,33.43 722.06,41.138 722.06,32.2 C722.06,30.396 723.536,28.346 728.374,28.346 C733.54,28.346 735.59,30.396 735.59,33.758 L747.562,33.758 C747.562,24.082 741.658,18.998 728.046,18.998 C715.254,18.998 708.858,24.082 708.858,32.282 C708.858,51.88 735.344,43.762 735.344,53.028 C735.344,55.488 732.72,56.964 727.964,56.964 C723.536,56.964 720.174,55.324 720.174,49.994 L708.202,49.994 Z M780.034,49.42 L780.116,48.108 C780.444,36.956 793.482,35.644 793.482,20.064 C793.482,10.716 788.972,3.09 774.13,3.09 C760.026,3.09 754.368,10.47 754.368,24.984 L767.816,24.984 C767.816,18.588 768.718,14.898 773.884,14.898 C778.968,14.898 779.87,18.178 779.87,21.704 C779.87,31.38 767.652,32.692 767.652,48.108 L767.652,49.42 L780.034,49.42 Z M767.16,65 L780.608,65 L780.608,53.848 L767.16,53.848 L767.16,65 Z" id="Hola,-¿cómo-estás?"></path>
            <path d="M58.754,121.296 L48.436,160.692 L37.046,121.296 L30.011,121.296 L19.425,160.223 L8.973,121.296 L1.335,121.296 L15.941,169 L22.708,169 L33.428,131.145 L44.349,169 L51.518,169 L65.99,121.296 L58.754,121.296 Z M83.812,164.712 C90.981,164.712 92.991,160.223 93.058,157.811 L99.758,157.811 C99.758,162.233 96.542,169.871 83.812,169.871 C71.685,169.871 67.598,163.037 67.598,151.111 C67.598,139.185 71.685,132.016 83.812,132.016 C95.202,132.016 100.026,138.515 100.026,151.848 L74.365,151.848 C74.499,160.022 76.576,164.712 83.812,164.712 Z M83.812,137.108 C77.648,137.108 75.236,140.793 74.566,146.957 L93.259,146.957 C92.455,140.458 89.708,137.108 83.812,137.108 Z M161.13,132.887 L153.492,160.357 L145.653,132.887 L139.154,132.887 L131.784,160.625 L124.079,132.82 L117.379,132.82 L128.568,169 L134.531,169 L142.035,142.401 L150.142,169 L156.105,169 L167.495,132.887 L161.13,132.887 Z M186.858,169.871 C174.195,169.871 170.309,162.367 170.309,151.044 C170.309,139.721 174.195,132.016 186.858,132.016 C199.521,132.016 203.474,139.721 203.474,151.044 C203.474,162.367 199.521,169.871 186.858,169.871 Z M186.791,164.444 C194.228,164.444 196.573,160.022 196.573,151.044 C196.573,142.133 194.228,137.443 186.791,137.443 C179.421,137.443 177.076,142.133 177.076,151.044 C177.076,160.022 179.421,164.444 186.791,164.444 Z M243.004,169 L242.401,159.017 L242.401,132.887 L235.701,132.887 L235.701,155.868 C234.696,158.28 231.614,163.908 225.249,163.908 C219.286,163.908 218.013,159.955 218.013,153.791 L218.08,132.887 L211.447,132.887 L211.313,154.863 C211.313,165.985 215.467,169.871 224.043,169.871 C231.078,169.871 235.031,164.645 236.237,162.367 L237.309,169 L243.004,169 Z M252.719,169 L259.419,169 L259.419,118.08 L252.719,118.08 L252.719,169 Z M301.629,169 L296.001,169 L295.13,163.908 C293.053,167.124 289.368,169.67 282.802,169.67 C272.35,169.67 268.397,162.702 268.397,151.044 C268.397,139.319 272.35,132.217 282.802,132.217 C288.765,132.217 292.584,135.165 294.393,137.242 L294.393,118.08 L301.093,118.08 L301.093,159.218 L301.629,169 Z M284.075,164.243 C290.708,164.243 293.522,160.089 294.393,156.806 L294.393,144.679 C293.187,142.2 290.038,137.644 284.075,137.644 C277.978,137.644 275.231,142.401 275.231,151.044 C275.231,159.687 277.978,164.243 284.075,164.243 Z M325.95,169 L332.65,169 L332.65,118.08 L325.95,118.08 L325.95,169 Z M342.901,127.125 L349.601,127.125 L349.601,118.08 L342.901,118.08 L342.901,127.125 Z M342.767,169 L349.467,169 L349.467,132.887 L342.767,132.887 L342.767,169 Z M382.967,169 L390.538,169 L375.262,147.627 L388.729,132.887 L380.823,132.887 L366.485,149.905 L366.485,118.08 L359.785,118.08 L359.785,169 L366.485,169 L366.485,157.141 L370.974,152.25 L382.967,169 Z M409.231,164.712 C416.4,164.712 418.41,160.223 418.477,157.811 L425.177,157.811 C425.177,162.233 421.961,169.871 409.231,169.871 C397.104,169.871 393.017,163.037 393.017,151.111 C393.017,139.185 397.104,132.016 409.231,132.016 C420.621,132.016 425.445,138.515 425.445,151.848 L399.784,151.848 C399.918,160.022 401.995,164.712 409.231,164.712 Z M409.231,137.108 C403.067,137.108 400.655,140.793 399.985,146.957 L418.678,146.957 C417.874,140.458 415.127,137.108 409.231,137.108 Z M461.357,163.774 C457.069,163.774 455.863,161.228 455.863,155.064 L455.863,138.314 L464.707,138.314 L464.707,132.887 L455.863,132.887 L455.863,121.698 L449.163,122.971 L449.163,132.887 L444.54,132.887 L444.54,138.314 L449.163,138.314 L449.163,155.064 C449.163,162.702 450.168,169.201 460.486,169.201 L465.109,169.201 L465.109,163.774 L461.357,163.774 Z M486.281,169.871 C473.618,169.871 469.732,162.367 469.732,151.044 C469.732,139.721 473.618,132.016 486.281,132.016 C498.944,132.016 502.897,139.721 502.897,151.044 C502.897,162.367 498.944,169.871 486.281,169.871 Z M486.214,164.444 C493.651,164.444 495.996,160.022 495.996,151.044 C495.996,142.133 493.651,137.443 486.214,137.443 C478.844,137.443 476.499,142.133 476.499,151.044 C476.499,160.022 478.844,164.444 486.214,164.444 Z M554.822,168.933 L549.194,168.933 L548.39,164.377 C546.112,167.66 542.092,169.737 535.928,169.737 C526.95,169.737 523.466,166.119 523.466,158.883 C523.466,147.426 533.784,147.761 547.519,147.828 C547.452,140.19 546.782,137.242 539.68,137.242 C532.511,137.242 531.104,141.262 531.104,143.875 L525.074,143.875 C525.074,139.721 526.548,132.217 539.412,132.217 C554.487,132.217 554.219,139.922 554.219,151.111 L554.219,159.62 L554.822,168.933 Z M537.268,165.047 C542.092,165.047 546.112,162.903 547.519,158.481 L547.519,152.25 C536.464,152.183 529.831,152.116 529.831,159.017 C529.831,162.568 531.707,165.047 537.268,165.047 Z M582.56,132.083 C575.994,132.083 572.108,136.505 570.567,138.984 L569.562,132.887 L563.934,132.887 L564.47,142.602 L564.47,169 L571.17,169 L571.17,145.081 C572.51,142.401 575.592,138.046 581.287,138.046 C587.25,138.046 588.657,141.932 588.657,148.096 L588.523,169 L595.223,169 L595.357,147.493 C595.357,135.902 591.538,132.083 582.56,132.083 Z M623.832,132.083 C617.266,132.083 613.38,136.505 611.839,138.984 L610.834,132.887 L605.206,132.887 L605.742,142.602 L605.742,169 L612.442,169 L612.442,145.081 C613.782,142.401 616.864,138.046 622.559,138.046 C628.522,138.046 629.929,141.932 629.929,148.096 L629.795,169 L636.495,169 L636.629,147.493 C636.629,135.902 632.81,132.083 623.832,132.083 Z M661.687,169.871 C649.024,169.871 645.138,162.367 645.138,151.044 C645.138,139.721 649.024,132.016 661.687,132.016 C674.35,132.016 678.303,139.721 678.303,151.044 C678.303,162.367 674.35,169.871 661.687,169.871 Z M661.62,164.444 C669.057,164.444 671.402,160.022 671.402,151.044 C671.402,142.133 669.057,137.443 661.62,137.443 C654.25,137.443 651.905,142.133 651.905,151.044 C651.905,160.022 654.25,164.444 661.62,164.444 Z M717.833,169 L717.23,159.017 L717.23,132.887 L710.53,132.887 L710.53,155.868 C709.525,158.28 706.443,163.908 700.078,163.908 C694.115,163.908 692.842,159.955 692.842,153.791 L692.909,132.887 L686.276,132.887 L686.142,154.863 C686.142,165.985 690.296,169.871 698.872,169.871 C705.907,169.871 709.86,164.645 711.066,162.367 L712.138,169 L717.833,169 Z M741.886,169.871 C752.338,169.871 757.095,164.779 757.43,156.873 L750.73,156.873 C750.663,161.563 747.313,164.377 741.886,164.377 C734.784,164.377 732.372,159.955 732.372,150.977 C732.372,142.133 734.784,137.51 741.886,137.51 C747.447,137.51 750.663,140.525 750.797,146.153 L757.363,146.153 C757.095,137.443 752.606,132.083 741.886,132.083 C729.357,132.083 725.605,139.587 725.605,150.977 C725.605,162.434 729.357,169.871 741.886,169.871 Z M780.344,164.712 C787.513,164.712 789.523,160.223 789.59,157.811 L796.29,157.811 C796.29,162.233 793.074,169.871 780.344,169.871 C768.217,169.871 764.13,163.037 764.13,151.111 C764.13,139.185 768.217,132.016 780.344,132.016 C791.734,132.016 796.558,138.515 796.558,151.848 L770.897,151.848 C771.031,160.022 773.108,164.712 780.344,164.712 Z M780.344,137.108 C774.18,137.108 771.768,140.793 771.098,146.957 L789.791,146.957 C788.987,140.458 786.24,137.108 780.344,137.108 Z" id="We-would-like-to-ann"></path>
            <path d="M16.486,589.365 L33.218,589.365 C57.782,589.365 62.232,599.066 57.515,621.405 C52.887,643.744 45.678,653.267 19.868,653.267 L3.136,653.267 L16.486,589.365 Z M48.17,621.405 C52.264,602.003 49.594,597.464 31.705,597.464 L24.051,597.464 L14.261,644.901 L21.826,644.901 C38.024,645.079 44.165,640.362 48.17,621.405 Z M107.8,630.216 L74.514,630.216 C72.289,641.074 72.912,647.304 82.969,647.304 C91.513,647.304 96.052,641.341 96.853,638.137 L105.842,638.137 C104.596,644.011 98.722,654.157 81.634,654.157 C66.949,654.157 62.232,645.079 65.614,629.237 C68.907,613.395 75.671,603.872 92.047,603.872 C105.842,603.872 111.449,612.505 107.8,630.216 Z M90.623,610.636 C83.325,610.636 78.786,615.531 76.116,623.719 L100.146,623.719 C101.036,615.086 98.9,610.636 90.623,610.636 Z M133.076,654.157 C147.316,654.157 154.347,647.393 156.928,636.891 L148.028,636.891 C146.604,643.121 140.819,646.859 134.678,646.859 C124.71,646.859 123.642,640.985 126.045,629.059 C128.448,617.311 133.699,611.17 142.065,611.17 C149.986,611.17 152.478,615.175 151.143,622.651 L159.865,622.651 C161.912,611.081 156.394,603.961 143.578,603.961 C126.579,603.961 120.171,613.929 116.967,629.059 C113.852,644.278 117.857,654.157 133.076,654.157 Z M209.527,630.216 L176.241,630.216 C174.016,641.074 174.639,647.304 184.696,647.304 C193.24,647.304 197.779,641.341 198.58,638.137 L207.569,638.137 C206.323,644.011 200.449,654.157 183.361,654.157 C168.676,654.157 163.959,645.079 167.341,629.237 C170.634,613.395 177.398,603.872 193.774,603.872 C207.569,603.872 213.176,612.505 209.527,630.216 Z M192.35,610.636 C185.052,610.636 180.513,615.531 177.843,623.719 L201.873,623.719 C202.763,615.086 200.627,610.636 192.35,610.636 Z M279.481,603.961 C271.115,603.961 264.707,610.191 262.126,613.395 C261.503,606.453 257.32,603.961 249.933,603.961 C241.656,603.961 235.248,610.28 232.667,613.484 L233.112,605.029 L225.636,605.029 L223.589,617.934 L216.291,653 L225.191,653 L231.599,622.117 C233.824,618.735 239.253,611.882 246.551,611.882 C254.027,611.882 254.294,617.044 252.514,625.232 L246.729,653 L255.184,653 L261.147,624.431 C261.414,623.274 261.592,622.206 261.77,621.138 C264.262,617.489 269.335,611.882 276.099,611.882 C283.664,611.882 283.842,617.044 282.062,625.232 L276.277,653 L284.91,653 L290.962,624.431 C294.077,609.034 289.983,603.961 279.481,603.961 Z M333.326,604.139 C346.32,604.139 350.147,613.573 346.943,629.148 C343.739,644.634 336.619,653.89 323.002,653.89 C314.547,653.89 310.453,650.508 308.584,646.414 L306.092,653 L298.616,653 L301.998,640.006 L313.39,585.36 L322.29,585.36 L316.861,611.437 C319.887,608.5 325.672,604.139 333.326,604.139 Z M337.776,629.148 C340.179,617.667 338.132,611.348 330.122,611.348 C322.468,611.348 317.306,617.133 314.992,620.426 L311.521,637.069 C311.788,641.341 314.28,646.681 322.735,646.681 C330.478,646.681 335.462,640.629 337.776,629.148 Z M398.563,630.216 L365.277,630.216 C363.052,641.074 363.675,647.304 373.732,647.304 C382.276,647.304 386.815,641.341 387.616,638.137 L396.605,638.137 C395.359,644.011 389.485,654.157 372.397,654.157 C357.712,654.157 352.995,645.079 356.377,629.237 C359.67,613.395 366.434,603.872 382.81,603.872 C396.605,603.872 402.212,612.505 398.563,630.216 Z M381.386,610.636 C374.088,610.636 369.549,615.531 366.879,623.719 L390.909,623.719 C391.799,615.086 389.663,610.636 381.386,610.636 Z M422.148,605.029 L414.672,605.029 L412.447,618.824 L405.327,653 L414.227,653 L419.834,626.3 C420.724,623.897 425.619,612.149 438.88,612.149 L440.571,603.872 C429.001,603.872 423.572,610.903 421.525,614.463 L422.148,605.029 Z M454.366,652.822 L456.146,644.634 C456.146,644.545 466.292,637.514 476.794,628.97 C485.961,621.583 493.526,616.065 495.217,607.966 C496.819,600.312 493.615,596.93 486.495,596.93 C479.642,596.93 474.48,600.401 472.789,608.144 L463.444,608.144 C466.114,595.15 474.213,588.831 488.275,588.831 C500.735,588.831 507.143,594.972 504.473,607.877 C502.248,618.29 494.683,624.965 486.05,632.263 C477.061,639.828 468.339,645.257 468.339,645.257 L496.552,644.99 L494.861,652.822 L454.366,652.822 Z M551.198,590.7 L542.476,632.352 L550.041,632.352 L548.35,640.451 L540.785,640.451 L538.204,653 L529.126,653 L531.796,640.451 L502.07,640.451 L503.761,632.352 L541.853,590.7 L551.198,590.7 Z M513.907,632.352 L533.576,632.352 L539.717,603.516 L513.907,632.352 Z M555.648,663.858 L547.816,663.858 C547.816,663.858 551.554,658.429 554.402,651.754 C557.25,645.079 557.873,641.786 557.873,641.786 L567.04,641.786 C567.04,641.786 566.15,645.702 562.946,652.377 C559.564,659.497 555.648,663.858 555.648,663.858 Z M592.85,652.822 L633.345,652.822 L635.036,644.99 L606.823,645.257 C606.823,645.257 615.545,639.828 624.534,632.263 C633.167,624.965 640.732,618.29 642.957,607.877 C645.627,594.972 639.219,588.831 626.759,588.831 C612.697,588.831 604.598,595.15 601.928,608.144 L611.273,608.144 C612.964,600.401 618.126,596.93 624.979,596.93 C632.099,596.93 635.303,600.312 633.701,607.966 C632.01,616.065 624.445,621.583 615.278,628.97 C604.776,637.514 594.63,644.545 594.63,644.634 L592.85,652.822 Z M665.83,653.979 C648.386,653.979 644.559,643.655 649.009,622.117 C653.637,599.511 660.757,589.009 679.269,589.009 C696.713,589.009 700.54,599.511 695.823,622.117 C691.373,643.655 684.342,653.979 665.83,653.979 Z M667.432,645.88 C677.133,645.88 683.007,639.561 686.567,622.117 C690.394,603.694 688.792,597.108 677.578,597.108 C667.966,597.108 662.181,603.694 658.265,622.117 C654.616,639.561 656.307,645.88 667.432,645.88 Z M720.921,589.632 L705.702,596.307 L703.833,604.851 L717.183,598.888 L717.272,598.621 L705.969,653 L715.136,653 L728.308,589.632 L720.921,589.632 Z M742.459,653 C748.422,624.609 776.279,598.977 776.279,598.977 L778.059,590.878 L736.407,590.878 L734.716,598.977 L765.421,598.977 C765.421,598.977 738.721,623.452 732.58,653 L742.459,653 Z" id="December-24,-2017"></path>
            <path d="M263.596,708.599 L258.737,708.599 L256.931,717.629 L261.575,717.629 L261.575,719.779 L256.501,719.779 L254.738,728.68 L252.072,728.68 L253.835,719.779 L246.181,719.779 L244.418,728.68 L241.752,728.68 L243.515,719.779 L239,719.779 L239,717.629 L243.945,717.629 L245.751,708.599 L241.021,708.599 L241.021,706.449 L246.181,706.449 L247.772,698.494 L250.438,698.494 L248.847,706.449 L256.501,706.449 L258.092,698.494 L260.758,698.494 L259.167,706.449 L263.596,706.449 L263.596,708.599 Z M254.265,717.629 L256.071,708.599 L248.417,708.599 L246.611,717.629 L254.265,717.629 Z M290.084,700.859 L290.084,698.236 L271.121,698.236 L271.121,728.68 L274.045,728.68 L274.045,714.791 L287.934,714.791 L287.934,712.168 L274.045,712.168 L274.045,700.859 L290.084,700.859 Z M301.436,726.917 C306.811,726.917 308.23,723.434 308.273,721.757 L311.154,721.757 C311.154,723.95 309.52,729.153 301.436,729.153 C294.126,729.153 291.503,725.025 291.503,717.285 C291.503,709.545 294.126,705.202 301.436,705.202 C308.058,705.202 311.326,708.814 311.326,717.027 L294.427,717.027 L294.427,717.328 C294.427,722.918 295.674,726.917 301.436,726.917 Z M301.436,707.395 C296.577,707.395 294.9,710.534 294.513,714.877 L308.445,714.877 C308.015,710.19 306.037,707.395 301.436,707.395 Z M317.217,728.68 L320.055,728.68 L320.055,696 L317.217,696 L317.217,728.68 Z M327.193,701.332 L330.031,701.332 L330.031,696.043 L327.193,696.043 L327.193,701.332 Z M327.15,728.68 L329.988,728.68 L329.988,705.675 L327.15,705.675 L327.15,728.68 Z M334.89,705.89 L334.89,708.212 L348.435,708.169 L334.46,725.67 L334.46,728.465 L351.273,728.465 L351.273,726.1 L337.341,726.143 L351.273,708.685 L351.273,705.89 L334.89,705.89 Z M374.665,728.68 L377.976,728.68 L365.936,711.867 L377.589,698.236 L374.106,698.236 L359.271,716.167 L359.271,698.236 L356.347,698.236 L356.347,728.68 L359.271,728.68 L359.271,719.65 L364.13,713.974 L374.665,728.68 Z M398.874,728.637 L396.423,728.637 L395.95,725.197 C394.574,727.605 391.908,729.11 387.565,729.11 C381.889,729.11 379.739,726.788 379.739,722.359 C379.739,715.092 386.447,715.522 395.606,715.565 C395.563,709.717 395.133,707.481 389.715,707.481 C384.254,707.481 383.351,710.534 383.351,712.512 L380.728,712.512 C380.728,709.889 381.674,705.288 389.586,705.288 C398.831,705.288 398.444,710.233 398.444,717.285 L398.444,722.875 L398.874,728.637 Z M388.038,727.046 C392.037,727.046 394.832,725.24 395.606,722.101 L395.606,717.543 C387.479,717.5 382.491,717.156 382.491,722.445 C382.491,725.197 383.824,727.046 388.038,727.046 Z M405.496,728.68 L408.334,728.68 L408.334,696 L405.496,696 L405.496,728.68 Z M415.472,701.332 L418.31,701.332 L418.31,696.043 L415.472,696.043 L415.472,701.332 Z M415.429,728.68 L418.267,728.68 L418.267,705.675 L415.429,705.675 L415.429,728.68 Z M440.283,728.68 L443.508,728.68 L433.575,714.791 L442.218,705.675 L438.821,705.675 L428.243,717.371 L428.243,696 L425.405,696 L425.405,728.68 L428.243,728.68 L428.243,720.467 L431.726,716.769 L440.283,728.68 Z M447.034,701.332 L449.872,701.332 L449.872,696.043 L447.034,696.043 L447.034,701.332 Z M446.991,728.68 L449.829,728.68 L449.829,705.675 L446.991,705.675 L446.991,728.68 Z M482.036,705.245 C477.736,705.245 475.242,708.47 474.253,710.19 C473.264,706.535 470.899,705.245 467.201,705.245 C463.03,705.245 460.536,708.298 459.547,710.061 L458.988,705.675 L456.537,705.675 L456.924,711.738 L456.924,728.68 L459.762,728.68 L459.762,712.985 C460.622,711.179 462.815,707.782 466.771,707.782 C470.942,707.782 472.06,710.405 472.06,715.221 L472.06,728.68 L474.769,728.68 L474.769,715.006 C474.769,714.189 474.726,713.415 474.683,712.727 C475.629,710.878 477.779,707.782 481.606,707.782 C485.82,707.782 486.938,710.405 486.938,715.221 L486.938,728.68 L489.69,728.68 L489.733,715.006 C489.733,707.61 487.11,705.245 482.036,705.245 Z M514.501,728.637 L512.05,728.637 L511.577,725.197 C510.201,727.605 507.535,729.11 503.192,729.11 C497.516,729.11 495.366,726.788 495.366,722.359 C495.366,715.092 502.074,715.522 511.233,715.565 C511.19,709.717 510.76,707.481 505.342,707.481 C499.881,707.481 498.978,710.534 498.978,712.512 L496.355,712.512 C496.355,709.889 497.301,705.288 505.213,705.288 C514.458,705.288 514.071,710.233 514.071,717.285 L514.071,722.875 L514.501,728.637 Z M503.665,727.046 C507.664,727.046 510.459,725.24 511.233,722.101 L511.233,717.543 C503.106,717.5 498.118,717.156 498.118,722.445 C498.118,725.197 499.451,727.046 503.665,727.046 Z M536.001,728.68 L539.226,728.68 L529.293,714.791 L537.936,705.675 L534.539,705.675 L523.961,717.371 L523.961,696 L521.123,696 L521.123,728.68 L523.961,728.68 L523.961,720.467 L527.444,716.769 L536.001,728.68 Z M560.468,728.637 L558.017,728.637 L557.544,725.197 C556.168,727.605 553.502,729.11 549.159,729.11 C543.483,729.11 541.333,726.788 541.333,722.359 C541.333,715.092 548.041,715.522 557.2,715.565 C557.157,709.717 556.727,707.481 551.309,707.481 C545.848,707.481 544.945,710.534 544.945,712.512 L542.322,712.512 C542.322,709.889 543.268,705.288 551.18,705.288 C560.425,705.288 560.038,710.233 560.038,717.285 L560.038,722.875 L560.468,728.637 Z M549.632,727.046 C553.631,727.046 556.426,725.24 557.2,722.101 L557.2,717.543 C549.073,717.5 544.085,717.156 544.085,722.445 C544.085,725.197 545.418,727.046 549.632,727.046 Z" id="#FelizKalikimaka"></path>
            <path d="M7.319,397.483 C34.197,397.483 36.689,389.74 36.689,366.778 L36.511,332.958 L17.821,332.958 L17.91,366.778 C17.91,379.683 15.685,381.285 7.319,381.285 L1,381.285 L1,397.483 L7.319,397.483 Z M76.603,399.352 C57.557,399.352 48.212,390.719 48.212,365.265 C48.212,339.811 57.557,331.089 76.603,331.089 C95.649,331.089 104.994,339.811 104.994,365.265 C104.994,390.719 95.649,399.352 76.603,399.352 Z M76.603,383.243 C83.367,383.243 85.859,379.772 85.859,365.265 C85.859,350.669 83.367,347.198 76.603,347.198 C69.75,347.198 67.258,350.669 67.258,365.265 C67.258,379.772 69.75,383.243 76.603,383.243 Z M151.316,332.958 L151.316,356.187 L135.029,356.187 L135.029,332.958 L116.339,332.958 L116.339,397.483 L135.029,397.483 L135.029,373.186 L151.316,373.186 L151.316,397.483 L170.095,397.483 L170.095,332.958 L151.316,332.958 Z M223.359,332.958 L223.804,371.406 L202.978,332.958 L183.665,332.958 L183.665,397.483 L198.973,397.483 L198.973,359.658 L219.443,397.483 L238.845,397.483 L238.845,332.958 L223.359,332.958 Z M249.478,376.034 C249.478,392.677 257.043,399.352 276.712,399.352 C296.915,399.352 304.302,392.143 304.302,378.526 C304.302,352.627 269.503,361.972 269.503,351.025 C269.503,347.91 271.995,345.596 277.335,345.596 C282.319,345.596 285.434,348.177 285.434,353.161 L302.967,353.161 C302.967,337.853 295.758,331 276.623,331 C257.933,331 250.635,338.387 250.635,350.402 C250.635,379.416 285.078,367.579 285.078,379.327 C285.078,382.798 281.874,384.756 276,384.756 C271.283,384.756 267.278,382.62 267.278,376.034 L249.478,376.034 Z M341.368,399.352 C322.322,399.352 312.977,390.719 312.977,365.265 C312.977,339.811 322.322,331.089 341.368,331.089 C360.414,331.089 369.759,339.811 369.759,365.265 C369.759,390.719 360.414,399.352 341.368,399.352 Z M341.368,383.243 C348.132,383.243 350.624,379.772 350.624,365.265 C350.624,350.669 348.132,347.198 341.368,347.198 C334.515,347.198 332.023,350.669 332.023,365.265 C332.023,379.772 334.515,383.243 341.368,383.243 Z M420.798,332.958 L421.243,371.406 L400.417,332.958 L381.104,332.958 L381.104,397.483 L396.412,397.483 L396.412,359.658 L416.882,397.483 L436.284,397.483 L436.284,332.958 L420.798,332.958 Z M512.73,348.444 L487.81,348.444 L487.81,360.281 L508.28,360.281 L508.28,374.521 L487.81,374.521 L487.81,397.483 L469.12,397.483 L469.12,332.958 L512.73,332.958 L512.73,348.444 Z M553.267,397.483 L550.597,386.714 L532.263,386.714 L529.326,397.483 L509.924,397.483 L533.598,332.958 L551.131,332.958 L574.182,397.483 L553.267,397.483 Z M536.001,372.741 L547.215,372.741 L541.875,351.025 L536.001,372.741 Z M653.879,332.958 L631.451,332.958 L618.012,375.856 L605.018,332.958 L581.967,332.958 L581.967,397.483 L596.919,397.483 L596.385,358.59 L608.578,397.661 L624.687,397.661 L638.215,357.433 L637.592,397.483 L653.701,397.483 L653.879,332.958 Z M667.449,397.483 L686.139,397.483 L686.139,332.958 L667.449,332.958 L667.449,397.483 Z M718.399,380.751 L738.869,380.751 L738.869,397.483 L699.709,397.483 L699.709,332.958 L718.399,332.958 L718.399,380.751 Z M797.74,332.958 L776.291,374.877 L776.291,397.483 L757.601,397.483 L757.601,374.788 L735.974,332.958 L757.156,332.958 L767.925,359.658 L778.338,332.958 L797.74,332.958 Z M39.9415,511.688 C59.7865,511.688 71.3365,503.498 71.4415,478.718 L49.7065,478.718 C49.1815,490.163 45.9265,492.683 39.9415,492.683 C32.3815,492.683 29.3365,488.693 29.3365,471.473 C29.3365,454.148 32.3815,450.158 39.9415,450.158 C46.0315,450.158 49.1815,452.678 49.7065,463.493 L71.4415,463.493 C71.3365,439.238 59.5765,431.153 39.9415,431.153 C17.8915,431.153 6.8665,441.443 6.8665,471.473 C6.8665,501.503 17.8915,511.688 39.9415,511.688 Z M114.9165,511.688 C92.4465,511.688 81.4215,501.503 81.4215,471.473 C81.4215,441.443 92.4465,431.153 114.9165,431.153 C137.3865,431.153 148.4115,441.443 148.4115,471.473 C148.4115,501.503 137.3865,511.688 114.9165,511.688 Z M114.9165,492.683 C122.8965,492.683 125.8365,488.588 125.8365,471.473 C125.8365,454.253 122.8965,450.158 114.9165,450.158 C106.8315,450.158 103.8915,454.253 103.8915,471.473 C103.8915,488.588 106.8315,492.683 114.9165,492.683 Z M192.4115,511.688 C169.9415,511.688 158.9165,501.503 158.9165,471.473 C158.9165,441.443 169.9415,431.153 192.4115,431.153 C214.8815,431.153 225.9065,441.443 225.9065,471.473 C225.9065,501.503 214.8815,511.688 192.4115,511.688 Z M192.4115,492.683 C200.3915,492.683 203.3315,488.588 203.3315,471.473 C203.3315,454.253 200.3915,450.158 192.4115,450.158 C184.3265,450.158 181.3865,454.253 181.3865,471.473 C181.3865,488.588 184.3265,492.683 192.4115,492.683 Z M283.1365,509.483 L308.6515,509.483 L280.3015,467.273 L307.4965,433.358 L283.0315,433.358 L260.9815,465.698 L260.9815,433.358 L238.9315,433.358 L238.9315,509.483 L260.9815,509.483 L260.9815,491.423 L267.2815,483.548 L283.1365,509.483 Z M317.4765,509.483 L339.5265,509.483 L339.5265,433.358 L317.4765,433.358 L317.4765,509.483 Z M377.2265,491.213 L377.2265,479.138 L404.0015,479.138 L404.0015,462.758 L377.2265,462.758 L377.2265,451.628 L409.2515,451.628 L409.2515,433.358 L355.1765,433.358 L355.1765,509.483 L410.0915,509.483 L410.0915,491.213 L377.2265,491.213 Z M444.9615,433.253 L471.2115,433.253 C500.8215,433.253 508.5915,437.873 508.5915,460.553 C508.5915,483.233 500.9265,487.853 470.5815,487.853 L467.0115,487.853 L466.9065,509.483 L444.9615,509.483 L444.9615,433.253 Z M467.0115,470.213 L470.5815,470.213 C482.3415,470.213 487.0665,469.688 487.0665,460.343 C487.0665,450.998 482.3415,450.578 470.5815,450.578 L467.1165,450.578 L467.0115,470.213 Z M555.9515,509.483 L552.8015,496.778 L531.1715,496.778 L527.7065,509.483 L504.8165,509.483 L532.7465,433.358 L553.4315,433.358 L580.6265,509.483 L555.9515,509.483 Z M535.5815,480.293 L548.8115,480.293 L542.5115,454.673 L535.5815,480.293 Z M656.4415,509.483 L631.8715,509.483 L622.3165,485.753 C620.1115,485.858 617.6965,485.858 615.1765,485.858 L611.5015,485.858 L611.5015,509.483 L589.4515,509.483 L589.4515,433.358 L615.9115,433.358 C646.4665,433.358 652.8715,437.978 652.8715,459.608 C652.8715,471.998 650.7715,478.718 643.1065,482.288 L656.4415,509.483 Z M611.5015,468.848 L615.1765,468.848 C627.0415,468.848 631.2415,468.533 631.2415,459.503 C631.2415,450.368 627.0415,450.053 615.1765,450.053 L611.5015,450.053 L611.5015,468.848 Z M718.9215,433.358 L660.3315,433.358 L660.3315,453.098 L678.6015,453.098 L678.4965,509.483 L700.5465,509.483 L700.6515,453.098 L718.9215,453.098 L718.9215,433.358 Z M794.9465,433.358 L772.0565,433.358 L759.7715,464.858 L747.0665,433.358 L722.0765,433.358 L747.5915,482.708 L747.5915,509.483 L769.6415,509.483 L769.6415,482.813 L794.9465,433.358 Z" id="well-and-in-great-sp"></path>
            <polygon id="Star-Copy-4" points="31 280 13.3664424 289.27051 16.7341523 269.635255 2.46830451 255.72949 22.1832212 252.864745 31 235 39.8167788 252.864745 59.5316955 255.72949 45.2658477 269.635255 48.6335576 289.27051"></polygon>
            <polygon id="Star-Copy-6" points="108 272.5 99.1832212 277.135255 100.867076 267.317627 93.7341523 260.364745 103.591611 258.932373 108 250 112.408389 258.932373 122.265848 260.364745 115.132924 267.317627 116.816779 277.135255"></polygon>
            <polygon id="Star-Copy-7" points="692 272.5 683.183221 277.135255 684.867076 267.317627 677.734152 260.364745 687.591611 258.932373 692 250 696.408389 258.932373 706.265848 260.364745 699.132924 267.317627 700.816779 277.135255"></polygon>
            <polygon id="Star-Copy-5" points="769 280 751.366442 289.27051 754.734152 269.635255 740.468305 255.72949 760.183221 252.864745 769 235 777.816779 252.864745 797.531695 255.72949 783.265848 269.635255 786.633558 289.27051"></polygon>
            <rect id="Rectangle" x="0" y="197" width="800" height="6"></rect>
            <rect id="Rectangle-Copy" x="0" y="544" width="800" height="6"></rect>
        </g>
    </g>
</svg>