<?xml version="1.0" encoding="UTF-8" standalone="no"?>
<svg width="799px" height="893px" viewBox="0 0 799 893" version="1.1" xmlns="http://www.w3.org/2000/svg" xmlns:xlink="http://www.w3.org/1999/xlink">
    <!-- Generator: Sketch 47.1 (45422) - http://www.bohemiancoding.com/sketch -->
    <title>Group</title>
    <desc>Created with Sketch.</desc>
    <defs></defs>
    <g id="Page-1" stroke="none" stroke-width="1" fill="none" fill-rule="evenodd">
        <g id="Artboard" transform="translate(0.000000, -26.000000)" fill="#333333">
            <g id="Group" transform="translate(0.000000, 26.000000)">
                <path d="M50.332,201.048 L42.7,229.128 L34.924,201.048 L26.932,201.048 L19.66,229.128 L12.1,200.976 L3.676,200.976 L15.772,240 L22.972,240 L30.46,212.784 L38.668,240 L45.868,240 L58.252,201.048 L50.332,201.048 Z M78.7,234.6 C85.828,234.6 87.844,230.28 87.988,227.76 L96.34,227.76 C96.34,233.016 92.452,241.008 78.772,241.008 C65.38,241.008 60.916,233.448 60.916,220.704 C60.916,207.888 65.38,200.112 78.772,200.112 C91.588,200.112 96.628,207.456 96.628,222.072 L69.412,222.072 C69.628,230.352 71.86,234.6 78.7,234.6 Z M78.7,206.304 C72.796,206.304 70.348,209.688 69.628,216.024 L88.132,216.024 C87.196,209.544 84.46,206.304 78.7,206.304 Z M105.7,240 L114.052,240 L114.052,185.28 L105.7,185.28 L105.7,240 Z M125.428,240 L133.78,240 L133.78,185.28 L125.428,185.28 L125.428,240 Z M192.1,239.928 L185.116,239.928 L184.18,235.248 C181.732,238.632 177.556,240.792 171.148,240.792 C161.428,240.792 157.54,236.976 157.54,228.984 C157.54,216.6 168.556,216.744 183.1,216.816 C183.028,209.4 182.236,206.448 175.324,206.448 C168.34,206.448 166.756,210.48 166.756,213.072 L159.268,213.072 C159.268,208.608 160.852,200.328 174.964,200.328 C191.524,200.328 191.452,208.536 191.452,220.704 L191.452,229.776 L192.1,239.928 Z M172.876,235.032 C177.556,235.032 181.66,232.944 183.1,228.264 L183.1,222.288 C172.012,222.288 165.46,222.36 165.46,229.2 C165.46,232.584 167.332,235.032 172.876,235.032 Z M222.484,200.184 C215.5,200.184 211.324,204.792 209.668,207.312 L208.588,201.048 L201.604,201.048 L202.108,211.704 L202.108,240 L210.46,240 L210.46,214.8 C211.828,212.064 214.996,207.528 220.828,207.528 C226.732,207.528 227.956,211.56 227.956,217.536 L227.884,240 L236.236,240 L236.308,216.744 C236.308,204.288 232.276,200.184 222.484,200.184 Z M281.884,240 L274.9,240 L273.964,235.032 C271.732,238.2 267.772,240.72 261.004,240.72 C249.628,240.72 245.236,233.376 245.236,220.56 C245.236,207.816 249.628,200.328 261.004,200.328 C266.98,200.328 270.94,203.136 272.956,205.224 L272.956,185.28 L281.308,185.28 L281.308,229.344 L281.884,240 Z M262.588,234.024 C269.14,234.024 271.948,230.064 272.956,226.752 L272.956,214.08 C271.588,211.344 268.492,207.024 262.588,207.024 C256.468,207.024 253.732,211.776 253.732,220.56 C253.732,229.416 256.468,234.024 262.588,234.024 Z M306.868,195.288 L315.22,195.288 L315.22,185.28 L306.868,185.28 L306.868,195.288 Z M306.58,240 L314.932,240 L314.932,201.048 L306.58,201.048 L306.58,240 Z M345.892,200.184 C338.908,200.184 334.732,204.792 333.076,207.312 L331.996,201.048 L325.012,201.048 L325.516,211.704 L325.516,240 L333.868,240 L333.868,214.8 C335.236,212.064 338.404,207.528 344.236,207.528 C350.14,207.528 351.364,211.56 351.364,217.536 L351.292,240 L359.644,240 L359.716,216.744 C359.716,204.288 355.684,200.184 345.892,200.184 Z M413.068,201.048 L420.052,201.048 L419.62,212.28 L419.62,240.144 C419.62,247.632 419.62,257.28 401.26,257.28 C384.34,257.28 385.42,243.888 385.42,243.888 L393.196,243.888 C393.196,244.536 392.836,250.944 401.908,250.944 C410.836,250.944 411.268,246.192 411.268,240.144 L411.268,236.112 C408.892,238.776 405.148,240.72 399.172,240.72 C387.796,240.72 383.404,233.376 383.404,220.56 C383.404,207.816 387.796,200.328 399.172,200.328 C406.3,200.328 410.476,204.864 412.06,207.096 L413.068,201.048 Z M400.756,234.024 C407.668,234.024 410.404,229.632 411.268,226.176 L411.268,214.224 C409.972,211.632 406.876,207.024 400.756,207.024 C394.636,207.024 391.9,211.776 391.9,220.56 C391.9,229.416 394.636,234.024 400.756,234.024 Z M436.54,201.048 L429.556,201.048 L430.06,212.352 L430.06,240 L438.412,240 L438.412,218.4 C438.988,215.736 441.436,207.888 451.66,207.888 L451.66,200.112 C442.084,200.112 438.772,205.584 437.692,208.392 L436.54,201.048 Z M473.404,234.6 C480.532,234.6 482.548,230.28 482.692,227.76 L491.044,227.76 C491.044,233.016 487.156,241.008 473.476,241.008 C460.084,241.008 455.62,233.448 455.62,220.704 C455.62,207.888 460.084,200.112 473.476,200.112 C486.292,200.112 491.332,207.456 491.332,222.072 L464.116,222.072 C464.332,230.352 466.564,234.6 473.404,234.6 Z M473.404,206.304 C467.5,206.304 465.052,209.688 464.332,216.024 L482.836,216.024 C481.9,209.544 479.164,206.304 473.404,206.304 Z M532.588,239.928 L525.604,239.928 L524.668,235.248 C522.22,238.632 518.044,240.792 511.636,240.792 C501.916,240.792 498.028,236.976 498.028,228.984 C498.028,216.6 509.044,216.744 523.588,216.816 C523.516,209.4 522.724,206.448 515.812,206.448 C508.828,206.448 507.244,210.48 507.244,213.072 L499.756,213.072 C499.756,208.608 501.34,200.328 515.452,200.328 C532.012,200.328 531.94,208.536 531.94,220.704 L531.94,229.776 L532.588,239.928 Z M513.364,235.032 C518.044,235.032 522.148,232.944 523.588,228.264 L523.588,222.288 C512.5,222.288 505.948,222.36 505.948,229.2 C505.948,232.584 507.82,235.032 513.364,235.032 Z M557.644,233.52 C553.612,233.52 552.172,231.36 552.172,224.736 L552.172,207.744 L561.46,207.744 L561.46,201.048 L552.172,201.048 L552.172,189.096 L543.82,190.608 L543.82,201.048 L538.852,201.048 L538.852,207.744 L543.82,207.744 L543.82,224.736 C543.82,233.088 545.044,240.288 556.564,240.288 L561.892,240.288 L561.892,233.52 L557.644,233.52 Z M582.556,227.328 C582.556,236.904 588.46,240.936 599.044,240.936 C610.564,241.008 615.964,236.904 615.964,229.272 C615.964,213.36 591.7,220.416 591.7,211.2 C591.7,208.968 593.284,206.448 599.26,206.448 C605.38,206.52 607.396,209.04 607.396,212.496 L614.884,212.496 C614.884,204.432 609.916,200.184 599.044,200.184 C588.604,200.112 583.348,204.432 583.348,211.2 C583.348,227.832 607.468,220.2 607.468,229.848 C607.468,232.656 604.948,234.672 598.972,234.672 C593.428,234.6 590.044,232.512 590.044,227.328 L582.556,227.328 Z M644.692,200.328 C656.068,200.328 660.46,207.816 660.46,220.56 C660.46,233.376 656.068,240.72 644.692,240.72 C638.788,240.72 635.044,238.776 632.668,236.184 L632.668,257.28 L624.316,257.28 L624.316,211.992 L623.812,201.048 L630.796,201.048 L631.876,207.168 C633.46,204.864 637.636,200.328 644.692,200.328 Z M643.108,234.024 C649.228,234.024 651.892,229.416 651.892,220.56 C651.892,211.776 649.228,207.024 643.108,207.024 C637.132,207.024 633.964,211.56 632.668,214.224 L632.668,226.464 C633.604,229.848 636.34,234.024 643.108,234.024 Z M668.956,195.288 L677.308,195.288 L677.308,185.28 L668.956,185.28 L668.956,195.288 Z M668.668,240 L677.02,240 L677.02,201.048 L668.668,201.048 L668.668,240 Z M694.084,201.048 L687.1,201.048 L687.604,212.352 L687.604,240 L695.956,240 L695.956,218.4 C696.532,215.736 698.98,207.888 709.204,207.888 L709.204,200.112 C699.628,200.112 696.316,205.584 695.236,208.392 L694.084,201.048 Z M716.044,195.288 L724.396,195.288 L724.396,185.28 L716.044,185.28 L716.044,195.288 Z M715.756,240 L724.108,240 L724.108,201.048 L715.756,201.048 L715.756,240 Z M750.1,233.52 C746.068,233.52 744.628,231.36 744.628,224.736 L744.628,207.744 L753.916,207.744 L753.916,201.048 L744.628,201.048 L744.628,189.096 L736.276,190.608 L736.276,201.048 L731.308,201.048 L731.308,207.744 L736.276,207.744 L736.276,224.736 C736.276,233.088 737.5,240.288 749.02,240.288 L754.348,240.288 L754.348,233.52 L750.1,233.52 Z M760.252,227.328 C760.252,236.904 766.156,240.936 776.74,240.936 C788.26,241.008 793.66,236.904 793.66,229.272 C793.66,213.36 769.396,220.416 769.396,211.2 C769.396,208.968 770.98,206.448 776.956,206.448 C783.076,206.52 785.092,209.04 785.092,212.496 L792.58,212.496 C792.58,204.432 787.612,200.184 776.74,200.184 C766.3,200.112 761.044,204.432 761.044,211.2 C761.044,227.832 785.164,220.2 785.164,229.848 C785.164,232.656 782.644,234.672 776.668,234.672 C771.124,234.6 767.74,232.512 767.74,227.328 L760.252,227.328 Z M8.8365,293.214 L11.8395,293.214 L11.8395,282.931 L8.8365,282.931 L8.8365,293.214 Z M8.8365,352 L11.8395,352 L11.8395,303.679 L8.8365,303.679 L8.8365,352 Z M41.4145,349.361 C32.4965,349.361 31.5865,343.082 31.5865,334.801 L31.5865,306.318 L45.0545,306.318 L45.0545,303.679 L31.5865,303.679 L31.5865,288.209 L28.5835,289.028 L28.5835,303.679 L22.4865,303.679 L22.4865,306.318 L28.5835,306.318 L28.5835,334.801 C28.5835,344.083 29.4025,352.091 41.2325,352.091 L45.4185,352.091 L45.4185,349.361 L41.4145,349.361 Z M74.6295,293.214 L77.6325,293.214 L77.6325,282.931 L74.6295,282.931 L74.6295,293.214 Z M74.6295,352 L77.6325,352 L77.6325,303.679 L74.6295,303.679 L74.6295,352 Z M89.6445,337.44 C89.6445,347.905 96.4695,352.637 108.4815,352.819 C121.8585,353.001 127.4095,348.087 127.4095,339.806 C127.4095,320.059 93.8305,331.434 93.8305,315.418 C93.8305,310.504 96.8335,305.226 108.8455,305.408 C120.3115,305.59 123.3145,310.686 123.3145,317.238 L126.1355,317.238 C126.1355,307.956 120.7665,303.042 108.7545,302.86 C96.3785,302.678 90.7365,307.774 90.7365,315.418 C91.0095,334.528 124.4975,322.789 124.3155,339.897 C124.2245,345.812 120.4935,350.362 108.4815,350.18 C97.7435,350.089 92.5565,345.63 92.5565,337.44 L89.6445,337.44 Z M213.5865,303.679 L200.0275,348.724 L185.9225,303.679 L182.8285,303.679 L169.3605,348.906 L155.2555,303.588 L152.0705,303.588 L167.4495,352 L171.1805,352 L184.2845,308.411 L198.1165,352 L201.8475,352 L216.6805,303.679 L213.5865,303.679 Z M225.4165,293.214 L228.4195,293.214 L228.4195,282.931 L225.4165,282.931 L225.4165,293.214 Z M225.4165,352 L228.4195,352 L228.4195,303.679 L225.4165,303.679 L225.4165,352 Z M257.9945,349.361 C249.0765,349.361 248.1665,343.082 248.1665,334.801 L248.1665,306.318 L261.6345,306.318 L261.6345,303.679 L248.1665,303.679 L248.1665,288.209 L245.1635,289.028 L245.1635,303.679 L239.0665,303.679 L239.0665,306.318 L245.1635,306.318 L245.1635,334.801 C245.1635,344.083 245.9825,352.091 257.8125,352.091 L261.9985,352.091 L261.9985,349.361 L257.9945,349.361 Z M290.9365,302.86 C281.5635,302.86 276.1035,309.23 273.7375,313.325 L273.7375,282.84 L270.7345,282.84 L270.7345,352 L273.7375,352 L273.7375,317.602 C275.8305,313.416 281.0175,305.59 290.6635,305.59 C301.2195,305.59 304.4955,311.596 304.4955,323.426 L304.4955,352 L307.4985,352 L307.4985,323.335 C307.4985,307.774 302.0385,302.86 290.9365,302.86 Z M377.6595,303.679 L380.3895,303.679 L379.5705,315.509 L379.5705,352 C379.5705,363.011 378.5695,373.84 360.0055,373.84 C340.9865,373.84 342.2605,357.187 342.2605,357.187 L345.1725,357.096 C345.1725,357.187 344.2625,371.292 360.0965,371.292 C375.7485,371.292 376.5675,362.192 376.5675,352 L376.5675,342.991 C374.1105,347.905 368.9235,352.728 358.8225,352.728 C345.3545,352.728 340.3495,342.718 340.3495,328.067 C340.3495,313.325 345.3545,302.86 358.8225,302.86 C369.2875,302.86 375.0205,309.412 376.8405,312.506 L377.6595,303.679 Z M359.0955,350.089 C370.3795,350.089 375.2935,342.718 376.5675,337.531 L376.5675,316.419 C375.0205,313.416 369.7425,305.499 359.0955,305.499 C348.3575,305.499 343.4435,314.144 343.4435,328.067 C343.4435,341.99 348.3575,350.089 359.0955,350.089 Z M397.0425,303.679 L394.3125,303.679 L395.2225,317.056 L395.2225,352 L398.2255,352 L398.2255,320.332 C398.9535,316.965 402.5025,305.59 415.6065,305.59 L415.6065,302.86 C403.1395,302.86 399.1355,311.687 398.0435,315.236 L397.0425,303.679 Z M440.3585,350.271 C453.3715,350.271 456.7385,341.717 456.7385,337.986 L459.8325,337.986 C459.8325,341.262 457.3755,352.91 440.3585,352.91 C425.7985,352.91 420.4295,344.629 420.4295,328.067 C420.4295,311.596 425.7985,302.86 440.3585,302.86 C452.9165,302.86 460.2875,309.412 460.2875,325.974 L423.5235,325.974 L423.5235,328.158 C423.5235,340.17 426.2535,350.271 440.3585,350.271 Z M440.3585,305.408 C428.2555,305.408 424.5245,313.598 423.7055,323.426 L457.0115,323.426 C456.4655,312.597 452.0065,305.408 440.3585,305.408 Z M508.6085,351.909 L505.8785,351.909 L504.9685,343.264 C502.5115,349.088 496.5055,352.819 486.3135,352.819 C474.4835,352.819 470.2065,347.905 470.2065,338.987 C470.2065,323.79 484.5845,325.246 504.6045,325.337 C504.5135,310.959 503.6945,305.408 490.3175,305.408 C477.1225,305.408 475.1205,312.87 475.1205,317.693 L472.2995,317.693 C472.2995,312.142 474.2105,302.86 490.3175,302.86 C508.8815,302.86 507.6075,313.416 507.6075,327.976 L507.6075,340.079 L508.6085,351.909 Z M486.5865,350.362 C496.6875,350.362 503.0575,345.721 504.6045,338.987 L504.6045,327.612 C485.4035,327.612 473.2095,326.247 473.2095,339.078 C473.2095,345.903 476.3945,350.362 486.5865,350.362 Z M536.8185,349.361 C527.9005,349.361 526.9905,343.082 526.9905,334.801 L526.9905,306.318 L540.4585,306.318 L540.4585,303.679 L526.9905,303.679 L526.9905,288.209 L523.9875,289.028 L523.9875,303.679 L517.8905,303.679 L517.8905,306.318 L523.9875,306.318 L523.9875,334.801 C523.9875,344.083 524.8065,352.091 536.6365,352.091 L540.8225,352.091 L540.8225,349.361 L536.8185,349.361 Z M589.5985,302.86 C580.2255,302.86 574.7655,309.23 572.3995,313.325 L572.3995,282.84 L569.3965,282.84 L569.3965,352 L572.3995,352 L572.3995,317.602 C574.4925,313.416 579.6795,305.59 589.3255,305.59 C599.8815,305.59 603.1575,311.596 603.1575,323.426 L603.1575,352 L606.1605,352 L606.1605,323.335 C606.1605,307.774 600.7005,302.86 589.5985,302.86 Z M639.3755,352.91 C623.3595,352.91 619.1735,342.718 619.1735,327.976 C619.1735,313.234 623.3595,302.86 639.3755,302.769 C655.3005,302.678 659.5775,313.234 659.5775,327.976 C659.5775,342.718 655.3005,352.91 639.3755,352.91 Z M639.2845,350.271 C652.3885,350.271 656.3925,342.081 656.3925,327.976 C656.3925,313.871 652.3885,305.408 639.2845,305.408 C626.2715,305.408 622.2675,313.871 622.2675,327.976 C622.2675,342.081 626.2715,350.271 639.2845,350.271 Z M693.1565,302.86 C683.5105,302.86 678.0505,309.594 675.7755,313.78 L674.8655,303.679 L672.1355,303.679 L673.0455,316.055 L673.0455,352 L676.0485,352 L676.0485,317.42 C678.1415,313.234 683.3285,305.59 692.8835,305.59 C703.4395,305.59 706.7155,311.596 706.7155,323.426 L706.7155,352 L709.7185,352 L709.7185,323.335 C709.7185,307.774 704.2585,302.86 693.1565,302.86 Z M742.9335,352.91 C726.9175,352.91 722.7315,342.718 722.7315,327.976 C722.7315,313.234 726.9175,302.86 742.9335,302.769 C758.8585,302.678 763.1355,313.234 763.1355,327.976 C763.1355,342.718 758.8585,352.91 742.9335,352.91 Z M742.8425,350.271 C755.9465,350.271 759.9505,342.081 759.9505,327.976 C759.9505,313.871 755.9465,305.408 742.8425,305.408 C729.8295,305.408 725.8255,313.871 725.8255,327.976 C725.8255,342.081 729.8295,350.271 742.8425,350.271 Z M778.4235,303.679 L775.6935,303.679 L776.6035,317.056 L776.6035,352 L779.6065,352 L779.6065,320.332 C780.3345,316.965 783.8835,305.59 796.9875,305.59 L796.9875,302.86 C784.5205,302.86 780.5165,311.687 779.4245,315.236 L778.4235,303.679 Z M8.6475,442.363 L68.3995,442.363 L68.3995,436.357 L8.6475,436.357 L8.6475,442.363 Z M96.2735,457.994 C91.3455,457.994 89.9595,455.068 89.9595,447.984 L89.9595,428.734 L100.1235,428.734 L100.1235,422.497 L89.9595,422.497 L89.9595,409.638 L82.2595,411.101 L82.2595,422.497 L76.9465,422.497 L76.9465,428.734 L82.2595,428.734 L82.2595,447.984 C82.2595,456.762 83.4145,464.231 95.2725,464.231 L100.5855,464.231 L100.5855,457.994 L96.2735,457.994 Z M129.6915,421.573 C122.6075,421.573 118.2185,425.962 116.2165,428.888 L116.2165,405.48 L108.5165,405.48 L108.5165,464 L116.2165,464 L116.2165,437.281 C117.5255,434.355 121.1445,428.426 128.2285,428.426 C135.0045,428.426 136.6215,432.892 136.6215,439.976 L136.5445,464 L144.2445,464 L144.3215,439.283 C144.3215,425.962 139.9325,421.573 129.6915,421.573 Z M189.8285,463.923 L183.3605,463.923 L182.4365,458.687 C179.8185,462.46 175.1985,464.847 168.1145,464.847 C157.7965,464.847 153.7925,460.689 153.7925,452.373 C153.7925,439.206 165.6505,439.591 181.4355,439.668 C181.3585,430.89 180.5885,427.502 172.4265,427.502 C164.1875,427.502 162.5705,432.122 162.5705,435.125 L155.6405,435.125 C155.6405,430.351 157.3345,421.727 172.1185,421.727 C189.4435,421.727 189.1355,430.582 189.1355,443.441 L189.1355,453.22 L189.8285,463.923 Z M169.6545,459.457 C175.1985,459.457 179.8185,456.993 181.4355,451.911 L181.4355,444.75 C168.7305,444.673 161.1075,444.596 161.1075,452.527 C161.1075,456.608 163.2635,459.457 169.6545,459.457 Z M216.0085,457.994 C211.0805,457.994 209.6945,455.068 209.6945,447.984 L209.6945,428.734 L219.8585,428.734 L219.8585,422.497 L209.6945,422.497 L209.6945,409.638 L201.9945,411.101 L201.9945,422.497 L196.6815,422.497 L196.6815,428.734 L201.9945,428.734 L201.9945,447.984 C201.9945,456.762 203.1495,464.231 215.0075,464.231 L220.3205,464.231 L220.3205,457.994 L216.0085,457.994 Z M289.2355,422.497 L280.4575,454.067 L271.4485,422.497 L263.9795,422.497 L255.5095,454.375 L246.6545,422.42 L238.9545,422.42 L251.8135,464 L258.6665,464 L267.2905,433.431 L276.6075,464 L283.4605,464 L296.5505,422.497 L289.2355,422.497 Z M318.4185,459.072 C326.6575,459.072 328.9675,453.913 329.0445,451.141 L336.7445,451.141 C336.7445,456.223 333.0485,465.001 318.4185,465.001 C304.4815,465.001 299.7845,457.147 299.7845,443.441 C299.7845,429.735 304.4815,421.496 318.4185,421.496 C331.5085,421.496 337.0525,428.965 337.0525,444.288 L307.5615,444.288 C307.7155,453.682 310.1025,459.072 318.4185,459.072 Z M318.4185,427.348 C311.3345,427.348 308.5625,431.583 307.7925,438.667 L329.2755,438.667 C328.3515,431.198 325.1945,427.348 318.4185,427.348 Z M396.4195,463.923 L389.9515,463.923 L389.0275,458.687 C386.4095,462.46 381.7895,464.847 374.7055,464.847 C364.3875,464.847 360.3835,460.689 360.3835,452.373 C360.3835,439.206 372.2415,439.591 388.0265,439.668 C387.9495,430.89 387.1795,427.502 379.0175,427.502 C370.7785,427.502 369.1615,432.122 369.1615,435.125 L362.2315,435.125 C362.2315,430.351 363.9255,421.727 378.7095,421.727 C396.0345,421.727 395.7265,430.582 395.7265,443.441 L395.7265,453.22 L396.4195,463.923 Z M376.2455,459.457 C381.7895,459.457 386.4095,456.993 388.0265,451.911 L388.0265,444.75 C375.3215,444.673 367.6985,444.596 367.6985,452.527 C367.6985,456.608 369.8545,459.457 376.2455,459.457 Z M428.2975,421.573 C420.7515,421.573 416.2855,426.655 414.5145,429.504 L413.3595,422.497 L406.8915,422.497 L407.5075,433.662 L407.5075,464 L415.2075,464 L415.2075,436.511 C416.7475,433.431 420.2895,428.426 426.8345,428.426 C433.6875,428.426 435.3045,432.892 435.3045,439.976 L435.1505,464 L442.8505,464 L443.0045,439.283 C443.0045,425.962 438.6155,421.573 428.2975,421.573 Z M475.7295,421.573 C468.1835,421.573 463.7175,426.655 461.9465,429.504 L460.7915,422.497 L454.3235,422.497 L454.9395,433.662 L454.9395,464 L462.6395,464 L462.6395,436.511 C464.1795,433.431 467.7215,428.426 474.2665,428.426 C481.1195,428.426 482.7365,432.892 482.7365,439.976 L482.5825,464 L490.2825,464 L490.4365,439.283 C490.4365,425.962 486.0475,421.573 475.7295,421.573 Z M519.2345,465.001 C504.6815,465.001 500.2155,456.377 500.2155,443.364 C500.2155,430.351 504.6815,421.496 519.2345,421.496 C533.7875,421.496 538.3305,430.351 538.3305,443.364 C538.3305,456.377 533.7875,465.001 519.2345,465.001 Z M519.1575,458.764 C527.7045,458.764 530.3995,453.682 530.3995,443.364 C530.3995,433.123 527.7045,427.733 519.1575,427.733 C510.6875,427.733 507.9925,433.123 507.9925,443.364 C507.9925,453.682 510.6875,458.764 519.1575,458.764 Z M583.7605,464 L583.0675,452.527 L583.0675,422.497 L575.3675,422.497 L575.3675,448.908 C574.2125,451.68 570.6705,458.148 563.3555,458.148 C556.5025,458.148 555.0395,453.605 555.0395,446.521 L555.1165,422.497 L547.4935,422.497 L547.3395,447.753 C547.3395,460.535 552.1135,465.001 561.9695,465.001 C570.0545,465.001 574.5975,458.995 575.9835,456.377 L577.2155,464 L583.7605,464 Z M615.6385,421.573 C608.0925,421.573 603.6265,426.655 601.8555,429.504 L600.7005,422.497 L594.2325,422.497 L594.8485,433.662 L594.8485,464 L602.5485,464 L602.5485,436.511 C604.0885,433.431 607.6305,428.426 614.1755,428.426 C621.0285,428.426 622.6455,432.892 622.6455,439.976 L622.4915,464 L630.1915,464 L630.3455,439.283 C630.3455,425.962 625.9565,421.573 615.6385,421.573 Z M658.8355,465.001 C670.8475,465.001 676.3145,459.149 676.6995,450.063 L668.9995,450.063 C668.9225,455.453 665.0725,458.687 658.8355,458.687 C650.6735,458.687 647.9015,453.605 647.9015,443.287 C647.9015,433.123 650.6735,427.81 658.8355,427.81 C665.2265,427.81 668.9225,431.275 669.0765,437.743 L676.6225,437.743 C676.3145,427.733 671.1555,421.573 658.8355,421.573 C644.4365,421.573 640.1245,430.197 640.1245,443.287 C640.1245,456.454 644.4365,465.001 658.8355,465.001 Z M703.0335,459.072 C711.2725,459.072 713.5825,453.913 713.6595,451.141 L721.3595,451.141 C721.3595,456.223 717.6635,465.001 703.0335,465.001 C689.0965,465.001 684.3995,457.147 684.3995,443.441 C684.3995,429.735 689.0965,421.496 703.0335,421.496 C716.1235,421.496 721.6675,428.965 721.6675,444.288 L692.1765,444.288 C692.3305,453.682 694.7175,459.072 703.0335,459.072 Z M703.0335,427.348 C695.9495,427.348 693.1775,431.583 692.4075,438.667 L713.8905,438.667 C712.9665,431.198 709.8095,427.348 703.0335,427.348 Z M731.6005,442.363 L791.3525,442.363 L791.3525,436.357 L731.6005,436.357 L731.6005,442.363 Z M7.565,576 C34.443,576 36.935,568.257 36.935,545.295 L36.757,511.475 L18.067,511.475 L18.156,545.295 C18.156,558.2 15.931,559.802 7.565,559.802 L1.246,559.802 L1.246,576 L7.565,576 Z M76.849,577.869 C57.803,577.869 48.458,569.236 48.458,543.782 C48.458,518.328 57.803,509.606 76.849,509.606 C95.895,509.606 105.24,518.328 105.24,543.782 C105.24,569.236 95.895,577.869 76.849,577.869 Z M76.849,561.76 C83.613,561.76 86.105,558.289 86.105,543.782 C86.105,529.186 83.613,525.715 76.849,525.715 C69.996,525.715 67.504,529.186 67.504,543.782 C67.504,558.289 69.996,561.76 76.849,561.76 Z M151.562,511.475 L151.562,534.704 L135.275,534.704 L135.275,511.475 L116.585,511.475 L116.585,576 L135.275,576 L135.275,551.703 L151.562,551.703 L151.562,576 L170.341,576 L170.341,511.475 L151.562,511.475 Z M223.605,511.475 L224.05,549.923 L203.224,511.475 L183.911,511.475 L183.911,576 L199.219,576 L199.219,538.175 L219.689,576 L239.091,576 L239.091,511.475 L223.605,511.475 Z M249.724,554.551 C249.724,571.194 257.289,577.869 276.958,577.869 C297.161,577.869 304.548,570.66 304.548,557.043 C304.548,531.144 269.749,540.489 269.749,529.542 C269.749,526.427 272.241,524.113 277.581,524.113 C282.565,524.113 285.68,526.694 285.68,531.678 L303.213,531.678 C303.213,516.37 296.004,509.517 276.869,509.517 C258.179,509.517 250.881,516.904 250.881,528.919 C250.881,557.933 285.324,546.096 285.324,557.844 C285.324,561.315 282.12,563.273 276.246,563.273 C271.529,563.273 267.524,561.137 267.524,554.551 L249.724,554.551 Z M341.614,577.869 C322.568,577.869 313.223,569.236 313.223,543.782 C313.223,518.328 322.568,509.606 341.614,509.606 C360.66,509.606 370.005,518.328 370.005,543.782 C370.005,569.236 360.66,577.869 341.614,577.869 Z M341.614,561.76 C348.378,561.76 350.87,558.289 350.87,543.782 C350.87,529.186 348.378,525.715 341.614,525.715 C334.761,525.715 332.269,529.186 332.269,543.782 C332.269,558.289 334.761,561.76 341.614,561.76 Z M421.044,511.475 L421.489,549.923 L400.663,511.475 L381.35,511.475 L381.35,576 L396.658,576 L396.658,538.175 L417.128,576 L436.53,576 L436.53,511.475 L421.044,511.475 Z M512.976,526.961 L488.056,526.961 L488.056,538.798 L508.526,538.798 L508.526,553.038 L488.056,553.038 L488.056,576 L469.366,576 L469.366,511.475 L512.976,511.475 L512.976,526.961 Z M553.513,576 L550.843,565.231 L532.509,565.231 L529.572,576 L510.17,576 L533.844,511.475 L551.377,511.475 L574.428,576 L553.513,576 Z M536.247,551.258 L547.461,551.258 L542.121,529.542 L536.247,551.258 Z M654.125,511.475 L631.697,511.475 L618.258,554.373 L605.264,511.475 L582.213,511.475 L582.213,576 L597.165,576 L596.631,537.107 L608.824,576.178 L624.933,576.178 L638.461,535.95 L637.838,576 L653.947,576 L654.125,511.475 Z M667.695,576 L686.385,576 L686.385,511.475 L667.695,511.475 L667.695,576 Z M718.645,559.268 L739.115,559.268 L739.115,576 L699.955,576 L699.955,511.475 L718.645,511.475 L718.645,559.268 Z M797.986,511.475 L776.537,553.394 L776.537,576 L757.847,576 L757.847,553.305 L736.22,511.475 L757.402,511.475 L768.171,538.175 L778.584,511.475 L797.986,511.475 Z M40.1875,690.205 C60.0325,690.205 71.5825,682.015 71.6875,657.235 L49.9525,657.235 C49.4275,668.68 46.1725,671.2 40.1875,671.2 C32.6275,671.2 29.5825,667.21 29.5825,649.99 C29.5825,632.665 32.6275,628.675 40.1875,628.675 C46.2775,628.675 49.4275,631.195 49.9525,642.01 L71.6875,642.01 C71.5825,617.755 59.8225,609.67 40.1875,609.67 C18.1375,609.67 7.1125,619.96 7.1125,649.99 C7.1125,680.02 18.1375,690.205 40.1875,690.205 Z M115.1625,690.205 C92.6925,690.205 81.6675,680.02 81.6675,649.99 C81.6675,619.96 92.6925,609.67 115.1625,609.67 C137.6325,609.67 148.6575,619.96 148.6575,649.99 C148.6575,680.02 137.6325,690.205 115.1625,690.205 Z M115.1625,671.2 C123.1425,671.2 126.0825,667.105 126.0825,649.99 C126.0825,632.77 123.1425,628.675 115.1625,628.675 C107.0775,628.675 104.1375,632.77 104.1375,649.99 C104.1375,667.105 107.0775,671.2 115.1625,671.2 Z M192.6575,690.205 C170.1875,690.205 159.1625,680.02 159.1625,649.99 C159.1625,619.96 170.1875,609.67 192.6575,609.67 C215.1275,609.67 226.1525,619.96 226.1525,649.99 C226.1525,680.02 215.1275,690.205 192.6575,690.205 Z M192.6575,671.2 C200.6375,671.2 203.5775,667.105 203.5775,649.99 C203.5775,632.77 200.6375,628.675 192.6575,628.675 C184.5725,628.675 181.6325,632.77 181.6325,649.99 C181.6325,667.105 184.5725,671.2 192.6575,671.2 Z M283.3825,688 L308.8975,688 L280.5475,645.79 L307.7425,611.875 L283.2775,611.875 L261.2275,644.215 L261.2275,611.875 L239.1775,611.875 L239.1775,688 L261.2275,688 L261.2275,669.94 L267.5275,662.065 L283.3825,688 Z M317.7225,688 L339.7725,688 L339.7725,611.875 L317.7225,611.875 L317.7225,688 Z M377.4725,669.73 L377.4725,657.655 L404.2475,657.655 L404.2475,641.275 L377.4725,641.275 L377.4725,630.145 L409.4975,630.145 L409.4975,611.875 L355.4225,611.875 L355.4225,688 L410.3375,688 L410.3375,669.73 L377.4725,669.73 Z M445.2075,611.77 L471.4575,611.77 C501.0675,611.77 508.8375,616.39 508.8375,639.07 C508.8375,661.75 501.1725,666.37 470.8275,666.37 L467.2575,666.37 L467.1525,688 L445.2075,688 L445.2075,611.77 Z M467.2575,648.73 L470.8275,648.73 C482.5875,648.73 487.3125,648.205 487.3125,638.86 C487.3125,629.515 482.5875,629.095 470.8275,629.095 L467.3625,629.095 L467.2575,648.73 Z M556.1975,688 L553.0475,675.295 L531.4175,675.295 L527.9525,688 L505.0625,688 L532.9925,611.875 L553.6775,611.875 L580.8725,688 L556.1975,688 Z M535.8275,658.81 L549.0575,658.81 L542.7575,633.19 L535.8275,658.81 Z M656.6875,688 L632.1175,688 L622.5625,664.27 C620.3575,664.375 617.9425,664.375 615.4225,664.375 L611.7475,664.375 L611.7475,688 L589.6975,688 L589.6975,611.875 L616.1575,611.875 C646.7125,611.875 653.1175,616.495 653.1175,638.125 C653.1175,650.515 651.0175,657.235 643.3525,660.805 L656.6875,688 Z M611.7475,647.365 L615.4225,647.365 C627.2875,647.365 631.4875,647.05 631.4875,638.02 C631.4875,628.885 627.2875,628.57 615.4225,628.57 L611.7475,628.57 L611.7475,647.365 Z M719.1675,611.875 L660.5775,611.875 L660.5775,631.615 L678.8475,631.615 L678.7425,688 L700.7925,688 L700.8975,631.615 L719.1675,631.615 L719.1675,611.875 Z M795.1925,611.875 L772.3025,611.875 L760.0175,643.375 L747.3125,611.875 L722.3225,611.875 L747.8375,661.225 L747.8375,688 L769.8875,688 L769.8875,661.33 L795.1925,611.875 Z" id="well-and-in-great-sp"></path>
                <path d="M55.043,747.13 L44.219,784.522 L33.067,747.13 L27.737,747.13 L17.159,784.686 L6.089,747.048 L0.513,747.048 L14.371,791 L19.619,791 L30.115,754.92 L41.349,791 L46.679,791 L60.373,747.13 L55.043,747.13 Z M67.343,738.848 L72.755,738.848 L72.755,728.762 L67.343,728.762 L67.343,738.848 Z M67.261,791 L72.673,791 L72.673,747.13 L67.261,747.13 L67.261,791 Z M86.285,791 L91.697,791 L91.697,728.68 L86.285,728.68 L86.285,791 Z M105.883,791 L111.295,791 L111.295,728.68 L105.883,728.68 L105.883,791 Z M163.365,746.392 C175.829,746.392 180.585,755.412 180.585,769.188 C180.585,782.964 175.829,791.738 163.365,791.738 C154.755,791.738 150.163,787.966 147.785,783.784 L146.801,791 L142.127,791 L142.865,779.52 L142.865,728.68 L148.277,728.68 L148.277,753.936 C150.327,751.066 155.247,746.392 163.365,746.392 Z M162.463,787.228 C171.073,787.228 175.009,780.832 175.009,769.188 C175.009,757.626 171.073,750.82 162.463,750.82 C154.017,750.82 149.753,757.052 148.277,760.004 L148.277,776.978 C149.343,781.324 153.279,787.228 162.463,787.228 Z M208.629,787.638 C218.879,787.638 221.585,780.996 221.667,777.798 L227.161,777.798 C227.161,781.98 224.045,791.902 208.629,791.902 C194.689,791.902 189.687,784.03 189.687,769.27 C189.687,754.51 194.689,746.228 208.629,746.228 C221.257,746.228 227.489,753.116 227.489,768.778 L195.263,768.778 L195.263,769.352 C195.263,780.012 197.641,787.638 208.629,787.638 Z M208.629,750.41 C199.363,750.41 196.165,756.396 195.427,764.678 L221.995,764.678 C221.175,755.74 217.403,750.41 208.629,750.41 Z M260.043,747.13 L255.369,747.13 L256.107,759.512 L256.107,791 L261.519,791 L261.519,764.022 C262.175,760.988 265.127,751.23 276.935,751.23 L276.935,746.228 C265.947,746.228 262.257,753.28 261.109,756.56 L260.043,747.13 Z M300.223,787.638 C310.473,787.638 313.179,780.996 313.261,777.798 L318.755,777.798 C318.755,781.98 315.639,791.902 300.223,791.902 C286.283,791.902 281.281,784.03 281.281,769.27 C281.281,754.51 286.283,746.228 300.223,746.228 C312.851,746.228 319.083,753.116 319.083,768.778 L286.857,768.778 L286.857,769.352 C286.857,780.012 289.235,787.638 300.223,787.638 Z M300.223,750.41 C290.957,750.41 287.759,756.396 287.021,764.678 L313.589,764.678 C312.769,755.74 308.997,750.41 300.223,750.41 Z M344.503,786.654 C337.861,786.654 336.713,782.226 336.713,774.764 L336.713,751.558 L348.193,751.558 L348.193,747.13 L336.713,747.13 L336.713,733.354 L331.301,734.42 L331.301,747.13 L325.725,747.13 L325.725,751.558 L331.301,751.558 L331.301,774.764 C331.301,783.538 332.285,791.164 343.929,791.164 L348.603,791.164 L348.603,786.654 L344.503,786.654 Z M392.719,791 L391.981,778.864 L391.981,747.13 L386.569,747.13 L386.569,775.83 C385.421,778.618 381.239,787.064 372.301,787.064 C363.855,787.064 361.559,781.898 361.559,772.796 L361.641,747.13 L356.229,747.13 L356.147,773.534 C356.147,787.31 361.231,791.902 371.399,791.902 C380.583,791.902 385.503,784.604 386.897,781.652 L388.045,791 L392.719,791 Z M409.201,747.13 L404.527,747.13 L405.265,759.512 L405.265,791 L410.677,791 L410.677,764.022 C411.333,760.988 414.285,751.23 426.093,751.23 L426.093,746.228 C415.105,746.228 411.415,753.28 410.267,756.56 L409.201,747.13 Z M455.121,746.31 C446.839,746.31 442.001,752.05 439.951,755.412 L438.967,747.13 L434.293,747.13 L435.031,758.692 L435.031,791 L440.443,791 L440.443,760.742 C442.247,757.216 446.511,751.148 454.219,751.148 C462.665,751.148 465.043,756.15 465.043,765.334 L464.961,791 L470.373,791 L470.455,764.924 C470.455,750.82 465.617,746.31 455.121,746.31 Z M483.411,738.848 L488.823,738.848 L488.823,728.762 L483.411,728.762 L483.411,738.848 Z M483.329,791 L488.741,791 L488.741,747.13 L483.329,747.13 L483.329,791 Z M522.361,746.31 C514.079,746.31 509.241,752.05 507.191,755.412 L506.207,747.13 L501.533,747.13 L502.271,758.692 L502.271,791 L507.683,791 L507.683,760.742 C509.487,757.216 513.751,751.148 521.459,751.148 C529.905,751.148 532.283,756.15 532.283,765.334 L532.201,791 L537.613,791 L537.695,764.924 C537.695,750.82 532.857,746.31 522.361,746.31 Z M582.385,747.13 L587.059,747.13 L586.403,758.61 L586.403,791.082 C586.403,800.43 585.829,810.68 567.461,810.68 C549.503,810.68 550.651,795.592 550.651,795.592 L555.735,795.51 C555.735,795.838 555.079,806.416 567.789,806.416 C580.335,806.416 580.991,799.364 580.991,791.082 L580.991,784.604 C578.531,788.458 573.939,791.738 565.903,791.738 C553.439,791.738 548.683,782.964 548.683,769.188 C548.683,755.412 553.439,746.392 565.903,746.392 C574.677,746.392 579.761,751.886 581.483,754.592 L582.385,747.13 Z M566.723,787.228 C575.989,787.228 579.925,781.324 580.991,776.978 L580.991,760.086 C579.597,757.298 575.415,750.82 566.723,750.82 C558.195,750.82 554.259,757.626 554.259,769.188 C554.259,780.832 558.195,787.228 566.723,787.228 Z M613.873,777.388 C613.873,787.392 620.269,791.738 631.585,791.902 C644.049,791.984 649.543,787.474 649.543,779.52 C649.543,761.562 620.269,770.91 620.269,758.118 C620.269,754.428 622.647,750.41 631.831,750.574 C640.851,750.656 643.393,754.51 643.393,759.676 L648.313,759.676 C648.313,750.984 643.147,746.392 631.749,746.31 C620.269,746.146 614.857,750.902 614.857,758.118 C615.021,775.994 644.049,766.154 643.967,779.848 C643.967,784.276 640.769,787.72 631.503,787.638 C623.221,787.474 618.875,784.112 618.875,777.388 L613.873,777.388 Z M676.767,791.902 C661.761,791.902 657.497,782.718 657.497,769.188 C657.497,755.658 661.761,746.228 676.767,746.228 C691.691,746.146 695.955,755.658 695.955,769.188 C695.955,782.718 691.691,791.902 676.767,791.902 Z M676.685,787.474 C687.181,787.474 690.379,781.078 690.379,769.188 C690.379,757.38 687.181,750.656 676.685,750.656 C666.271,750.656 663.073,757.38 663.073,769.188 C663.073,781.078 666.271,787.474 676.685,787.474 Z M724.327,791.902 C709.321,791.902 705.057,782.718 705.057,769.188 C705.057,755.658 709.321,746.228 724.327,746.228 C739.251,746.146 743.515,755.658 743.515,769.188 C743.515,782.718 739.251,791.902 724.327,791.902 Z M724.245,787.474 C734.741,787.474 737.939,781.078 737.939,769.188 C737.939,757.38 734.741,750.656 724.245,750.656 C713.831,750.656 710.633,757.38 710.633,769.188 C710.633,781.078 713.831,787.474 724.245,787.474 Z M775.167,746.31 C766.885,746.31 762.047,752.05 759.997,755.412 L759.013,747.13 L754.339,747.13 L755.077,758.692 L755.077,791 L760.489,791 L760.489,760.742 C762.293,757.216 766.557,751.148 774.265,751.148 C782.711,751.148 785.089,756.15 785.089,765.334 L785.007,791 L790.419,791 L790.501,764.924 C790.501,750.82 785.663,746.31 775.167,746.31 Z" id="will-be-returning-so"></path>
                <path d="M354.42,892 L376.42,892 L376.42,885.08 L366.62,885.6 C366.86,885.48 369.1,884.2 371.26,882.28 C373.5,880.36 376.9,877.04 376.9,872.4 C376.9,866.96 374.34,862.84 365.74,862.84 C357.02,862.84 354.18,867 354.18,873.88 L362.78,873.88 C362.78,871.36 363.62,869.88 365.74,869.88 C367.78,869.88 368.58,871.24 368.58,872.92 C368.58,875.6 365.14,877.92 362.34,880.04 C359.02,882.6 354.42,885.48 354.42,885.52 L354.42,892 Z M393.34,892.6 C383.62,892.6 381.18,887.72 381.18,878.16 C381.18,867.84 383.62,862.88 393.34,862.88 C403.1,862.88 405.54,867.84 405.54,878.16 C405.54,887.72 403.1,892.6 393.34,892.6 Z M393.34,885.36 C396.3,885.36 396.94,883.4 396.94,878.16 C396.94,872.16 396.3,870.12 393.34,870.12 C390.42,870.12 389.74,872.16 389.74,878.16 C389.74,883.4 390.42,885.36 393.34,885.36 Z M416.02,863.28 L408.3,866.48 L408.3,872.84 L413.18,870.76 L413.18,892 L421.62,892 L421.62,863.28 L416.02,863.28 Z M438.14,892 C438.14,881.8 446.5,870.64 446.5,870.64 L446.5,863.8 L425.22,863.8 L425.22,870.64 L437.54,870.4 C437.54,870.4 428.86,880.52 428.86,892 L438.14,892 Z" id="2017"></path>
                <path d="M37.275,119.575 L30.015,144.655 L22.535,119.575 L18.96,119.575 L11.865,144.765 L4.44,119.52 L0.7,119.52 L9.995,149 L13.515,149 L20.555,124.8 L28.09,149 L31.665,149 L40.85,119.575 L37.275,119.575 Z M56.47,146.745 C63.345,146.745 65.16,142.29 65.215,140.145 L68.9,140.145 C68.9,142.95 66.81,149.605 56.47,149.605 C47.12,149.605 43.765,144.325 43.765,134.425 C43.765,124.525 47.12,118.97 56.47,118.97 C64.94,118.97 69.12,123.59 69.12,134.095 L47.505,134.095 L47.505,134.48 C47.505,141.63 49.1,146.745 56.47,146.745 Z M56.47,121.775 C50.255,121.775 48.11,125.79 47.615,131.345 L65.435,131.345 C64.885,125.35 62.355,121.775 56.47,121.775 Z M101.46,119.025 C96.07,119.025 92.88,122.6 91.45,124.855 L91.45,107.2 L87.82,107.2 L87.82,149 L91.45,149 L91.45,129.035 C92.55,126.78 95.41,122.27 100.855,122.27 C106.52,122.27 108.06,125.625 108.06,131.785 L108.06,149 L111.69,149 L111.69,131.51 C111.69,122.05 108.5,119.025 101.46,119.025 Z M131.985,149.605 C121.92,149.605 119.06,143.445 119.06,134.37 C119.06,125.295 121.92,118.97 131.985,118.97 C141.995,118.915 144.855,125.295 144.855,134.37 C144.855,143.445 141.995,149.605 131.985,149.605 Z M131.93,146.635 C138.97,146.635 141.115,142.345 141.115,134.37 C141.115,126.45 138.97,121.94 131.93,121.94 C124.945,121.94 122.8,126.45 122.8,134.37 C122.8,142.345 124.945,146.635 131.93,146.635 Z M166.36,119.08 C174.72,119.08 177.91,125.13 177.91,134.37 C177.91,143.61 174.72,149.495 166.36,149.495 C160.97,149.495 157.89,147.295 156.24,144.71 L156.24,162.2 L152.61,162.2 L152.61,127.165 L152.115,119.575 L155.25,119.575 L155.91,124.855 C157.12,122.985 160.475,119.08 166.36,119.08 Z M165.755,146.47 C171.53,146.47 174.17,142.18 174.17,134.37 C174.17,126.615 171.53,122.05 165.755,122.05 C160.09,122.05 157.23,126.45 156.24,128.54 L156.24,139.595 C156.955,142.51 159.595,146.47 165.755,146.47 Z M196.72,146.745 C203.595,146.745 205.41,142.29 205.465,140.145 L209.15,140.145 C209.15,142.95 207.06,149.605 196.72,149.605 C187.37,149.605 184.015,144.325 184.015,134.425 C184.015,124.525 187.37,118.97 196.72,118.97 C205.19,118.97 209.37,123.59 209.37,134.095 L187.755,134.095 L187.755,134.48 C187.755,141.63 189.35,146.745 196.72,146.745 Z M196.72,121.775 C190.505,121.775 188.36,125.79 187.865,131.345 L205.685,131.345 C205.135,125.35 202.605,121.775 196.72,121.775 Z M238.135,146.085 C233.68,146.085 232.91,143.115 232.91,138.11 L232.91,122.545 L240.61,122.545 L240.61,119.575 L232.91,119.575 L232.91,110.335 L229.28,111.05 L229.28,119.575 L225.54,119.575 L225.54,122.545 L229.28,122.545 L229.28,138.11 C229.28,143.995 229.94,149.11 237.75,149.11 L240.885,149.11 L240.885,146.085 L238.135,146.085 Z M259.97,119.025 C254.58,119.025 251.39,122.6 249.96,124.855 L249.96,107.2 L246.33,107.2 L246.33,149 L249.96,149 L249.96,129.035 C251.06,126.78 253.92,122.27 259.365,122.27 C265.03,122.27 266.57,125.625 266.57,131.785 L266.57,149 L270.2,149 L270.2,131.51 C270.2,122.05 267.01,119.025 259.97,119.025 Z M278.89,114.02 L282.52,114.02 L282.52,107.255 L278.89,107.255 L278.89,114.02 Z M278.835,149 L282.465,149 L282.465,119.575 L278.835,119.575 L278.835,149 Z M289.395,139.87 C289.395,146.58 293.685,149.495 301.275,149.605 C309.635,149.66 313.32,146.635 313.32,141.3 C313.32,129.255 293.685,135.525 293.685,126.945 C293.685,124.47 295.28,121.775 301.44,121.885 C307.49,121.94 309.195,124.525 309.195,127.99 L312.495,127.99 C312.495,122.16 309.03,119.08 301.385,119.025 C293.685,118.915 290.055,122.105 290.055,126.945 C290.165,138.935 309.635,132.335 309.58,141.52 C309.58,144.49 307.435,146.8 301.22,146.745 C295.665,146.635 292.75,144.38 292.75,139.87 L289.395,139.87 Z M364.14,119.025 C358.64,119.025 355.45,123.15 354.185,125.35 C352.92,120.675 349.895,119.025 345.165,119.025 C339.83,119.025 336.64,122.93 335.375,125.185 L334.66,119.575 L331.525,119.575 L332.02,127.33 L332.02,149 L335.65,149 L335.65,128.925 C336.75,126.615 339.555,122.27 344.615,122.27 C349.95,122.27 351.38,125.625 351.38,131.785 L351.38,149 L354.845,149 L354.845,131.51 C354.845,130.465 354.79,129.475 354.735,128.595 C355.945,126.23 358.695,122.27 363.59,122.27 C368.98,122.27 370.41,125.625 370.41,131.785 L370.41,149 L373.93,149 L373.985,131.51 C373.985,122.05 370.63,119.025 364.14,119.025 Z M394.06,146.745 C400.935,146.745 402.75,142.29 402.805,140.145 L406.49,140.145 C406.49,142.95 404.4,149.605 394.06,149.605 C384.71,149.605 381.355,144.325 381.355,134.425 C381.355,124.525 384.71,118.97 394.06,118.97 C402.53,118.97 406.71,123.59 406.71,134.095 L385.095,134.095 L385.095,134.48 C385.095,141.63 386.69,146.745 394.06,146.745 Z M394.06,121.775 C387.845,121.775 385.7,125.79 385.205,131.345 L403.025,131.345 C402.475,125.35 399.945,121.775 394.06,121.775 Z M412.045,139.87 C412.045,146.58 416.335,149.495 423.925,149.605 C432.285,149.66 435.97,146.635 435.97,141.3 C435.97,129.255 416.335,135.525 416.335,126.945 C416.335,124.47 417.93,121.775 424.09,121.885 C430.14,121.94 431.845,124.525 431.845,127.99 L435.145,127.99 C435.145,122.16 431.68,119.08 424.035,119.025 C416.335,118.915 412.705,122.105 412.705,126.945 C412.815,138.935 432.285,132.335 432.23,141.52 C432.23,144.49 430.085,146.8 423.87,146.745 C418.315,146.635 415.4,144.38 415.4,139.87 L412.045,139.87 Z M440.81,139.87 C440.81,146.58 445.1,149.495 452.69,149.605 C461.05,149.66 464.735,146.635 464.735,141.3 C464.735,129.255 445.1,135.525 445.1,126.945 C445.1,124.47 446.695,121.775 452.855,121.885 C458.905,121.94 460.61,124.525 460.61,127.99 L463.91,127.99 C463.91,122.16 460.445,119.08 452.8,119.025 C445.1,118.915 441.47,122.105 441.47,126.945 C441.58,138.935 461.05,132.335 460.995,141.52 C460.995,144.49 458.85,146.8 452.635,146.745 C447.08,146.635 444.165,144.38 444.165,139.87 L440.81,139.87 Z M494.38,148.945 L491.245,148.945 L490.64,144.545 C488.88,147.625 485.47,149.55 479.915,149.55 C472.655,149.55 469.905,146.58 469.905,140.915 C469.905,131.62 478.485,132.17 490.2,132.225 C490.145,124.745 489.595,121.885 482.665,121.885 C475.68,121.885 474.525,125.79 474.525,128.32 L471.17,128.32 C471.17,124.965 472.38,119.08 482.5,119.08 C494.325,119.08 493.83,125.405 493.83,134.425 L493.83,141.575 L494.38,148.945 Z M480.52,146.91 C485.635,146.91 489.21,144.6 490.2,140.585 L490.2,134.755 C479.805,134.7 473.425,134.26 473.425,141.025 C473.425,144.545 475.13,146.91 480.52,146.91 Z M523.75,119.575 L526.885,119.575 L526.445,127.275 L526.445,149.055 C526.445,155.325 526.06,162.2 513.74,162.2 C501.695,162.2 502.465,152.08 502.465,152.08 L505.875,152.025 C505.875,152.245 505.435,159.34 513.96,159.34 C522.375,159.34 522.815,154.61 522.815,149.055 L522.815,144.71 C521.165,147.295 518.085,149.495 512.695,149.495 C504.335,149.495 501.145,143.61 501.145,134.37 C501.145,125.13 504.335,119.08 512.695,119.08 C518.58,119.08 521.99,122.765 523.145,124.58 L523.75,119.575 Z M513.245,146.47 C519.46,146.47 522.1,142.51 522.815,139.595 L522.815,128.265 C521.88,126.395 519.075,122.05 513.245,122.05 C507.525,122.05 504.885,126.615 504.885,134.37 C504.885,142.18 507.525,146.47 513.245,146.47 Z M546.355,146.745 C553.23,146.745 555.045,142.29 555.1,140.145 L558.785,140.145 C558.785,142.95 556.695,149.605 546.355,149.605 C537.005,149.605 533.65,144.325 533.65,134.425 C533.65,124.525 537.005,118.97 546.355,118.97 C554.825,118.97 559.005,123.59 559.005,134.095 L537.39,134.095 L537.39,134.48 C537.39,141.63 538.985,146.745 546.355,146.745 Z M546.355,121.775 C540.14,121.775 537.995,125.79 537.5,131.345 L555.32,131.345 C554.77,125.35 552.24,121.775 546.355,121.775 Z M590.685,109.84 L590.685,106.815 L587.935,106.815 C580.125,106.815 579.135,111.545 579.135,118.035 L579.135,119.575 L575.12,119.575 L575.12,122.545 L579.135,122.545 L579.135,149 L582.765,149 L582.765,122.545 L590.465,122.545 L590.465,119.575 L582.765,119.575 L582.765,118.035 C582.765,112.425 583.865,109.84 588.32,109.84 L590.685,109.84 Z M595.305,114.02 L598.935,114.02 L598.935,107.255 L595.305,107.255 L595.305,114.02 Z M595.25,149 L598.88,149 L598.88,119.575 L595.25,119.575 L595.25,149 Z M621.43,119.025 C615.875,119.025 612.63,122.875 611.255,125.13 L610.595,119.575 L607.46,119.575 L607.955,127.33 L607.955,149 L611.585,149 L611.585,128.705 C612.795,126.34 615.655,122.27 620.825,122.27 C626.49,122.27 628.085,125.625 628.085,131.785 L628.03,149 L631.66,149 L631.715,131.51 C631.715,122.05 628.47,119.025 621.43,119.025 Z M664.88,149 L661.745,149 L661.085,144.16 C659.49,146.965 656.41,149.495 650.635,149.495 C642.275,149.495 639.085,143.61 639.085,134.37 C639.085,125.13 642.275,119.08 650.635,119.08 C656.08,119.08 659.38,122.215 660.755,124.085 L660.755,107.2 L664.385,107.2 L664.385,141.3 L664.88,149 Z M651.185,146.47 C657.4,146.47 660.04,142.51 660.755,139.595 L660.755,128.595 C659.82,126.615 657.015,122.05 651.185,122.05 C645.465,122.05 642.825,126.615 642.825,134.37 C642.825,142.18 645.465,146.47 651.185,146.47 Z M671.755,139.87 C671.755,146.58 676.045,149.495 683.635,149.605 C691.995,149.66 695.68,146.635 695.68,141.3 C695.68,129.255 676.045,135.525 676.045,126.945 C676.045,124.47 677.64,121.775 683.8,121.885 C689.85,121.94 691.555,124.525 691.555,127.99 L694.855,127.99 C694.855,122.16 691.39,119.08 683.745,119.025 C676.045,118.915 672.415,122.105 672.415,126.945 C672.525,138.935 691.995,132.335 691.94,141.52 C691.94,144.49 689.795,146.8 683.58,146.745 C678.025,146.635 675.11,144.38 675.11,139.87 L671.755,139.87 Z M732.53,119.575 L723.345,145.48 L714.16,119.575 L710.145,119.575 L721.09,149 L722.135,149 L717.845,161.045 L721.255,161.045 L736.325,119.575 L732.53,119.575 Z M751.615,149.605 C741.55,149.605 738.69,143.445 738.69,134.37 C738.69,125.295 741.55,118.97 751.615,118.97 C761.625,118.915 764.485,125.295 764.485,134.37 C764.485,143.445 761.625,149.605 751.615,149.605 Z M751.56,146.635 C758.6,146.635 760.745,142.345 760.745,134.37 C760.745,126.45 758.6,121.94 751.56,121.94 C744.575,121.94 742.43,126.45 742.43,134.37 C742.43,142.345 744.575,146.635 751.56,146.635 Z M795.89,149 L795.395,140.86 L795.395,119.575 L791.765,119.575 L791.765,138.825 C790.995,140.695 788.19,146.36 782.195,146.36 C776.53,146.36 774.99,142.895 774.99,136.79 L775.045,119.575 L771.415,119.575 L771.36,137.285 C771.36,146.525 774.77,149.605 781.59,149.605 C787.75,149.605 791.05,144.71 791.985,142.73 L792.755,149 L795.89,149 Z" id="we-hope-this-message"></path>
                <path d="M51.946,4.024 L46.822,28.552 L21.874,28.552 L26.998,4.024 L16.834,4.024 L4.318,64 L14.482,64 L19.858,38.044 L44.806,38.044 L39.43,64 L49.594,64 L62.11,4.024 L51.946,4.024 Z M106.126,43.084 L75.13,43.084 C73.282,52.744 74.038,57.7 82.606,57.7 C89.83,57.7 93.946,52.66 94.702,49.72 L104.53,49.72 C103.27,55.852 97.39,65.176 81.094,65.176 C66.982,65.176 62.446,56.356 65.554,41.488 C68.662,26.536 74.962,17.464 91.006,17.464 C104.446,17.464 109.738,26.032 106.126,43.084 Z M89.494,24.688 C83.362,24.688 79.33,28.636 76.894,36.028 L97.81,36.028 C98.566,28.468 96.55,24.688 89.494,24.688 Z M112.342,64 L125.698,0.16 L135.442,0.16 L122.086,64 L112.342,64 Z M135.022,64 L148.378,0.16 L158.122,0.16 L144.766,64 L135.022,64 Z M176.182,65.176 C161.566,65.176 157.198,55.684 160.222,41.404 C163.246,27.124 169.63,17.464 186.178,17.464 C200.794,17.38 205.162,27.124 202.222,41.404 C199.198,55.684 192.73,65.176 176.182,65.176 Z M177.862,57.28 C185.422,57.28 189.874,52.24 192.142,41.404 C194.326,30.652 193.654,25.276 184.498,25.276 C176.938,25.276 172.402,30.652 170.134,41.404 C167.866,52.24 168.79,57.28 177.862,57.28 Z M279.586,64 L268.414,64 L265.138,59.8 C260.182,63.832 254.134,65.512 246.826,65.512 C232.882,65.512 227.086,58.96 229.606,46.864 C231.79,36.364 238.51,31.576 243.466,29.476 C241.618,26.116 240.862,22.924 241.87,18.136 C243.55,9.568 248.422,2.932 262.198,2.932 C274.714,2.932 277.066,10.24 275.05,19.984 L264.97,19.984 C265.978,15.28 265.474,11.584 260.35,11.584 C255.226,11.584 253.21,14.608 252.454,18.136 C250.942,25.612 255.646,29.896 262.366,39.556 L265.894,44.596 C267.322,41.488 268.498,37.792 269.422,33.34 L278.158,33.34 C276.478,41.404 274.21,47.62 271.354,52.408 L279.586,64 Z M248.842,56.692 C252.874,56.692 256.57,55.516 259.762,52.828 C256.99,49.048 253.798,44.68 250.774,40.228 C249.598,38.464 248.506,36.868 247.498,35.524 C244.39,37.372 240.946,40.648 239.77,46.276 C238.594,51.82 239.35,56.692 248.842,56.692 Z M347.29,18.556 L355.438,18.556 L352.162,31.66 L345.442,64.168 C343.594,72.904 341.914,84.16 320.158,84.16 C302.098,84.16 305.29,68.536 305.29,68.536 L314.362,68.536 C314.194,69.292 312.094,76.684 322.426,76.684 C332.506,76.684 334.186,71.224 335.698,64.168 L336.706,59.548 C333.346,62.572 328.558,64.84 321.67,64.84 C309.406,64.84 305.542,56.272 308.566,41.32 C311.674,26.452 318.562,17.716 331.498,17.716 C339.562,17.716 343.426,22.924 344.602,25.528 L347.29,18.556 Z M325.282,57.028 C333.178,57.028 337.378,51.736 339.142,47.704 L341.998,33.928 C341.242,30.904 338.806,25.528 331.834,25.528 C325.03,25.528 320.662,31.072 318.562,41.32 C316.462,51.652 318.226,57.028 325.282,57.028 Z M358.798,64 L372.154,0.16 L381.898,0.16 L368.542,64 L358.798,64 Z M408.61,17.716 C426.418,17.716 425.578,27.712 422.722,41.488 L420.454,52.072 L418.69,63.916 L410.542,63.916 L410.626,58.708 C407.098,62.572 401.974,64.924 394.414,64.924 C384.586,64.924 379.882,60.472 381.73,51.148 C384.754,36.7 397.186,36.868 413.902,36.952 C415.498,28.636 415.498,24.856 407.602,24.856 C399.79,24.856 396.934,29.56 396.346,32.584 L387.61,32.584 C388.702,27.376 391.81,17.716 408.61,17.716 Z M397.858,58.204 C402.982,58.204 408.274,55.768 411.13,50.308 L412.558,43.336 C399.538,43.336 392.566,43.42 390.97,51.4 C390.13,55.348 391.642,58.204 397.858,58.204 Z M473.374,0.16 L483.118,0.16 L472.45,51.568 L470.434,64 L462.286,64 L462.454,58.12 C459.094,61.9 453.97,64.84 446.242,64.84 C433.81,64.84 429.946,56.272 433.054,41.32 C436.162,26.452 443.05,17.716 456.07,17.716 C462.958,17.716 466.738,20.992 468.586,23.428 L473.374,0.16 Z M449.77,57.028 C457.246,57.028 461.53,52.156 463.462,48.292 L466.402,33.844 C465.562,30.736 463.21,25.528 456.322,25.528 C449.518,25.528 445.15,31.072 443.05,41.32 C440.95,51.652 442.714,57.028 449.77,57.028 Z M519.826,26.368 L515.71,46.192 C514.114,53.92 515.038,56.44 519.742,56.44 L524.53,56.44 L522.85,64.336 L516.802,64.336 C503.446,64.336 503.782,55.936 505.882,46.192 L509.998,26.368 L504.286,26.368 L505.966,18.556 L511.678,18.556 L514.198,6.376 L524.278,4.612 L521.422,18.556 L531.922,18.556 L530.326,26.368 L519.826,26.368 Z M542.17,11.836 L544.69,0.16 L554.434,0.16 L551.914,11.836 L542.17,11.836 Z M530.998,64 L540.49,18.556 L550.234,18.556 L540.742,64 L530.998,64 Z M595.762,0.16 L605.506,0.16 L594.838,51.568 L592.822,64 L584.674,64 L584.842,58.12 C581.482,61.9 576.358,64.84 568.63,64.84 C556.198,64.84 552.334,56.272 555.442,41.32 C558.55,26.452 565.438,17.716 578.458,17.716 C585.346,17.716 589.126,20.992 590.974,23.428 L595.762,0.16 Z M572.158,57.028 C579.634,57.028 583.918,52.156 585.85,48.292 L588.79,33.844 C587.95,30.736 585.598,25.528 578.71,25.528 C571.906,25.528 567.538,31.072 565.438,41.32 C563.338,51.652 565.102,57.028 572.158,57.028 Z M615.082,11.836 L624.826,11.836 L627.346,0.16 L617.602,0.16 L615.082,11.836 Z M603.91,64 L613.402,18.556 L623.146,18.556 L613.654,64 L603.91,64 Z M659.182,17.548 C650.698,17.548 645.07,23.008 642.802,25.864 L643.054,18.556 L634.906,18.556 L632.974,30.988 L626.086,64 L635.83,64 L641.794,35.02 C644.146,31.828 649.102,26.116 655.402,26.116 C662.794,26.116 662.542,30.82 661.03,37.792 L655.486,64 L665.23,64 L670.942,36.868 C673.966,22.336 669.766,17.548 659.182,17.548 Z M719.074,18.556 L727.222,18.556 L723.946,31.66 L717.226,64.168 C715.378,72.904 713.698,84.16 691.942,84.16 C673.882,84.16 677.074,68.536 677.074,68.536 L686.146,68.536 C685.978,69.292 683.878,76.684 694.21,76.684 C704.29,76.684 705.97,71.224 707.482,64.168 L708.49,59.548 C705.13,62.572 700.342,64.84 693.454,64.84 C681.19,64.84 677.326,56.272 680.35,41.32 C683.458,26.452 690.346,17.716 703.282,17.716 C711.346,17.716 715.21,22.924 716.386,25.528 L719.074,18.556 Z M697.066,57.028 C704.962,57.028 709.162,51.736 710.926,47.704 L713.782,33.928 C713.026,30.904 710.59,25.528 703.618,25.528 C696.814,25.528 692.446,31.072 690.346,41.32 C688.246,51.652 690.01,57.028 697.066,57.028 Z M731.086,49.216 C728.818,60.388 735.118,65.092 746.626,65.092 C760.57,65.176 767.206,60.388 769.054,51.484 C772.834,32.92 743.434,41.74 745.618,30.4 C746.122,27.796 748.726,24.856 755.278,24.856 C762.334,24.94 763.93,27.88 763.09,31.912 L771.826,31.912 C773.758,22.504 768.466,17.548 756.622,17.548 C743.938,17.464 737.554,22.504 735.874,30.4 C731.926,49.804 761.326,40.228 758.974,52.156 C758.302,55.432 754.69,57.784 748.138,57.7 C741.754,57.7 738.562,55.264 739.906,49.216 L731.086,49.216 Z M779.806,48.796 L788.206,48.796 L798.202,4.024 L788.458,4.024 L779.806,48.796 Z M775.942,64 L785.602,64 L787.786,53.836 L778.126,53.836 L775.942,64 Z" id="Hello-&amp;-glad-tidings"></path>
            </g>
        </g>
    </g>
</svg>