<?xml version="1.0" encoding="utf-8"?>
<!-- Generator: Adobe Illustrator 18.1.1, SVG Export Plug-In . SVG Version: 6.00 Build 0)  -->
<svg version="1.1" id="Layer_1" xmlns="http://www.w3.org/2000/svg" xmlns:xlink="http://www.w3.org/1999/xlink" x="0px" y="0px"
	 viewBox="0 160 90 80" enable-background="new 0 160 90 80" xml:space="preserve">
<g>
	<g>
		
			<polyline fill="none" stroke="#E64C3B" stroke-width="3" stroke-linecap="round" stroke-linejoin="round" stroke-miterlimit="10" points="
			60.7,210.6 60.7,237.4 24.5,237.4 24.5,210.6 		"/>
		
			<polyline fill="none" stroke="#E64C3B" stroke-width="3" stroke-linecap="round" stroke-linejoin="round" stroke-miterlimit="10" points="
			52.4,210.6 18.6,210.6 18.6,202.4 66.6,202.4 66.6,210.6 61.1,210.6 		"/>
		
			<line fill="none" stroke="#E64C3B" stroke-width="3" stroke-linecap="round" stroke-linejoin="round" stroke-miterlimit="10" x1="42.6" y1="237.4" x2="42.6" y2="203.4"/>
		<g>
			
				<ellipse transform="matrix(0.7071 0.7071 -0.7071 0.7071 139.868 29.3192)" fill="none" stroke="#E64C3B" stroke-width="3" stroke-linecap="round" stroke-linejoin="round" stroke-miterlimit="10" cx="34.5" cy="183.5" rx="13" ry="8.3"/>
			
				<ellipse transform="matrix(-0.7071 0.7071 -0.7071 -0.7071 216.1269 277.2638)" fill="none" stroke="#E64C3B" stroke-width="3" stroke-linecap="round" stroke-linejoin="round" stroke-miterlimit="10" cx="50.6" cy="183.4" rx="13" ry="8.3"/>
		</g>
	</g>
	<path fill="none" stroke="#E64C3B" stroke-width="3" stroke-linecap="round" stroke-linejoin="round" stroke-miterlimit="10" d="
		M5,190.3c3.7-0.9,6.1-3.1,6.8-6.8c0.4,1.7,1.1,3.3,2.4,4.4c1.2,1.2,2.8,2,4.6,2.4c-1.7,0.4-3.3,1.1-4.4,2.4
		c-1.3,1.1-2.2,2.6-2.6,4.4C11.1,193.4,8.7,191,5,190.3z"/>
	<path fill="none" stroke="#E64C3B" stroke-width="3" stroke-linecap="round" stroke-linejoin="round" stroke-miterlimit="10" d="
		M68.8,189c4.3-1,6.9-3.7,8.1-8.1c0.3,2.1,1.2,3.8,2.7,5.2c1.4,1.3,3.2,2.4,5.4,2.8c-2.1,0.3-3.8,1.3-5.4,2.8
		c-1.4,1.4-2.4,3.2-2.8,5.2C75.8,192.6,73.1,190,68.8,189z"/>
	<path fill="none" stroke="#E64C3B" stroke-width="3" stroke-linecap="round" stroke-linejoin="round" stroke-miterlimit="10" d="
		M8.9,167.8c2.8-0.7,4.4-2.4,5.2-5.2c0.2,1.3,0.9,2.4,1.7,3.5c1.1,1.1,2,1.5,3.5,1.7c-1.3,0.2-2.4,0.9-3.5,1.7
		c-1.1,1.1-1.5,2-1.7,3.5C13.4,170.2,11.7,168.5,8.9,167.8z"/>
</g>
</svg>
