<?xml version="1.0" encoding="utf-8"?>
<!-- Generator: Adobe Illustrator 18.1.0, SVG Export Plug-In . SVG Version: 6.00 Build 0)  -->
<!DOCTYPE svg PUBLIC "-//W3C//DTD SVG 1.1//EN" "http://www.w3.org/Graphics/SVG/1.1/DTD/svg11.dtd">
<svg version="1.1" id="Layer_1" xmlns="http://www.w3.org/2000/svg" xmlns:xlink="http://www.w3.org/1999/xlink" x="0px" y="0px"
	 width="90px" height="80px" viewBox="-374 257 90 80" enable-background="new -374 257 90 80" xml:space="preserve">
<g>
	<path fill="none" stroke="#E64C3B" stroke-width="3" stroke-linecap="round" stroke-linejoin="round" stroke-miterlimit="10" d="
		M-310,322.4h8.5c2.2,0,4,1.8,4,4v5.1c0,2.2-1.8,4-4,4h-55c-2.2,0-4-1.8-4-4v-5.1c0-2.2,1.8-4,18-4h25.2"/>
	
		<line fill="none" stroke="#E64C3B" stroke-width="3" stroke-linecap="round" stroke-linejoin="round" stroke-miterlimit="10" x1="-329.4" y1="295.7" x2="-346.7" y2="313.3"/>
	<path fill="none" stroke="#E64C3B" stroke-width="3" stroke-linecap="round" stroke-linejoin="round" stroke-miterlimit="10" d="
		M-306.2,322.4c0,0,3.8-37.6-27.8-45.5c-0.6,4.2-4,7.5-8.2,7.9c1.2,8,1.7,21.3-5.8,30.2c-2.8,3.4-4.7,5.5-5.8,6.8"/>
	
		<circle fill="none" stroke="#E64C3B" stroke-width="3" stroke-linecap="round" stroke-linejoin="round" stroke-miterlimit="10" cx="-343.1" cy="275.6" r="9.1"/>
</g>
<g>
	<path fill="#E64C3B" d="M-289,279c1.7,0,3,1.3,3,3s-1.3,3-3,3s-3-1.3-3-3S-290.7,279-289,279 M-289,277c-2.8,0-5,2.2-5,5s2.2,5,5,5
		s5-2.2,5-5S-286.2,277-289,277L-289,277z"/>
</g>
<g>
	<path fill="#E64C3B" d="M-314.1,259c2.5,0,4.5,2,4.5,4.5s-2,4.5-4.5,4.5s-4.5-2-4.5-4.5S-316.6,259-314.1,259 M-314.1,257
		c-3.6,0-6.5,2.9-6.5,6.5s2.9,6.5,6.5,6.5s6.5-2.9,6.5-6.5S-310.5,257-314.1,257L-314.1,257z"/>
</g>
<g>
	<path fill="#E64C3B" d="M-362.2,296.6c2.8,0,5.1,2.3,5.1,5.1c0,2.8-2.3,5.1-5.1,5.1s-5.1-2.3-5.1-5.1
		C-367.3,298.9-365,296.6-362.2,296.6 M-362.2,294.6c-3.9,0-7.1,3.2-7.1,7.1c0,3.9,3.2,7.1,7.1,7.1s7.1-3.2,7.1-7.1
		C-355.1,297.8-358.3,294.6-362.2,294.6L-362.2,294.6z"/>
</g>
</svg>
