<?xml version="1.0" encoding="utf-8"?>
<!-- Generator: Adobe Illustrator 18.1.0, SVG Export Plug-In . SVG Version: 6.00 Build 0)  -->
<!DOCTYPE svg PUBLIC "-//W3C//DTD SVG 1.1//EN" "http://www.w3.org/Graphics/SVG/1.1/DTD/svg11.dtd">
<svg version="1.1" id="Layer_1" xmlns="http://www.w3.org/2000/svg" xmlns:xlink="http://www.w3.org/1999/xlink" x="0px" y="0px"
	 width="90px" height="80px" viewBox="-374 257 90 80" enable-background="new -374 257 90 80" xml:space="preserve">
<g>
	
		<polyline fill="none" stroke="#E64C3B" stroke-width="3" stroke-linecap="round" stroke-linejoin="round" stroke-miterlimit="10" points="
		-310.2,306.9 -310.2,334.7 -347.8,334.7 -347.8,306.9 	"/>
	
		<polyline fill="none" stroke="#E64C3B" stroke-width="3" stroke-linecap="round" stroke-linejoin="round" stroke-miterlimit="10" points="
		-318.8,306.9 -354,306.9 -354,298.3 -304,298.3 -304,306.9 -309.8,306.9 	"/>
	
		<line fill="none" stroke="#E64C3B" stroke-width="3" stroke-linecap="round" stroke-linejoin="round" stroke-miterlimit="10" x1="-329" y1="334.7" x2="-329" y2="299.4"/>
	<g>
		
			<ellipse transform="matrix(-0.7071 -0.7071 0.7071 -0.7071 -772.9775 237.067)" fill="none" stroke="#E64C3B" stroke-width="3" stroke-linecap="round" stroke-linejoin="round" stroke-miterlimit="10" cx="-337.4" cy="278.6" rx="13.5" ry="8.6"/>
		
			<ellipse transform="matrix(0.7071 -0.7071 0.7071 0.7071 -290.92 -145.0989)" fill="none" stroke="#E64C3B" stroke-width="3" stroke-linecap="round" stroke-linejoin="round" stroke-miterlimit="10" cx="-320.6" cy="278.6" rx="13.5" ry="8.6"/>
	</g>
</g>
<path fill="#E64C3B" d="M-368.1,285.8c3.8-0.9,6.3-3.2,7.1-7.1c0.4,1.8,1.1,3.4,2.5,4.6c1.3,1.3,2.9,2.1,4.8,2.5
	c-1.8,0.4-3.4,1.1-4.6,2.5c-1.4,1.1-2.3,2.7-2.7,4.6C-361.8,289-364.3,286.5-368.1,285.8z"/>
<path fill="#E64C3B" d="M-301.7,284.4c4.5-1,7.2-3.8,8.4-8.4c0.3,2.2,1.3,4,2.8,5.4c1.5,1.4,3.3,2.5,5.6,2.9c-2.2,0.3-4,1.4-5.6,2.9
	c-1.5,1.5-2.5,3.3-2.9,5.4C-294.5,288.2-297.3,285.4-301.7,284.4z"/>
<path fill="#E64C3B" d="M-364,262.4c2.9-0.7,4.6-2.5,5.4-5.4c0.2,1.4,0.9,2.5,1.8,3.6c1.1,1.1,2.1,1.6,3.6,1.8
	c-1.4,0.2-2.5,0.9-3.6,1.8c-1.1,1.1-1.6,2.1-1.8,3.6C-359.4,264.9-361.1,263.1-364,262.4z"/>
</svg>
